NerkoOne-Regular.ufo2
<glyph name="quotedbl" format="1">
  <advance width="470"/>
  <unicode hex="0022"/>
  <outline>
    <contour>
      <point x="291" y="809" type="line" smooth="yes"/>
      <point x="290.683" y="811.223"/>
      <point x="290.528" y="813.325"/>
      <point x="290.528" y="815.317" type="curve" smooth="yes"/>
      <point x="290.528" y="838.425"/>
      <point x="311.019" y="846.501"/>
      <point x="331.997" y="849.999" type="curve" smooth="yes"/>
      <point x="339.465" y="851.136"/>
      <point x="347.062" y="851.682"/>
      <point x="354.651" y="851.682" type="curve" smooth="yes"/>
      <point x="387.212" y="851.682"/>
      <point x="419.619" y="841.627"/>
      <point x="440.997" y="824.999" type="curve" smooth="yes"/>
      <point x="450.372" y="816.874"/>
      <point x="455.06" y="806.991"/>
      <point x="455.06" y="795.351" type="curve" smooth="yes"/>
      <point x="455.06" y="794.574"/>
      <point x="455.039" y="793.79"/>
      <point x="454.997" y="792.998" type="curve" smooth="yes"/>
      <point x="455.664" y="782.998"/>
      <point x="455.997" y="772.831"/>
      <point x="455.997" y="762.498" type="curve" smooth="yes"/>
      <point x="455.997" y="752.165"/>
      <point x="456.664" y="741.998"/>
      <point x="457.997" y="731.998" type="curve" smooth="yes"/>
      <point x="457.997" y="717.814"/>
      <point x="447.979" y="704.496"/>
      <point x="433.996" y="700.999" type="curve" smooth="yes"/>
      <point x="417.618" y="695.621"/>
      <point x="401.688" y="692.932"/>
      <point x="386.207" y="692.932" type="curve" smooth="yes"/>
      <point x="359.467" y="692.932"/>
      <point x="334.063" y="700.954"/>
      <point x="309.997" y="716.998" type="curve" smooth="yes"/>
      <point x="304.509" y="719.741"/>
      <point x="303.111" y="723.884"/>
      <point x="298.997" y="727.998" type="curve"/>
      <point x="298.33" y="727.331"/>
      <point x="297.997" y="726.664"/>
      <point x="297.997" y="725.997" type="curve" smooth="yes"/>
      <point x="297.997" y="706.005"/>
      <point x="280.259" y="696.832"/>
      <point x="262.997" y="692.997" type="curve" smooth="yes"/>
      <point x="252.141" y="690.383"/>
      <point x="240.537" y="689.077"/>
      <point x="228.84" y="689.077" type="curve" smooth="yes"/>
      <point x="197.576" y="689.077"/>
      <point x="165.642" y="698.402"/>
      <point x="145.499" y="716.997" type="curve" smooth="yes"/>
      <point x="128.164" y="733"/>
      <point x="131.558" y="772.317"/>
      <point x="129" y="802.997" type="curve" smooth="yes"/>
      <point x="128.877" y="804.047"/>
      <point x="128.817" y="805.074"/>
      <point x="128.817" y="806.078" type="curve" smooth="yes"/>
      <point x="128.817" y="820.091"/>
      <point x="140.498" y="829.598"/>
      <point x="154.001" y="834.998" type="curve" smooth="yes"/>
      <point x="164.001" y="838.998" type="line" smooth="yes"/>
      <point x="175.421" y="841.959"/>
      <point x="186.298" y="843.248"/>
      <point x="196.699" y="843.248" type="curve" smooth="yes"/>
      <point x="222.762" y="843.248"/>
      <point x="245.841" y="835.156"/>
      <point x="267.001" y="825" type="curve" smooth="yes"/>
      <point x="276.334" y="819.667"/>
      <point x="283.667" y="812.667"/>
      <point x="289" y="804" type="curve" smooth="yes"/>
      <point x="290" y="803" type="line"/>
      <point x="291" y="803" type="line"/>
    </contour>
  </outline>
</glyph>
<glyph name="numbersign" format="1">
  <advance width="682"/>
  <unicode hex="0023"/>
  <outline>
    <contour>
      <point x="540" y="127" type="curve" smooth="yes"/>
      <point x="525.004" y="126.99" type="line"/>
      <point x="519.729" y="102.372"/>
      <point x="516.629" y="78.3086"/>
      <point x="511.004" y="52.9912" type="curve" smooth="yes"/>
      <point x="507.004" y="34.9912" type="line" smooth="yes"/>
      <point x="505.975" y="22.6514"/>
      <point x="495.084" y="12.6865"/>
      <point x="484.003" y="8.99121" type="curve" smooth="yes"/>
      <point x="468.124" y="0.44043"/>
      <point x="450.479" y="-0.475586"/>
      <point x="429.004" y="-2.00977" type="curve" smooth="yes"/>
      <point x="410.338" y="-3.34375"/>
      <point x="396.922" y="-4.01074"/>
      <point x="388.756" y="-4.01074" type="curve" smooth="yes"/>
      <point x="382.404" y="-4.01074"/>
      <point x="379.229" y="-3.60742"/>
      <point x="379.229" y="-2.80078" type="curve" smooth="yes"/>
      <point x="379.229" y="-2.57031"/>
      <point x="379.488" y="-2.30664"/>
      <point x="380.007" y="-2.01074" type="curve" smooth="yes"/>
      <point x="384.674" y="0.65625"/>
      <point x="382.674" y="4.32324"/>
      <point x="374.007" y="8.99023" type="curve" smooth="yes"/>
      <point x="360.898" y="14.0312"/>
      <point x="355.586" y="21.2559"/>
      <point x="351.006" y="34.9893" type="curve"/>
      <point x="352.404" y="44.7734"/>
      <point x="354.457" y="54.0684"/>
      <point x="357.006" y="62.9912" type="curve" smooth="yes"/>
      <point x="369.006" y="126.991" type="line"/>
      <point x="285.006" y="126.991" type="line"/>
      <point x="279.73" y="102.373"/>
      <point x="276.631" y="78.3096"/>
      <point x="271.006" y="52.9922" type="curve" smooth="yes"/>
      <point x="267.006" y="34.9922" type="line" smooth="yes"/>
      <point x="265.977" y="22.6523"/>
      <point x="255.086" y="12.6875"/>
      <point x="244.005" y="8.99219" type="curve" smooth="yes"/>
      <point x="228.595" y="0.694336"/>
      <point x="210.954" y="-2.00781"/>
      <point x="189.006" y="-2.00781" type="curve" smooth="yes"/>
      <point x="167.09" y="-2.00781"/>
      <point x="149.395" y="0.706055"/>
      <point x="134.007" y="8.99219" type="curve" smooth="yes"/>
      <point x="120.898" y="14.0332"/>
      <point x="115.586" y="21.2578"/>
      <point x="111.006" y="34.9912" type="curve"/>
      <point x="112.404" y="44.7754"/>
      <point x="114.457" y="54.0703"/>
      <point x="117.006" y="62.9932" type="curve" smooth="yes"/>
      <point x="129.006" y="126.993" type="line"/>
      <point x="103.006" y="126.993" type="line" smooth="yes"/>
      <point x="73.1875" y="126.993"/>
      <point x="49.4287" y="134.455"/>
      <point x="32.5059" y="147.993" type="curve" smooth="yes"/>
      <point x="27.5059" y="151.993"/>
      <point x="25.0059" y="157.326"/>
      <point x="25.0059" y="163.993" type="curve" smooth="yes"/>
      <point x="25.0059" y="193.816"/>
      <point x="73.7119" y="201.993"/>
      <point x="103.005" y="201.993" type="curve" smooth="yes"/>
      <point x="142.005" y="201.993" type="line"/>
      <point x="149.617" y="237.519"/>
      <point x="154.851" y="274.659"/>
      <point x="163.004" y="309.993" type="curve"/>
      <point x="145.004" y="309.993" type="line" smooth="yes"/>
      <point x="115.186" y="309.993"/>
      <point x="91.4268" y="317.455"/>
      <point x="74.5039" y="330.993" type="curve" smooth="yes"/>
      <point x="69.5039" y="334.993"/>
      <point x="67.0039" y="340.66"/>
      <point x="67.0039" y="347.993" type="curve" smooth="yes"/>
      <point x="67.0039" y="377.054"/>
      <point x="116.499" y="384.993"/>
      <point x="145.003" y="384.993" type="curve" smooth="yes"/>
      <point x="177.003" y="384.993" type="line"/>
      <point x="184.731" y="421.701"/>
      <point x="189.047" y="460.164"/>
      <point x="198.003" y="495.995" type="curve"/>
      <point x="200.499" y="525.929"/>
      <point x="243.699" y="533.995"/>
      <point x="276.004" y="533.995" type="curve" smooth="yes"/>
      <point x="307.707" y="533.995"/>
      <point x="337.034" y="526.203"/>
      <point x="351.003" y="506.996" type="curve" smooth="yes"/>
      <point x="352.379" y="502.87"/>
      <point x="352.626" y="500.124"/>
      <point x="354.002" y="495.997" type="curve" smooth="yes"/>
      <point x="352.657" y="486.589"/>
      <point x="349.347" y="478.405"/>
      <point x="348.002" y="468.997" type="curve" smooth="yes"/>
      <point x="342.664" y="440.978"/>
      <point x="338.34" y="413.017"/>
      <point x="333.002" y="384.997" type="curve"/>
      <point x="417.002" y="384.997" type="line"/>
      <point x="424.73" y="421.705"/>
      <point x="429.046" y="460.168"/>
      <point x="438.002" y="495.999" type="curve"/>
      <point x="440.498" y="525.933"/>
      <point x="483.698" y="533.999"/>
      <point x="516.003" y="533.999" type="curve" smooth="yes"/>
      <point x="547.706" y="533.999"/>
      <point x="577.033" y="526.207"/>
      <point x="591.002" y="507" type="curve" smooth="yes"/>
      <point x="592.378" y="502.874"/>
      <point x="592.625" y="500.128"/>
      <point x="594.001" y="496.001" type="curve" smooth="yes"/>
      <point x="592.656" y="486.593"/>
      <point x="589.346" y="478.409"/>
      <point x="588.001" y="469.001" type="curve" smooth="yes"/>
      <point x="582.663" y="440.981"/>
      <point x="578.339" y="413.021"/>
      <point x="573.001" y="385.001" type="curve"/>
      <point x="582.001" y="385.001" type="line" smooth="yes"/>
      <point x="611.592" y="385.001"/>
      <point x="635.965" y="377.821"/>
      <point x="652.5" y="363.492" type="curve" smooth="yes"/>
      <point x="657.5" y="359.159"/>
      <point x="660" y="353.992"/>
      <point x="660" y="347.992" type="curve" smooth="yes"/>
      <point x="660" y="317.771"/>
      <point x="611.42" y="309.991"/>
      <point x="582.001" y="309.991" type="curve" smooth="yes"/>
      <point x="559.001" y="309.991" type="line"/>
      <point x="551.079" y="274.336"/>
      <point x="545.795" y="237.057"/>
      <point x="538.002" y="201.99" type="curve"/>
      <point x="540.002" y="201.99" type="line" smooth="yes"/>
      <point x="569.883" y="201.99"/>
      <point x="594.078" y="194.724"/>
      <point x="610.502" y="180.49" type="curve" smooth="yes"/>
      <point x="615.502" y="176.157"/>
      <point x="618.002" y="170.657"/>
      <point x="618.002" y="163.99" type="curve" smooth="yes"/>
      <point x="618.002" y="134.527"/>
      <point x="569" y="127"/>
    </contour>
    <contour>
      <point x="382.001" y="201.991" type="line"/>
      <point x="389.614" y="237.517"/>
      <point x="394.847" y="274.658"/>
      <point x="403" y="309.992" type="curve"/>
      <point x="319" y="309.992" type="line"/>
      <point x="311.078" y="274.337"/>
      <point x="305.794" y="237.058"/>
      <point x="298.001" y="201.991" type="curve"/>
    </contour>
  </outline>
</glyph>
<glyph name="quotesingle" format="1">
  <advance width="223"/>
  <unicode hex="0027"/>
  <outline>
    <contour>
      <point x="24.001" y="686.999" type="curve" smooth="yes"/>
      <point x="24.001" y="688.228"/>
      <point x="27.002" y="690.771"/>
      <point x="27.002" y="691.999" type="curve" smooth="yes"/>
      <point x="34.1826" y="704.566"/>
      <point x="71.2441" y="773.839"/>
      <point x="77.999" y="786" type="curve" smooth="yes"/>
      <point x="84.1084" y="792.109"/>
      <point x="97.5312" y="799"/>
      <point x="106.999" y="799" type="curve" smooth="yes"/>
      <point x="135.296" y="805.151"/>
      <point x="195.419" y="804.044"/>
      <point x="202" y="781.002" type="curve" smooth="yes"/>
      <point x="202" y="779.879"/>
      <point x="200" y="776.124"/>
      <point x="200" y="775.002" type="curve" smooth="yes"/>
      <point x="200" y="774.335"/>
      <point x="199" y="772.668"/>
      <point x="197" y="770.001" type="curve" smooth="yes"/>
      <point x="183" y="746.001"/>
      <point x="161.333" y="702.668"/>
      <point x="146" y="676.001" type="curve" smooth="yes"/>
      <point x="139.243" y="669.244"/>
      <point x="129.172" y="663"/>
      <point x="117" y="663" type="curve" smooth="yes"/>
      <point x="88.4971" y="656.804"/>
      <point x="27.8516" y="657.594"/>
      <point x="22.001" y="680.999" type="curve" smooth="yes"/>
      <point x="22.001" y="682.122"/>
      <point x="24.001" y="685.877"/>
    </contour>
  </outline>
</glyph>
<glyph name="hyphen" format="1">
  <advance width="408"/>
  <unicode hex="002D"/>
  <outline>
    <contour>
      <point x="24" y="302" type="curve"/>
      <point x="24" y="302"/>
      <point x="28" y="341"/>
      <point x="104" y="343" type="curve" smooth="yes"/>
      <point x="180" y="345"/>
      <point x="309" y="348"/>
      <point x="309" y="348" type="curve"/>
      <point x="309" y="348"/>
      <point x="388" y="349"/>
      <point x="392" y="310" type="curve" smooth="yes"/>
      <point x="396" y="271"/>
      <point x="300" y="261"/>
      <point x="295" y="261" type="curve" smooth="yes"/>
      <point x="290" y="261"/>
      <point x="103" y="257"/>
      <point x="103" y="257" type="curve"/>
      <point x="103" y="257"/>
      <point x="24" y="259.952"/>
    </contour>
  </outline>
</glyph>
<glyph name="period" format="1">
  <advance width="213"/>
  <unicode hex="002E"/>
  <outline>
    <contour>
      <point x="110" y="0" type="curve" smooth="yes"/>
      <point x="73.1025" y="0"/>
      <point x="30.2275" y="10.3066"/>
      <point x="26.0029" y="41.998" type="curve" smooth="yes"/>
      <point x="22.4971" y="59.5195"/>
      <point x="16.165" y="76.1631"/>
      <point x="29" y="88.998" type="curve" smooth="yes"/>
      <point x="56.8867" y="119.985"/>
      <point x="136.233" y="117.509"/>
      <point x="169.999" y="94.998" type="curve" smooth="yes"/>
      <point x="186.058" y="83.8809"/>
      <point x="189" y="67"/>
      <point x="191.001" y="48.9971" type="curve" smooth="yes"/>
      <point x="196.182" y="12.7217"/>
      <point x="146.274" y="0"/>
    </contour>
  </outline>
</glyph>
<glyph name="slash" format="1">
  <advance width="448"/>
  <unicode hex="002F"/>
  <outline>
    <contour>
      <point x="84" y="0" type="curve"/>
      <point x="84" y="0"/>
      <point x="162" y="-8"/>
      <point x="184" y="40" type="curve" smooth="yes"/>
      <point x="206" y="88"/>
      <point x="426" y="488"/>
      <point x="426" y="488" type="curve"/>
      <point x="426" y="488"/>
      <point x="458" y="545"/>
      <point x="372" y="548" type="curve" smooth="yes"/>
      <point x="286" y="551"/>
      <point x="270" y="503"/>
      <point x="270" y="503" type="curve"/>
      <point x="29" y="55" type="line"/>
      <point x="29" y="55"/>
      <point x="-4" y="0"/>
    </contour>
  </outline>
</glyph>
<glyph name="four" format="1">
  <advance width="453"/>
  <unicode hex="0034"/>
  <outline>
    <contour>
      <point x="37" y="520" type="curve"/>
      <point x="37" y="520"/>
      <point x="36" y="579"/>
      <point x="114" y="577" type="curve" smooth="yes"/>
      <point x="192" y="575"/>
      <point x="184" y="531"/>
      <point x="184" y="522" type="curve" smooth="yes"/>
      <point x="184" y="513"/>
      <point x="157" y="267"/>
      <point x="157" y="267" type="curve"/>
      <point x="251" y="274" type="line"/>
      <point x="242" y="445" type="line"/>
      <point x="242" y="445"/>
      <point x="236" y="491"/>
      <point x="319" y="496" type="curve" smooth="yes"/>
      <point x="402" y="501"/>
      <point x="409" y="449"/>
      <point x="409" y="449" type="curve"/>
      <point x="430" y="57" type="line"/>
      <point x="430" y="57"/>
      <point x="437" y="0"/>
      <point x="349" y="0" type="curve" smooth="yes"/>
      <point x="261" y="0"/>
      <point x="262" y="54"/>
      <point x="262" y="54" type="curve"/>
      <point x="255" y="188" type="line"/>
      <point x="127" y="173" type="line"/>
      <point x="127" y="173"/>
      <point x="21" y="155"/>
      <point x="24" y="230" type="curve" smooth="yes"/>
      <point x="27" y="305"/>
      <point x="32" y="407"/>
    </contour>
  </outline>
</glyph>
<glyph name="six" format="1">
  <advance width="462"/>
  <unicode hex="0036"/>
  <outline>
    <contour>
      <point x="227" y="332" type="curve"/>
      <point x="227" y="332"/>
      <point x="292.007" y="347.87"/>
      <point x="297" y="256" type="curve" smooth="yes"/>
      <point x="302" y="164"/>
      <point x="287" y="118"/>
      <point x="240" y="114" type="curve" smooth="yes"/>
      <point x="193" y="110"/>
      <point x="171.812" y="163.911"/>
      <point x="168" y="223" type="curve" smooth="yes"/>
      <point x="166" y="254"/>
      <point x="164" y="326"/>
    </contour>
    <contour>
      <point x="145" y="536" type="curve"/>
      <point x="145" y="536"/>
      <point x="18.999" y="403.001"/>
      <point x="19.999" y="256.001" type="curve" smooth="yes"/>
      <point x="20.999" y="109.001"/>
      <point x="87.999" y="0.000976562"/>
      <point x="232.999" y="0.000976562" type="curve" smooth="yes"/>
      <point x="377.999" y="0.000976562"/>
      <point x="441.999" y="109.001"/>
      <point x="439.999" y="233.001" type="curve" smooth="yes"/>
      <point x="437.999" y="357.001"/>
      <point x="350.999" y="428.001"/>
      <point x="228.999" y="398.001" type="curve"/>
      <point x="228.999" y="398.001"/>
      <point x="250.999" y="450.001"/>
      <point x="288.999" y="485.001" type="curve" smooth="yes"/>
      <point x="314.362" y="508.361"/>
      <point x="375.9" y="532.862"/>
      <point x="285" y="573" type="curve" smooth="yes"/>
      <point x="208" y="607"/>
      <point x="164" y="550"/>
    </contour>
  </outline>
</glyph>
<glyph name="equal" format="1">
  <advance width="500"/>
  <unicode hex="003D"/>
  <outline>
    <contour>
      <point x="110" y="288" type="curve" smooth="yes"/>
      <point x="393" y="300" type="line"/>
      <point x="393" y="300"/>
      <point x="472" y="305"/>
      <point x="475" y="263" type="curve" smooth="yes"/>
      <point x="478" y="221"/>
      <point x="420" y="209"/>
      <point x="414" y="209" type="curve" smooth="yes"/>
      <point x="408" y="209"/>
      <point x="109" y="195"/>
      <point x="109" y="195" type="curve"/>
      <point x="109" y="195"/>
      <point x="41" y="189"/>
      <point x="39" y="235" type="curve" smooth="yes"/>
      <point x="37" y="281"/>
      <point x="80" y="288"/>
    </contour>
    <contour>
      <point x="96" y="403" type="curve" smooth="yes"/>
      <point x="379" y="415" type="line"/>
      <point x="379" y="415"/>
      <point x="458" y="420"/>
      <point x="461" y="378" type="curve" smooth="yes"/>
      <point x="464" y="336"/>
      <point x="406" y="324"/>
      <point x="400" y="324" type="curve" smooth="yes"/>
      <point x="394" y="324"/>
      <point x="95" y="310"/>
      <point x="95" y="310" type="curve"/>
      <point x="95" y="310"/>
      <point x="27" y="304"/>
      <point x="25" y="350" type="curve" smooth="yes"/>
      <point x="23" y="396"/>
      <point x="66" y="403"/>
    </contour>
  </outline>
</glyph>
<glyph name="B" format="1">
  <advance width="507"/>
  <unicode hex="0042"/>
  <outline>
    <contour>
      <point x="198" y="253" type="curve"/>
      <point x="205" y="87" type="line"/>
      <point x="205" y="87"/>
      <point x="344" y="74"/>
      <point x="331" y="186" type="curve" smooth="yes"/>
      <point x="318" y="298"/>
      <point x="198" y="253"/>
    </contour>
    <contour>
      <point x="176" y="485" type="curve"/>
      <point x="176" y="485"/>
      <point x="177" y="384"/>
      <point x="183" y="373" type="curve" smooth="yes"/>
      <point x="189" y="362"/>
      <point x="259" y="412"/>
      <point x="250" y="455" type="curve" smooth="yes"/>
      <point x="241" y="498"/>
      <point x="206" y="501"/>
    </contour>
    <contour>
      <point x="43" y="54" type="curve"/>
      <point x="43" y="54"/>
      <point x="20" y="438"/>
      <point x="22" y="461" type="curve" smooth="yes"/>
      <point x="24" y="484"/>
      <point x="24" y="498"/>
      <point x="35" y="503" type="curve" smooth="yes"/>
      <point x="46" y="508"/>
      <point x="21" y="522"/>
      <point x="57" y="541" type="curve" smooth="yes"/>
      <point x="93" y="560"/>
      <point x="233.029" y="636.376"/>
      <point x="366" y="534" type="curve" smooth="yes"/>
      <point x="479" y="447"/>
      <point x="344" y="337"/>
      <point x="344" y="337" type="curve"/>
      <point x="344" y="337"/>
      <point x="481" y="299"/>
      <point x="485" y="178" type="curve" smooth="yes"/>
      <point x="489" y="57"/>
      <point x="358" y="0"/>
      <point x="179" y="0" type="curve" smooth="yes"/>
      <point x="41" y="0"/>
      <point x="43" y="54"/>
    </contour>
  </outline>
</glyph>
<glyph name="F" format="1">
  <advance width="422"/>
  <unicode hex="0046"/>
  <outline>
    <contour>
      <point x="180" y="0" type="curve"/>
      <point x="180" y="0"/>
      <point x="269" y="-12"/>
      <point x="259" y="70" type="curve" smooth="yes"/>
      <point x="249" y="152"/>
      <point x="240" y="217"/>
      <point x="240" y="217" type="curve"/>
      <point x="240" y="217"/>
      <point x="323" y="220"/>
      <point x="316" y="264" type="curve" smooth="yes"/>
      <point x="309" y="308"/>
      <point x="225" y="302"/>
      <point x="225" y="302" type="curve"/>
      <point x="190" y="474" type="line"/>
      <point x="253" y="480" type="line"/>
      <point x="259" y="414" type="line"/>
      <point x="259" y="414"/>
      <point x="258" y="369"/>
      <point x="325" y="375" type="curve" smooth="yes"/>
      <point x="392" y="381"/>
      <point x="405" y="407"/>
      <point x="403" y="444" type="curve" smooth="yes"/>
      <point x="401" y="481"/>
      <point x="391" y="538"/>
      <point x="391" y="538" type="curve"/>
      <point x="391" y="538"/>
      <point x="386" y="595"/>
      <point x="307" y="584" type="curve" smooth="yes"/>
      <point x="228" y="573"/>
      <point x="70" y="544"/>
      <point x="70" y="544" type="curve"/>
      <point x="70" y="544"/>
      <point x="13" y="534"/>
      <point x="23" y="481" type="curve" smooth="yes"/>
      <point x="33" y="428"/>
      <point x="93" y="52"/>
      <point x="93" y="52" type="curve"/>
      <point x="93" y="52"/>
      <point x="88" y="0"/>
    </contour>
  </outline>
</glyph>
<glyph name="H" format="1">
  <advance width="498"/>
  <unicode hex="0048"/>
  <outline>
    <contour>
      <point x="43" y="55" type="curve"/>
      <point x="24" y="527" type="line"/>
      <point x="24" y="527"/>
      <point x="16" y="579"/>
      <point x="102" y="582" type="curve" smooth="yes"/>
      <point x="188" y="585"/>
      <point x="191" y="537"/>
      <point x="191" y="535" type="curve" smooth="yes"/>
      <point x="191" y="533"/>
      <point x="199" y="319"/>
      <point x="199" y="319" type="curve"/>
      <point x="305" y="325" type="line"/>
      <point x="289" y="526" type="line"/>
      <point x="289" y="526"/>
      <point x="275" y="575"/>
      <point x="359" y="584" type="curve" smooth="yes"/>
      <point x="443" y="593"/>
      <point x="444" y="538"/>
      <point x="444" y="538" type="curve"/>
      <point x="475" y="71" type="line"/>
      <point x="475" y="71"/>
      <point x="492" y="0"/>
      <point x="406" y="0" type="curve" smooth="yes"/>
      <point x="320" y="0"/>
      <point x="318" y="59"/>
      <point x="318" y="59" type="curve"/>
      <point x="311" y="251" type="line"/>
      <point x="202" y="245" type="line"/>
      <point x="211" y="49" type="line"/>
      <point x="211" y="49"/>
      <point x="215" y="0"/>
      <point x="128" y="0" type="curve" smooth="yes"/>
      <point x="41" y="0"/>
      <point x="43" y="55"/>
    </contour>
  </outline>
</glyph>
<glyph name="I" format="1">
  <advance width="225"/>
  <unicode hex="0049"/>
  <outline>
    <contour>
      <point x="32" y="51" type="curve"/>
      <point x="32" y="51"/>
      <point x="27" y="0"/>
      <point x="115" y="0" type="curve" smooth="yes"/>
      <point x="203" y="0"/>
      <point x="195" y="68"/>
      <point x="195" y="68" type="curve"/>
      <point x="195" y="68"/>
      <point x="183" y="276"/>
      <point x="198" y="475" type="curve" smooth="yes"/>
      <point x="200.967" y="514.363"/>
      <point x="205" y="534"/>
      <point x="187.54" y="561" type="curve" smooth="yes"/>
      <point x="175" y="580"/>
      <point x="127" y="582"/>
      <point x="127" y="582" type="curve"/>
      <point x="127" y="582"/>
      <point x="44" y="586"/>
      <point x="36" y="522" type="curve" smooth="yes"/>
      <point x="28" y="458"/>
      <point x="22.5791" y="164.045"/>
    </contour>
  </outline>
</glyph>
<glyph name="K" format="1">
  <advance width="510"/>
  <unicode hex="004B"/>
  <outline>
    <contour>
      <point x="79" y="54" type="curve"/>
      <point x="24" y="523" type="line"/>
      <point x="24" y="523"/>
      <point x="5" y="573"/>
      <point x="95" y="582" type="curve" smooth="yes"/>
      <point x="185" y="591"/>
      <point x="185" y="525"/>
      <point x="185" y="525" type="curve"/>
      <point x="201" y="372" type="line"/>
      <point x="294" y="543" type="line"/>
      <point x="294" y="543"/>
      <point x="315" y="587"/>
      <point x="384" y="573" type="curve" smooth="yes"/>
      <point x="453" y="559"/>
      <point x="448" y="527"/>
      <point x="432" y="501" type="curve" smooth="yes"/>
      <point x="416" y="475"/>
      <point x="305" y="306"/>
      <point x="305" y="306" type="curve"/>
      <point x="477" y="94" type="line"/>
      <point x="477" y="94"/>
      <point x="531.29" y="32.1357"/>
      <point x="421" y="28" type="curve" smooth="yes"/>
      <point x="341" y="25"/>
      <point x="312" y="79"/>
      <point x="312" y="79" type="curve"/>
      <point x="228" y="205" type="line"/>
      <point x="243" y="52" type="line"/>
      <point x="243" y="52"/>
      <point x="254" y="0"/>
      <point x="165" y="0" type="curve" smooth="yes"/>
      <point x="76" y="0"/>
      <point x="79" y="54"/>
    </contour>
  </outline>
</glyph>
<glyph name="N" format="1">
  <advance width="538"/>
  <unicode hex="004E"/>
  <outline>
    <contour>
      <point x="162" y="0" type="curve"/>
      <point x="162" y="0"/>
      <point x="244" y="-11"/>
      <point x="235" y="79" type="curve" smooth="yes"/>
      <point x="226" y="169"/>
      <point x="202" y="291"/>
      <point x="202" y="291" type="curve"/>
      <point x="352" y="22" type="line"/>
      <point x="352" y="22"/>
      <point x="364" y="-16"/>
      <point x="442" y="-15" type="curve" smooth="yes"/>
      <point x="520" y="-14"/>
      <point x="514" y="33"/>
      <point x="510" y="58" type="curve" smooth="yes"/>
      <point x="506" y="83"/>
      <point x="461.922" y="353.862"/>
      <point x="465" y="497" type="curve" smooth="yes"/>
      <point x="467" y="590"/>
      <point x="390" y="586"/>
      <point x="390" y="586" type="curve"/>
      <point x="390" y="586"/>
      <point x="308" y="589"/>
      <point x="304" y="528" type="curve" smooth="yes"/>
      <point x="300" y="467"/>
      <point x="300" y="416"/>
      <point x="300" y="416" type="curve"/>
      <point x="323" y="226" type="line"/>
      <point x="286" y="295" type="line"/>
      <point x="192" y="523" type="line"/>
      <point x="192" y="523"/>
      <point x="166" y="574"/>
      <point x="101" y="570" type="curve" smooth="yes"/>
      <point x="36" y="566"/>
      <point x="26" y="537"/>
      <point x="28" y="502" type="curve" smooth="yes"/>
      <point x="30" y="467"/>
      <point x="73" y="57"/>
      <point x="73" y="57" type="curve"/>
      <point x="73" y="57"/>
      <point x="66" y="0"/>
    </contour>
  </outline>
</glyph>
<glyph name="T" format="1">
  <advance width="479"/>
  <unicode hex="0054"/>
  <outline>
    <contour>
      <point x="162" y="475" type="curve"/>
      <point x="162" y="475"/>
      <point x="198.139" y="205.999"/>
      <point x="197" y="91" type="curve" smooth="yes"/>
      <point x="196" y="-10"/>
      <point x="281" y="0"/>
      <point x="281" y="0" type="curve"/>
      <point x="281" y="0"/>
      <point x="364" y="-5"/>
      <point x="364" y="56" type="curve" smooth="yes"/>
      <point x="364" y="117"/>
      <point x="341" y="407"/>
      <point x="327" y="490" type="curve"/>
      <point x="391" y="500" type="line"/>
      <point x="391" y="500"/>
      <point x="472" y="513"/>
      <point x="468" y="555" type="curve" smooth="yes"/>
      <point x="464" y="597"/>
      <point x="372" y="589"/>
      <point x="372" y="589" type="curve"/>
      <point x="92" y="563" type="line"/>
      <point x="92" y="563"/>
      <point x="9" y="557"/>
      <point x="13" y="512" type="curve" smooth="yes"/>
      <point x="17" y="467"/>
      <point x="127" y="470"/>
    </contour>
  </outline>
</glyph>
<glyph name="Y" format="1">
  <advance width="481"/>
  <unicode hex="0059"/>
  <outline>
    <contour>
      <point x="83" y="587" type="curve"/>
      <point x="83" y="587"/>
      <point x="146" y="604"/>
      <point x="181" y="550" type="curve" smooth="yes"/>
      <point x="210.214" y="504.928"/>
      <point x="246" y="410"/>
      <point x="246" y="410" type="curve"/>
      <point x="306" y="556" type="line"/>
      <point x="306" y="556"/>
      <point x="325" y="592"/>
      <point x="387" y="588" type="curve" smooth="yes"/>
      <point x="449" y="584"/>
      <point x="470" y="565"/>
      <point x="454" y="531" type="curve" smooth="yes"/>
      <point x="438" y="497"/>
      <point x="339" y="301"/>
      <point x="339" y="301" type="curve"/>
      <point x="344" y="57" type="line"/>
      <point x="344" y="57"/>
      <point x="359" y="0"/>
      <point x="270" y="0" type="curve" smooth="yes"/>
      <point x="181" y="0"/>
      <point x="175" y="46"/>
      <point x="175" y="60" type="curve" smooth="yes"/>
      <point x="175" y="74"/>
      <point x="172" y="302"/>
      <point x="172" y="302" type="curve"/>
      <point x="39" y="514" type="line"/>
      <point x="39" y="514"/>
      <point x="-11" y="571"/>
    </contour>
  </outline>
</glyph>
<glyph name="b" format="1">
  <advance width="466"/>
  <unicode hex="0062"/>
  <outline>
    <contour>
      <point x="178" y="323" type="curve"/>
      <point x="308" y="332"/>
      <point x="313" y="235"/>
      <point x="314" y="228" type="curve" smooth="yes"/>
      <point x="315" y="221"/>
      <point x="325" y="103"/>
      <point x="264" y="102" type="curve" smooth="yes"/>
      <point x="155.788" y="100.226"/>
      <point x="178" y="323"/>
    </contour>
    <contour>
      <point x="40" y="576" type="curve"/>
      <point x="40" y="576"/>
      <point x="-64" y="0"/>
      <point x="256" y="0" type="curve" smooth="yes"/>
      <point x="438" y="0"/>
      <point x="444" y="202"/>
      <point x="444" y="202" type="curve"/>
      <point x="444" y="202"/>
      <point x="451.48" y="402"/>
      <point x="186" y="402" type="curve"/>
      <point x="186" y="402"/>
      <point x="182" y="492"/>
      <point x="196" y="546" type="curve" smooth="yes"/>
      <point x="206.289" y="585.688"/>
      <point x="195" y="630"/>
      <point x="134" y="632" type="curve" smooth="yes"/>
      <point x="45.9053" y="634.889"/>
      <point x="40" y="576"/>
    </contour>
  </outline>
</glyph>
<glyph name="f" format="1">
  <advance width="357"/>
  <unicode hex="0066"/>
  <outline>
    <contour>
      <point x="178" y="0" type="curve"/>
      <point x="178" y="0"/>
      <point x="107" y="-8"/>
      <point x="82" y="68" type="curve" smooth="yes"/>
      <point x="52.3564" y="158.118"/>
      <point x="-30.1553" y="395.721"/>
      <point x="84.001" y="527" type="curve" smooth="yes"/>
      <point x="164.001" y="619"/>
      <point x="296.001" y="580"/>
      <point x="296.001" y="580" type="curve"/>
      <point x="296.001" y="580"/>
      <point x="369.001" y="552"/>
      <point x="320.001" y="526" type="curve" smooth="yes"/>
      <point x="271.001" y="500"/>
      <point x="220.001" y="504"/>
      <point x="200.001" y="457" type="curve" smooth="yes"/>
      <point x="175.357" y="399.089"/>
      <point x="174.707" y="365.521"/>
      <point x="182" y="278" type="curve"/>
      <point x="182" y="278"/>
      <point x="295" y="313"/>
      <point x="311" y="259" type="curve" smooth="yes"/>
      <point x="326.145" y="207.886"/>
      <point x="199" y="198"/>
      <point x="199" y="198" type="curve"/>
      <point x="244" y="57" type="line"/>
      <point x="244" y="57"/>
      <point x="269" y="0"/>
    </contour>
  </outline>
</glyph>
<glyph name="g" format="1">
  <advance width="506"/>
  <unicode hex="0067"/>
  <outline>
    <contour>
      <point x="296" y="341" type="curve"/>
      <point x="184" y="330"/>
      <point x="128" y="84"/>
      <point x="242" y="85" type="curve" smooth="yes"/>
      <point x="356" y="86"/>
      <point x="312.574" y="305.966"/>
      <point x="311" y="328" type="curve" smooth="yes"/>
      <point x="310" y="342"/>
      <point x="296" y="341"/>
    </contour>
    <contour>
      <point x="321" y="25" type="curve"/>
      <point x="321" y="25"/>
      <point x="273" y="0"/>
      <point x="214" y="0" type="curve" smooth="yes"/>
      <point x="155" y="0"/>
      <point x="19" y="24"/>
      <point x="23" y="183" type="curve" smooth="yes"/>
      <point x="27" y="342"/>
      <point x="176" y="409"/>
      <point x="278" y="414" type="curve" smooth="yes"/>
      <point x="380" y="419"/>
      <point x="434" y="366"/>
      <point x="435" y="344" type="curve" smooth="yes"/>
      <point x="436" y="322"/>
      <point x="479" y="178"/>
      <point x="481" y="40" type="curve" smooth="yes"/>
      <point x="483" y="-98"/>
      <point x="479" y="-213"/>
      <point x="318" y="-216" type="curve" smooth="yes"/>
      <point x="157" y="-219"/>
      <point x="70" y="-143"/>
      <point x="58" y="-115" type="curve" smooth="yes"/>
      <point x="46" y="-87"/>
      <point x="47" y="-55"/>
      <point x="117" y="-55" type="curve" smooth="yes"/>
      <point x="187" y="-55"/>
      <point x="197" y="-80"/>
      <point x="209" y="-89" type="curve" smooth="yes"/>
      <point x="221" y="-98"/>
      <point x="247" y="-129"/>
      <point x="277" y="-129" type="curve" smooth="yes"/>
      <point x="307" y="-129"/>
      <point x="326.201" y="-58.2227"/>
    </contour>
  </outline>
</glyph>
<glyph name="i" format="1">
  <advance width="268"/>
  <unicode hex="0069"/>
  <outline>
    <contour>
      <point x="112" y="421" type="curve"/>
      <point x="112" y="421"/>
      <point x="182.07" y="414.821"/>
      <point x="187" y="484" type="curve" smooth="yes"/>
      <point x="192.196" y="556.923"/>
      <point x="122" y="567"/>
      <point x="105" y="565" type="curve" smooth="yes"/>
      <point x="88" y="563"/>
      <point x="19" y="572"/>
      <point x="22" y="493" type="curve" smooth="yes"/>
      <point x="25" y="414"/>
      <point x="112" y="421"/>
    </contour>
    <contour>
      <point x="77" y="62" type="curve"/>
      <point x="53" y="290" type="line"/>
      <point x="53" y="290"/>
      <point x="45" y="310"/>
      <point x="42" y="315" type="curve" smooth="yes"/>
      <point x="39" y="320"/>
      <point x="24" y="354"/>
      <point x="77" y="364" type="curve" smooth="yes"/>
      <point x="130" y="374"/>
      <point x="202" y="371"/>
      <point x="212" y="296" type="curve" smooth="yes"/>
      <point x="222" y="221"/>
      <point x="236" y="69"/>
      <point x="236" y="69" type="curve"/>
      <point x="236" y="69"/>
      <point x="255" y="0"/>
      <point x="165" y="0" type="curve" smooth="yes"/>
      <point x="75" y="0"/>
      <point x="77" y="62"/>
    </contour>
  </outline>
</glyph>
<glyph name="m" format="1">
  <advance width="769"/>
  <unicode hex="006D"/>
  <outline>
    <contour>
      <point x="133" y="0" type="curve" smooth="yes"/>
      <point x="132" y="0"/>
      <point x="52" y="-12"/>
      <point x="45" y="58" type="curve" smooth="yes"/>
      <point x="38" y="128"/>
      <point x="25" y="343"/>
      <point x="25" y="343" type="curve"/>
      <point x="25" y="343"/>
      <point x="12" y="403"/>
      <point x="91" y="407" type="curve" smooth="yes"/>
      <point x="170" y="411"/>
      <point x="182" y="379"/>
      <point x="182" y="379" type="curve"/>
      <point x="182" y="379"/>
      <point x="233" y="410"/>
      <point x="300" y="410" type="curve" smooth="yes"/>
      <point x="376" y="410"/>
      <point x="411" y="378"/>
      <point x="411" y="378" type="curve"/>
      <point x="450" y="402"/>
      <point x="488.521" y="402"/>
      <point x="540" y="402" type="curve"/>
      <point x="540" y="402"/>
      <point x="740" y="398"/>
      <point x="744" y="191" type="curve" smooth="yes"/>
      <point x="748" y="-16"/>
      <point x="712" y="0"/>
      <point x="661" y="0" type="curve" smooth="yes"/>
      <point x="610" y="0"/>
      <point x="568" y="22"/>
      <point x="576" y="67" type="curve" smooth="yes"/>
      <point x="584" y="112"/>
      <point x="587.993" y="312.235"/>
      <point x="512" y="310" type="curve" smooth="yes"/>
      <point x="478" y="309"/>
      <point x="468" y="257"/>
      <point x="468" y="257" type="curve"/>
      <point x="481" y="67" type="line"/>
      <point x="481" y="67"/>
      <point x="497" y="0"/>
      <point x="402" y="0" type="curve" smooth="yes"/>
      <point x="307" y="0"/>
      <point x="313" y="59"/>
      <point x="313" y="61" type="curve" smooth="yes"/>
      <point x="313" y="63"/>
      <point x="336.238" y="330.848"/>
      <point x="242" y="317" type="curve" smooth="yes"/>
      <point x="196.597" y="310.328"/>
      <point x="194" y="271"/>
      <point x="194" y="271" type="curve"/>
      <point x="210" y="60" type="line"/>
      <point x="210" y="60"/>
      <point x="224" y="0"/>
    </contour>
  </outline>
</glyph>
<glyph name="v" format="1">
  <advance width="472"/>
  <unicode hex="0076"/>
  <outline>
    <contour>
      <point x="119" y="66" type="curve"/>
      <point x="119" y="66"/>
      <point x="140" y="0"/>
      <point x="215" y="0" type="curve" smooth="yes"/>
      <point x="282" y="0"/>
      <point x="302" y="51"/>
      <point x="302" y="51" type="curve"/>
      <point x="443" y="351" type="line"/>
      <point x="443" y="351"/>
      <point x="461" y="403"/>
      <point x="391" y="406" type="curve" smooth="yes"/>
      <point x="321" y="409"/>
      <point x="302" y="397"/>
      <point x="286" y="355" type="curve" smooth="yes"/>
      <point x="270" y="313"/>
      <point x="238" y="222"/>
      <point x="238" y="222" type="curve"/>
      <point x="222" y="141" type="line"/>
      <point x="215" y="199" type="line"/>
      <point x="173" y="371" type="line"/>
      <point x="173" y="371"/>
      <point x="165" y="409"/>
      <point x="99" y="409" type="curve" smooth="yes"/>
      <point x="33" y="409"/>
      <point x="13" y="383"/>
      <point x="24" y="350" type="curve" smooth="yes"/>
      <point x="35" y="317"/>
      <point x="82" y="177"/>
    </contour>
  </outline>
</glyph>
<glyph name="braceright" format="1">
  <advance width="316"/>
  <unicode hex="007D"/>
  <outline>
    <contour>
      <point x="52" y="708" type="curve"/>
      <point x="52" y="708"/>
      <point x="205" y="697"/>
      <point x="208" y="569" type="curve" smooth="yes"/>
      <point x="211" y="441"/>
      <point x="230" y="350"/>
      <point x="263" y="337" type="curve" smooth="yes"/>
      <point x="277.711" y="331.205"/>
      <point x="291" y="327"/>
      <point x="292" y="310" type="curve" smooth="yes"/>
      <point x="293" y="293"/>
      <point x="276.673" y="285.918"/>
      <point x="261" y="282" type="curve" smooth="yes"/>
      <point x="237" y="276"/>
      <point x="211" y="222"/>
      <point x="210" y="97" type="curve" smooth="yes"/>
      <point x="209" y="-28"/>
      <point x="156" y="-90"/>
      <point x="46" y="-93" type="curve" smooth="yes"/>
      <point x="-64" y="-96"/>
      <point x="-48" y="-54"/>
      <point x="-48" y="-54" type="curve"/>
      <point x="-48" y="-54"/>
      <point x="-37" y="-31"/>
      <point x="6" y="-18" type="curve" smooth="yes"/>
      <point x="49" y="-5"/>
      <point x="47" y="7"/>
      <point x="50" y="63" type="curve" smooth="yes"/>
      <point x="53" y="119"/>
      <point x="80.2178" y="280.015"/>
      <point x="115" y="309" type="curve"/>
      <point x="115" y="309"/>
      <point x="55.5166" y="344.011"/>
      <point x="51" y="545" type="curve" smooth="yes"/>
      <point x="49" y="634"/>
      <point x="-9" y="637"/>
      <point x="-9" y="637" type="curve"/>
      <point x="-9" y="637"/>
      <point x="-53" y="648"/>
      <point x="-48" y="673" type="curve" smooth="yes"/>
      <point x="-43" y="698"/>
      <point x="12" y="709"/>
    </contour>
  </outline>
</glyph>
<glyph name="uni0096" format="1">
  <advance width="410"/>
  <unicode hex="0096"/>
  <outline>
    <contour>
      <point x="90" y="578" type="curve"/>
      <point x="90" y="578"/>
      <point x="156" y="572"/>
      <point x="176" y="604" type="curve" smooth="yes"/>
      <point x="196" y="636"/>
      <point x="206" y="656"/>
      <point x="206" y="656" type="curve"/>
      <point x="247" y="620" type="line"/>
      <point x="247" y="620"/>
      <point x="266" y="599"/>
      <point x="326" y="604" type="curve" smooth="yes"/>
      <point x="386" y="609"/>
      <point x="402" y="642"/>
      <point x="383" y="658" type="curve" smooth="yes"/>
      <point x="364" y="674"/>
      <point x="245" y="774"/>
      <point x="245" y="774" type="curve"/>
      <point x="245" y="774"/>
      <point x="224" y="792"/>
      <point x="182" y="789" type="curve" smooth="yes"/>
      <point x="140" y="786"/>
      <point x="120" y="778"/>
      <point x="110" y="762" type="curve" smooth="yes"/>
      <point x="100" y="746"/>
      <point x="26" y="626"/>
      <point x="25" y="626" type="curve" smooth="yes"/>
      <point x="24" y="626"/>
      <point x="-3.05957" y="577"/>
    </contour>
  </outline>
</glyph>
<glyph name="exclamdown" format="1">
  <advance width="215"/>
  <unicode hex="00A1"/>
  <outline>
    <contour>
      <point x="21.001" y="-180.002" type="line"/>
      <point x="21" y="-173.002" type="line"/>
      <point x="25" y="8.99805" type="line" smooth="yes"/>
      <point x="23.0869" y="31.9473"/>
      <point x="41.0732" y="42.4697"/>
      <point x="55.999" y="50.999" type="curve" smooth="yes"/>
      <point x="98.54" y="68.5703"/>
      <point x="185.162" y="73.4111"/>
      <point x="190.002" y="24.998" type="curve" smooth="yes"/>
      <point x="192.002" y="3.99805" type="line" smooth="yes"/>
      <point x="192.002" y="-7.07324"/>
      <point x="193.002" y="-19.626"/>
      <point x="193.002" y="-31.002" type="curve" smooth="yes"/>
      <point x="186.002" y="-160.002" type="line"/>
      <point x="184.002" y="-202.002" type="line" smooth="yes"/>
      <point x="182.497" y="-233.597"/>
      <point x="191.097" y="-258.586"/>
      <point x="171.002" y="-276.002" type="curve" smooth="yes"/>
      <point x="167.002" y="-280.669"/>
      <point x="162.669" y="-284.002"/>
      <point x="158.002" y="-286.002" type="curve" smooth="yes"/>
      <point x="123.335" y="-303.335"/>
      <point x="87.668" y="-307.002"/>
      <point x="51.001" y="-297.002" type="curve" smooth="yes"/>
      <point x="35.5781" y="-293.915"/>
      <point x="21.0879" y="-282.663"/>
      <point x="19" y="-267.002" type="curve" smooth="yes"/>
      <point x="19" y="-260.002" type="line"/>
      <point x="20" y="-252.002" type="line" smooth="yes"/>
      <point x="18.667" y="-240.002"/>
      <point x="18.334" y="-228.002"/>
      <point x="19.001" y="-216.002" type="curve" smooth="yes"/>
    </contour>
    <contour>
      <point x="109.002" y="253" type="curve" smooth="yes"/>
      <point x="114.798" y="253"/>
      <point x="121.501" y="254.084"/>
      <point x="128.002" y="253" type="curve" smooth="yes"/>
      <point x="154.4" y="253"/>
      <point x="180.829" y="245.07"/>
      <point x="189.002" y="226" type="curve" smooth="yes"/>
      <point x="192.806" y="214.589"/>
      <point x="194.795" y="201.966"/>
      <point x="192.003" y="188" type="curve" smooth="yes"/>
      <point x="190.001" y="176.004" type="line" smooth="yes"/>
      <point x="186.002" y="152.02"/>
      <point x="179.534" y="139.271"/>
      <point x="161" y="130.003" type="curve" smooth="yes"/>
      <point x="126.254" y="112.629"/>
      <point x="80.5977" y="106.698"/>
      <point x="47.001" y="123.501" type="curve" smooth="yes"/>
      <point x="43.668" y="125.168"/>
      <point x="40.335" y="126.668"/>
      <point x="37.002" y="128.001" type="curve" smooth="yes"/>
      <point x="27.6689" y="134.001"/>
      <point x="23.3359" y="142.334"/>
      <point x="24.0029" y="153.001" type="curve" smooth="yes"/>
      <point x="24.0029" y="158.001" type="line"/>
      <point x="27.0029" y="200.001" type="line"/>
      <point x="23.626" y="220.252"/>
      <point x="41.8926" y="230.926"/>
      <point x="54.002" y="239" type="curve" smooth="yes"/>
      <point x="69.7227" y="246.86"/>
      <point x="87.1104" y="251.631"/>
    </contour>
  </outline>
</glyph>
<glyph name="yen" format="1">
  <advance width="531"/>
  <unicode hex="00A5"/>
  <outline>
    <contour>
      <point x="283" y="443" type="curve"/>
      <point x="334" y="593" type="line"/>
      <point x="334" y="593"/>
      <point x="343" y="639"/>
      <point x="417" y="640" type="curve" smooth="yes"/>
      <point x="491" y="641"/>
      <point x="510" y="602"/>
      <point x="498" y="573" type="curve" smooth="yes"/>
      <point x="486" y="544"/>
      <point x="391" y="308"/>
      <point x="391" y="308" type="curve"/>
      <point x="391" y="308"/>
      <point x="491" y="314"/>
      <point x="495" y="262" type="curve" smooth="yes"/>
      <point x="499" y="210"/>
      <point x="396" y="212"/>
      <point x="396" y="212" type="curve"/>
      <point x="394" y="191" type="line"/>
      <point x="394" y="191"/>
      <point x="501" y="209"/>
      <point x="507" y="162" type="curve" smooth="yes"/>
      <point x="513" y="115"/>
      <point x="403" y="100"/>
      <point x="403" y="100" type="curve"/>
      <point x="403" y="100"/>
      <point x="423" y="0"/>
      <point x="328" y="0" type="curve" smooth="yes"/>
      <point x="233" y="0"/>
      <point x="234" y="89"/>
      <point x="234" y="89" type="curve"/>
      <point x="234" y="89"/>
      <point x="108" y="78"/>
      <point x="108" y="129" type="curve" smooth="yes"/>
      <point x="108" y="180"/>
      <point x="228" y="181"/>
      <point x="228" y="181" type="curve"/>
      <point x="227" y="201" type="line"/>
      <point x="227" y="201"/>
      <point x="98" y="188"/>
      <point x="96" y="240" type="curve" smooth="yes"/>
      <point x="94" y="292"/>
      <point x="222" y="295"/>
      <point x="222" y="297" type="curve" smooth="yes"/>
      <point x="222" y="299"/>
      <point x="35" y="564"/>
      <point x="35" y="564" type="curve"/>
      <point x="35" y="564"/>
      <point x="-15" y="626"/>
      <point x="88" y="635" type="curve" smooth="yes"/>
      <point x="191" y="644"/>
      <point x="194" y="595"/>
    </contour>
  </outline>
</glyph>
<glyph name="brokenbar" format="1">
  <advance width="115"/>
  <unicode hex="00A6"/>
  <outline>
    <contour>
      <point x="23.502" y="17" type="curve"/>
      <point x="23.499" y="14"/>
      <point x="25.499" y="236"/>
      <point x="25.499" y="236" type="curve"/>
      <point x="25.499" y="236"/>
      <point x="23.499" y="255"/>
      <point x="58.502" y="255" type="curve" smooth="yes"/>
      <point x="85.499" y="255"/>
      <point x="93.501" y="250.171"/>
      <point x="93.501" y="238" type="curve" smooth="yes"/>
      <point x="93.501" y="226" type="line"/>
      <point x="92.501" y="123" type="line"/>
      <point x="92.501" y="17" type="line" smooth="yes"/>
      <point x="92.501" y="5.0293"/>
      <point x="71.9561" y="0"/>
      <point x="58" y="0" type="curve" smooth="yes"/>
      <point x="44.0117" y="0"/>
      <point x="23.502" y="5.01953"/>
    </contour>
    <contour>
      <point x="22.0029" y="338" type="curve"/>
      <point x="22" y="335"/>
      <point x="24" y="557"/>
      <point x="24" y="557" type="curve"/>
      <point x="24" y="557"/>
      <point x="22" y="576"/>
      <point x="57.0029" y="576" type="curve" smooth="yes"/>
      <point x="84" y="576"/>
      <point x="92.002" y="571.171"/>
      <point x="92.002" y="559" type="curve" smooth="yes"/>
      <point x="92.002" y="547" type="line"/>
      <point x="91.002" y="444" type="line"/>
      <point x="91.002" y="338" type="line" smooth="yes"/>
      <point x="91.002" y="326.029"/>
      <point x="70.457" y="321"/>
      <point x="56.501" y="321" type="curve" smooth="yes"/>
      <point x="42.5127" y="321"/>
      <point x="22.0029" y="326.02"/>
    </contour>
  </outline>
</glyph>
<glyph name="section" format="1">
  <advance width="505"/>
  <unicode hex="00A7"/>
  <outline>
    <contour>
      <point x="385" y="413" type="curve" smooth="yes"/>
      <point x="439" y="416"/>
      <point x="474" y="434"/>
      <point x="471" y="466" type="curve" smooth="yes"/>
      <point x="465.65" y="523.064"/>
      <point x="394" y="589"/>
      <point x="274" y="585" type="curve" smooth="yes"/>
      <point x="154" y="581"/>
      <point x="41.4785" y="534.971"/>
      <point x="39" y="447" type="curve" smooth="yes"/>
      <point x="37" y="376"/>
      <point x="78" y="355"/>
      <point x="78" y="355" type="curve"/>
      <point x="78" y="355"/>
      <point x="26" y="321"/>
      <point x="26" y="269" type="curve" smooth="yes"/>
      <point x="26" y="217"/>
      <point x="79.1367" y="162.041"/>
      <point x="227" y="155" type="curve" smooth="yes"/>
      <point x="311" y="151"/>
      <point x="301" y="123"/>
      <point x="301" y="123" type="curve"/>
      <point x="301" y="123"/>
      <point x="300" y="88"/>
      <point x="237" y="94" type="curve" smooth="yes"/>
      <point x="174" y="100"/>
      <point x="178" y="141"/>
      <point x="125" y="143" type="curve" smooth="yes"/>
      <point x="72" y="145"/>
      <point x="24" y="132"/>
      <point x="25" y="101" type="curve" smooth="yes"/>
      <point x="26" y="70"/>
      <point x="58" y="0"/>
      <point x="239" y="0" type="curve" smooth="yes"/>
      <point x="420" y="0"/>
      <point x="462.011" y="72.124"/>
      <point x="466" y="120" type="curve" smooth="yes"/>
      <point x="470" y="168"/>
      <point x="448.179" y="178.812"/>
      <point x="433" y="207" type="curve"/>
      <point x="433" y="207"/>
      <point x="484" y="217"/>
      <point x="484" y="299" type="curve" smooth="yes"/>
      <point x="484" y="385.023"/>
      <point x="339" y="395"/>
      <point x="309" y="397" type="curve" smooth="yes"/>
      <point x="279.05" y="398.997"/>
      <point x="211" y="394"/>
      <point x="213" y="432" type="curve" smooth="yes"/>
      <point x="215" y="470"/>
      <point x="265" y="468"/>
      <point x="265" y="468" type="curve"/>
      <point x="265" y="468"/>
      <point x="303" y="469"/>
      <point x="306" y="450" type="curve" smooth="yes"/>
      <point x="309" y="431"/>
      <point x="331" y="410"/>
    </contour>
    <contour>
      <point x="196.002" y="283.999" type="curve" smooth="yes"/>
      <point x="197.002" y="299.999"/>
      <point x="194.002" y="322.999"/>
      <point x="263.002" y="312.999" type="curve" smooth="yes"/>
      <point x="332.002" y="302.999"/>
      <point x="324.002" y="281.999"/>
      <point x="322.002" y="273.999" type="curve" smooth="yes"/>
      <point x="320.002" y="265.999"/>
      <point x="318.002" y="242.999"/>
      <point x="260.002" y="250.999" type="curve" smooth="yes"/>
      <point x="202.002" y="258.999"/>
      <point x="195.002" y="267.999"/>
    </contour>
  </outline>
</glyph>
<glyph name="dieresis" format="1">
  <advance width="521"/>
  <unicode hex="00A8"/>
  <outline>
    <contour>
      <point x="218" y="688" type="curve" smooth="yes"/>
      <point x="218" y="711"/>
      <point x="255" y="730"/>
      <point x="300" y="730" type="curve" smooth="yes"/>
      <point x="345" y="730"/>
      <point x="382" y="711"/>
      <point x="382" y="688" type="curve" smooth="yes"/>
      <point x="382" y="665"/>
      <point x="345" y="646"/>
      <point x="300" y="646" type="curve" smooth="yes"/>
      <point x="255" y="646"/>
      <point x="218" y="665"/>
    </contour>
    <contour>
      <point x="28" y="678" type="curve" smooth="yes"/>
      <point x="28" y="701"/>
      <point x="65" y="720"/>
      <point x="110" y="720" type="curve" smooth="yes"/>
      <point x="155" y="720"/>
      <point x="192" y="701"/>
      <point x="192" y="678" type="curve" smooth="yes"/>
      <point x="192" y="655"/>
      <point x="155" y="636"/>
      <point x="110" y="636" type="curve" smooth="yes"/>
      <point x="65" y="636"/>
      <point x="28" y="655"/>
    </contour>
  </outline>
</glyph>
<glyph name="guillemotleft" format="1">
  <advance width="479"/>
  <unicode hex="00AB"/>
  <outline>
    <contour>
      <point x="312" y="17" type="curve" smooth="yes"/>
      <point x="321.216" y="-1.4375"/>
      <point x="269.004" y="-3.56348"/>
      <point x="249.996" y="0" type="curve" smooth="yes"/>
      <point x="241.329" y="2"/>
      <point x="234.996" y="5"/>
      <point x="230.996" y="9" type="curve" smooth="yes"/>
      <point x="166.944" y="62.3711"/>
      <point x="132.81" y="100.282"/>
      <point x="80.9971" y="146" type="curve" smooth="yes"/>
      <point x="57.3672" y="166.851"/>
      <point x="38.3086" y="185.601"/>
      <point x="14.998" y="206" type="curve" smooth="yes"/>
      <point x="8.78711" y="214.282"/>
      <point x="25.6094" y="222.612"/>
      <point x="29.998" y="227.001" type="curve" smooth="yes"/>
      <point x="105.499" y="292.654"/>
      <point x="159.249" y="337.424"/>
      <point x="231" y="402.002" type="curve" smooth="yes"/>
      <point x="245.507" y="414.436"/>
      <point x="301.846" y="418.264"/>
      <point x="312.5" y="400.503" type="curve" smooth="yes"/>
      <point x="313.5" y="398.836"/>
      <point x="313.333" y="396.669"/>
      <point x="312" y="394.002" type="curve" smooth="yes"/>
      <point x="308.921" y="391.949"/>
      <point x="299.485" y="383.485"/>
      <point x="297.001" y="381.001" type="curve" smooth="yes"/>
      <point x="283.95" y="369.038"/>
      <point x="236.566" y="328.307"/>
      <point x="223.001" y="317.002" type="curve" smooth="yes"/>
      <point x="159.743" y="262.041"/>
      <point x="147.041" y="249.614"/>
      <point x="100" y="210" type="curve"/>
      <point x="167.849" y="147.809"/>
      <point x="219.682" y="100.079"/>
      <point x="294.5" y="33" type="curve" smooth="yes"/>
      <point x="304.167" y="24.333"/>
      <point x="310" y="19"/>
    </contour>
    <contour>
      <point x="458.996" y="17" type="curve" smooth="yes"/>
      <point x="468.101" y="-1.21582"/>
      <point x="415.936" y="-3.78516"/>
      <point x="396.994" y="0.00292969" type="curve" smooth="yes"/>
      <point x="378.232" y="4.33203"/>
      <point x="371.96" y="16.2803"/>
      <point x="358.995" y="26.0029" type="curve" smooth="yes"/>
      <point x="302.529" y="78.123"/>
      <point x="244.423" y="133.034"/>
      <point x="188.494" y="181.502" type="curve" smooth="yes"/>
      <point x="179.357" y="189.42"/>
      <point x="170.835" y="198.634"/>
      <point x="161.995" y="206" type="curve" smooth="yes"/>
      <point x="156.146" y="213.799"/>
      <point x="171.866" y="223.583"/>
      <point x="176.994" y="227.001" type="curve" smooth="yes"/>
      <point x="204.341" y="250.139"/>
      <point x="297.975" y="331.517"/>
      <point x="336.996" y="366" type="curve" smooth="yes"/>
      <point x="362.329" y="388"/>
      <point x="375.996" y="400"/>
      <point x="377.996" y="402" type="curve" smooth="yes"/>
      <point x="393.92" y="415.648"/>
      <point x="436.017" y="414.49"/>
      <point x="454.997" y="405.001" type="curve" smooth="yes"/>
      <point x="458.538" y="402.641"/>
      <point x="461.857" y="399.723"/>
      <point x="458.997" y="394" type="curve" smooth="yes"/>
      <point x="443.997" y="381" type="line" smooth="yes"/>
      <point x="387.358" y="331.75"/>
      <point x="321.489" y="275.98"/>
      <point x="246.998" y="210" type="curve"/>
      <point x="287.37" y="169.628"/>
      <point x="334.977" y="129.93"/>
      <point x="377.498" y="90.5" type="curve" smooth="yes"/>
      <point x="408.352" y="61.8896"/>
      <point x="413.455" y="56.751"/>
      <point x="439.997" y="34" type="curve" smooth="yes"/>
      <point x="449.33" y="26"/>
      <point x="455.663" y="20.333"/>
    </contour>
  </outline>
</glyph>
<glyph name="logicalnot" format="1">
  <advance width="594"/>
  <unicode hex="00AC"/>
  <outline>
    <contour>
      <point x="487.999" y="325" type="line" smooth="yes"/>
      <point x="515.28" y="325"/>
      <point x="571.999" y="317.993"/>
      <point x="571.999" y="296.998" type="curve" smooth="yes"/>
      <point x="571.999" y="202.998" type="line" smooth="yes"/>
      <point x="571.999" y="180.755"/>
      <point x="515.872" y="173.998"/>
      <point x="487.499" y="173.998" type="curve" smooth="yes"/>
      <point x="458.904" y="173.998"/>
      <point x="403.999" y="180.675"/>
      <point x="403.999" y="202.998" type="curve" smooth="yes"/>
      <point x="403.999" y="267.998" type="line"/>
      <point x="105.999" y="267.998" type="line" smooth="yes"/>
      <point x="77.5244" y="267.998"/>
      <point x="22" y="274.641"/>
      <point x="22" y="296.499" type="curve" smooth="yes"/>
      <point x="22" y="318.334"/>
      <point x="77.626" y="325"/>
      <point x="105.999" y="325" type="curve" smooth="yes"/>
    </contour>
  </outline>
</glyph>
<glyph name="uni00AD" format="1">
  <advance width="320"/>
  <unicode hex="00AD"/>
  <outline>
    <contour>
      <point x="214.001" y="229" type="line" smooth="yes"/>
      <point x="242.912" y="229"/>
      <point x="298" y="222.438"/>
      <point x="298" y="200" type="curve" smooth="yes"/>
      <point x="298" y="177.585"/>
      <point x="242.813" y="171"/>
      <point x="214.001" y="171" type="curve" smooth="yes"/>
      <point x="106.001" y="171" type="line" smooth="yes"/>
      <point x="77.0898" y="171"/>
      <point x="22.002" y="177.562"/>
      <point x="22.002" y="200" type="curve" smooth="yes"/>
      <point x="22.002" y="222.415"/>
      <point x="77.1885" y="229"/>
      <point x="106.001" y="229" type="curve" smooth="yes"/>
    </contour>
  </outline>
</glyph>
<glyph name="registered" format="1">
  <advance width="504"/>
  <unicode hex="00AE"/>
  <outline>
    <contour>
      <point x="220.497" y="298.115" type="curve"/>
      <point x="230.518" y="214.197" type="line"/>
      <point x="230.518" y="214.197"/>
      <point x="277.781" y="204.572"/>
      <point x="273.938" y="263.88" type="curve" smooth="yes"/>
      <point x="271.015" y="308.97"/>
      <point x="241.372" y="302.29"/>
    </contour>
    <contour>
      <point x="180.835" y="115.667" type="curve"/>
      <point x="161.63" y="297.697" type="line"/>
      <point x="161.63" y="297.697"/>
      <point x="150.775" y="313.562"/>
      <point x="180" y="324" type="curve" smooth="yes"/>
      <point x="209.225" y="334.438"/>
      <point x="256.82" y="344.457"/>
      <point x="300.657" y="321.495" type="curve" smooth="yes"/>
      <point x="344.495" y="298.532"/>
      <point x="322.785" y="218.79"/>
      <point x="322.785" y="218.79" type="curve"/>
      <point x="322.785" y="218.79"/>
      <point x="316.105" y="194.992"/>
      <point x="285.21" y="186.225" type="curve"/>
      <point x="344.495" y="122.348" type="line"/>
      <point x="344.495" y="122.348"/>
      <point x="367.875" y="101.89"/>
      <point x="337.397" y="93.1221" type="curve" smooth="yes"/>
      <point x="305.792" y="84.0303"/>
      <point x="290.638" y="107.317"/>
      <point x="290.638" y="107.317" type="curve"/>
      <point x="235.527" y="175.37" type="line"/>
      <point x="249.305" y="116.502" type="line"/>
      <point x="249.305" y="116.502"/>
      <point x="258.907" y="93.1221"/>
      <point x="219.662" y="93.1221" type="curve" smooth="yes"/>
      <point x="180.418" y="93.1221"/>
      <point x="180.835" y="115.667"/>
    </contour>
    <contour>
      <point x="88.1299" y="214.702" type="curve" smooth="yes"/>
      <point x="88.1299" y="115.287"/>
      <point x="160.15" y="34.4072"/>
      <point x="248.79" y="34.4072" type="curve" smooth="yes"/>
      <point x="337.43" y="34.4072"/>
      <point x="409.45" y="115.287"/>
      <point x="409.45" y="214.702" type="curve" smooth="yes"/>
      <point x="409.45" y="314.117"/>
      <point x="337.43" y="394.997"/>
      <point x="248.79" y="394.997" type="curve" smooth="yes"/>
      <point x="160.15" y="394.997"/>
      <point x="88.1299" y="314.117"/>
    </contour>
    <contour>
      <point x="17" y="214" type="curve" smooth="yes"/>
      <point x="17" y="332"/>
      <point x="121" y="428"/>
      <point x="249" y="428" type="curve" smooth="yes"/>
      <point x="377" y="428"/>
      <point x="481" y="332"/>
      <point x="481" y="214" type="curve" smooth="yes"/>
      <point x="481" y="96"/>
      <point x="377" y="0"/>
      <point x="249" y="0" type="curve" smooth="yes"/>
      <point x="121" y="0"/>
      <point x="17" y="96"/>
    </contour>
  </outline>
</glyph>
<glyph name="macron" format="1">
  <advance width="374"/>
  <unicode hex="00AF"/>
  <outline>
    <contour>
      <point x="276.999" y="730" type="line" smooth="yes"/>
      <point x="303.553" y="730"/>
      <point x="352" y="722.704"/>
      <point x="352" y="701.499" type="curve" smooth="yes"/>
      <point x="352" y="680.317"/>
      <point x="303.474" y="672.998"/>
      <point x="276.999" y="672.998" type="curve" smooth="yes"/>
      <point x="95.999" y="672.998" type="line" smooth="yes"/>
      <point x="69.3223" y="672.998"/>
      <point x="21.999" y="680.236"/>
      <point x="21.999" y="701.499" type="curve" smooth="yes"/>
      <point x="21.999" y="722.428"/>
      <point x="70.1641" y="730"/>
      <point x="95.999" y="730" type="curve" smooth="yes"/>
    </contour>
  </outline>
</glyph>
<glyph name="plusminus" format="1">
  <advance width="564"/>
  <unicode hex="00B1"/>
  <outline>
    <contour>
      <point x="422.973" y="87.9883" type="line" smooth="yes"/>
      <point x="463.469" y="87.9883"/>
      <point x="537.356" y="77.3701"/>
      <point x="537.356" y="46.5098" type="curve" smooth="yes"/>
      <point x="537.356" y="15.6846"/>
      <point x="463.349" y="5.03125"/>
      <point x="422.973" y="5.03125" type="curve" smooth="yes"/>
      <point x="146.93" y="5.03125" type="line" smooth="yes"/>
      <point x="106.245" y="5.03125"/>
      <point x="34.0723" y="15.5645"/>
      <point x="34.0723" y="46.5098" type="curve" smooth="yes"/>
      <point x="34.0723" y="76.9678"/>
      <point x="107.529" y="87.9883"/>
      <point x="146.93" y="87.9883" type="curve" smooth="yes"/>
    </contour>
    <contour>
      <point x="192" y="420" type="curve"/>
      <point x="168" y="536" type="line"/>
      <point x="168" y="536"/>
      <point x="151" y="586"/>
      <point x="238" y="593" type="curve" smooth="yes"/>
      <point x="325" y="600"/>
      <point x="336" y="546"/>
      <point x="336" y="545" type="curve" smooth="yes"/>
      <point x="336" y="544"/>
      <point x="361" y="425"/>
      <point x="361" y="425" type="curve"/>
      <point x="472" y="420" type="line"/>
      <point x="472" y="420"/>
      <point x="550" y="422"/>
      <point x="550" y="380" type="curve" smooth="yes"/>
      <point x="550" y="338"/>
      <point x="485" y="341"/>
      <point x="485" y="341" type="curve"/>
      <point x="375" y="341" type="line" smooth="yes"/>
      <point x="374" y="341"/>
      <point x="382" y="203"/>
      <point x="382" y="203" type="curve"/>
      <point x="382" y="203"/>
      <point x="385" y="151"/>
      <point x="311" y="151" type="curve" smooth="yes"/>
      <point x="237" y="151"/>
      <point x="220" y="176"/>
      <point x="218" y="195" type="curve" smooth="yes"/>
      <point x="216" y="214"/>
      <point x="206" y="335"/>
      <point x="206" y="335" type="curve"/>
      <point x="73" y="331" type="line"/>
      <point x="73" y="331"/>
      <point x="14" y="331"/>
      <point x="14" y="366" type="curve" smooth="yes"/>
      <point x="14" y="401"/>
      <point x="65" y="407"/>
      <point x="67" y="407" type="curve" smooth="yes"/>
      <point x="69" y="407"/>
      <point x="143" y="415"/>
    </contour>
  </outline>
</glyph>
<glyph name="uni00B2" format="1">
  <advance width="179"/>
  <unicode hex="00B2"/>
  <outline>
    <contour>
      <point x="58.1445" y="667.627" type="curve" smooth="yes"/>
      <point x="55.5156" y="667.298"/>
      <point x="30.2139" y="664.341"/>
      <point x="31.2002" y="693.258" type="curve" smooth="yes"/>
      <point x="32.1855" y="722.175"/>
      <point x="55.8447" y="738.604"/>
      <point x="91.0049" y="738.275" type="curve" smooth="yes"/>
      <point x="126.165" y="737.947"/>
      <point x="163.625" y="727.761"/>
      <point x="163.954" y="687.672" type="curve" smooth="yes"/>
      <point x="164.282" y="647.582"/>
      <point x="101.849" y="583.505"/>
      <point x="101.191" y="583.505" type="curve" smooth="yes"/>
      <point x="100.534" y="583.505"/>
      <point x="138.323" y="588.763"/>
      <point x="138.323" y="588.763" type="curve"/>
      <point x="138.323" y="588.763"/>
      <point x="163.297" y="591.062"/>
      <point x="165.268" y="576.275" type="curve" smooth="yes"/>
      <point x="167.24" y="561.489"/>
      <point x="159.683" y="558.532"/>
      <point x="149.824" y="556.89" type="curve" smooth="yes"/>
      <point x="139.966" y="555.245"/>
      <point x="62.417" y="545.717"/>
      <point x="62.417" y="545.717" type="curve"/>
      <point x="62.417" y="545.717"/>
      <point x="42.7002" y="545.06"/>
      <point x="38.7578" y="553.603" type="curve" smooth="yes"/>
      <point x="34.8145" y="562.146"/>
      <point x="34.8145" y="565.433"/>
      <point x="45.6582" y="577.591" type="curve" smooth="yes"/>
      <point x="56.502" y="589.749"/>
      <point x="107.435" y="649.555"/>
      <point x="108.092" y="682.414" type="curve" smooth="yes"/>
      <point x="108.75" y="715.274"/>
      <point x="99.2197" y="712.975"/>
      <point x="97.248" y="712.975" type="curve" smooth="yes"/>
      <point x="95.2773" y="712.975"/>
      <point x="82.1328" y="710.673"/>
      <point x="82.1328" y="697.857" type="curve" smooth="yes"/>
      <point x="82.1328" y="685.043"/>
      <point x="87.167" y="671.254"/>
    </contour>
  </outline>
</glyph>
<glyph name="uni00B3" format="1">
  <advance width="190"/>
  <unicode hex="00B3"/>
  <outline>
    <contour>
      <point x="25.4375" y="703.932" type="curve" smooth="yes"/>
      <point x="24.3682" y="709.279"/>
      <point x="23.7598" y="730.01"/>
      <point x="77.1299" y="733.521" type="curve" smooth="yes"/>
      <point x="131.318" y="737.086"/>
      <point x="149.499" y="711.775"/>
      <point x="152.352" y="690.741" type="curve" smooth="yes"/>
      <point x="155.203" y="669.708"/>
      <point x="150.568" y="655.092"/>
      <point x="144.509" y="652.24" type="curve"/>
      <point x="144.509" y="652.24"/>
      <point x="169.106" y="649.031"/>
      <point x="171.602" y="600.903" type="curve" smooth="yes"/>
      <point x="174.098" y="552.776"/>
      <point x="162.334" y="525.682"/>
      <point x="104.581" y="525.682" type="curve" smooth="yes"/>
      <point x="46.8271" y="525.682"/>
      <point x="27.5771" y="549.211"/>
      <point x="27.5771" y="568.462" type="curve" smooth="yes"/>
      <point x="27.5771" y="587.713"/>
      <point x="49.3223" y="591.635"/>
      <point x="50.749" y="591.635" type="curve" smooth="yes"/>
      <point x="52.1748" y="591.635"/>
      <point x="82.1211" y="595.199"/>
      <point x="84.6162" y="575.235" type="curve" smooth="yes"/>
      <point x="87.1123" y="555.271"/>
      <point x="101.372" y="554.559"/>
      <point x="101.372" y="554.559" type="curve"/>
      <point x="101.372" y="554.559"/>
      <point x="116.702" y="550.637"/>
      <point x="113.85" y="590.564" type="curve" smooth="yes"/>
      <point x="110.998" y="630.493"/>
      <point x="95.3115" y="631.562"/>
      <point x="91.3896" y="631.562" type="curve" smooth="yes"/>
      <point x="87.4688" y="631.562"/>
      <point x="63.583" y="630.493"/>
      <point x="64.2959" y="643.327" type="curve" smooth="yes"/>
      <point x="65.0088" y="656.16"/>
      <point x="78.5566" y="657.944"/>
      <point x="80.3389" y="658.3" type="curve" smooth="yes"/>
      <point x="82.1211" y="658.656"/>
      <point x="97.0938" y="659.369"/>
      <point x="94.5977" y="681.116" type="curve" smooth="yes"/>
      <point x="92.1025" y="702.862"/>
      <point x="73.5645" y="698.585"/>
      <point x="72.4951" y="698.585" type="curve" smooth="yes"/>
      <point x="71.4258" y="698.585"/>
      <point x="28.9502" y="686.366"/>
    </contour>
  </outline>
</glyph>
<glyph name="acute" format="1">
  <advance width="260"/>
  <unicode hex="00B4"/>
  <outline>
    <contour>
      <point x="88" y="564" type="curve"/>
      <point x="88" y="564"/>
      <point x="156" y="561"/>
      <point x="178" y="598" type="curve" smooth="yes"/>
      <point x="200" y="635"/>
      <point x="236" y="694"/>
      <point x="236" y="694" type="curve"/>
      <point x="236" y="694"/>
      <point x="258" y="723"/>
      <point x="200" y="740" type="curve" smooth="yes"/>
      <point x="142" y="757"/>
      <point x="97" y="737"/>
      <point x="88" y="722" type="curve" smooth="yes"/>
      <point x="79" y="707"/>
      <point x="24" y="614"/>
      <point x="24" y="614" type="curve"/>
      <point x="24" y="614"/>
      <point x="-6.00488" y="564"/>
    </contour>
  </outline>
</glyph>
<glyph name="mu" format="1">
  <advance width="475"/>
  <unicode hex="00B5"/>
  <outline>
    <contour>
      <point x="390" y="329" type="curve" smooth="yes"/>
      <point x="413.53" y="329"/>
      <point x="451.237" y="324.627"/>
      <point x="453.001" y="306.999" type="curve" smooth="yes"/>
      <point x="453.001" y="176.999" type="line"/>
      <point x="452.998" y="142.001" type="line"/>
      <point x="452.998" y="12.001" type="line" smooth="yes"/>
      <point x="452.998" y="-4.59082"/>
      <point x="411.309" y="-8.99902"/>
      <point x="389.999" y="-8.99902" type="curve" smooth="yes"/>
      <point x="369.346" y="-8.99902"/>
      <point x="327" y="-3.64551"/>
      <point x="327" y="12" type="curve" smooth="yes"/>
      <point x="327" y="14" type="line"/>
      <point x="302.274" y="5.27344"/>
      <point x="263.348" y="0"/>
      <point x="234" y="0" type="curve" smooth="yes"/>
      <point x="210.061" y="0"/>
      <point x="182.729" y="3.17773"/>
      <point x="157.999" y="10" type="curve" smooth="yes"/>
      <point x="154.666" y="10.667"/>
      <point x="151.333" y="12"/>
      <point x="148" y="14" type="curve" smooth="yes"/>
      <point x="148" y="-243" type="line" smooth="yes"/>
      <point x="148" y="-259.76"/>
      <point x="107.25" y="-264"/>
      <point x="85.499" y="-264" type="curve" smooth="yes"/>
      <point x="64.5303" y="-264"/>
      <point x="21.999" y="-258.758"/>
      <point x="21.999" y="-243.001" type="curve" smooth="yes"/>
      <point x="21.999" y="299.999" type="line" smooth="yes"/>
      <point x="21.999" y="316.701"/>
      <point x="63.877" y="320.999"/>
      <point x="85.499" y="320.999" type="curve" smooth="yes"/>
      <point x="107.324" y="320.999"/>
      <point x="147.999" y="316.773"/>
      <point x="147.999" y="299.999" type="curve" smooth="yes"/>
      <point x="147.999" y="235.984"/>
      <point x="160.755" y="166.075"/>
      <point x="178.999" y="120.999" type="curve" smooth="yes"/>
      <point x="193.439" y="84.8975"/>
      <point x="210.88" y="61.4141"/>
      <point x="236.999" y="43.999" type="curve"/>
      <point x="307.454" y="67.4844"/>
      <point x="324.337" y="160.817"/>
      <point x="327.001" y="254" type="curve" smooth="yes"/>
      <point x="327.001" y="307" type="line" smooth="yes"/>
      <point x="327.001" y="323.788"/>
      <point x="368.543" y="329"/>
    </contour>
  </outline>
</glyph>
<glyph name="paragraph" format="1">
  <advance width="443"/>
  <unicode hex="00B6"/>
  <outline>
    <contour>
      <point x="211" y="552" type="curve"/>
      <point x="211" y="552"/>
      <point x="276" y="553"/>
      <point x="276" y="530" type="curve" smooth="yes"/>
      <point x="276" y="507"/>
      <point x="213" y="506"/>
      <point x="213" y="506" type="curve"/>
      <point x="213" y="506"/>
      <point x="144" y="512"/>
      <point x="146" y="435" type="curve" smooth="yes"/>
      <point x="148" y="358"/>
      <point x="184" y="376"/>
      <point x="184" y="376" type="curve"/>
      <point x="184" y="376"/>
      <point x="276" y="388"/>
      <point x="277" y="350" type="curve" smooth="yes"/>
      <point x="278" y="312"/>
      <point x="276" y="25"/>
      <point x="276" y="25" type="curve"/>
      <point x="276" y="25"/>
      <point x="281" y="0"/>
      <point x="217" y="0" type="curve" smooth="yes"/>
      <point x="153" y="0"/>
      <point x="150" y="18"/>
      <point x="150" y="25" type="curve" smooth="yes"/>
      <point x="150" y="331" type="line"/>
      <point x="150" y="331"/>
      <point x="18" y="319"/>
      <point x="19" y="438" type="curve" smooth="yes"/>
      <point x="20" y="557"/>
      <point x="211" y="552"/>
    </contour>
    <contour>
      <point x="358.003" y="550.993" type="curve" smooth="yes"/>
      <point x="379.387" y="550.993"/>
      <point x="421.002" y="546.6"/>
      <point x="421.002" y="529.993" type="curve" smooth="yes"/>
      <point x="421.002" y="21.9932" type="line" smooth="yes"/>
      <point x="421.002" y="5.20508"/>
      <point x="379.46" y="-0.00683594"/>
      <point x="358.003" y="-0.00683594" type="curve" smooth="yes"/>
      <point x="336.473" y="-0.00683594"/>
      <point x="295.004" y="5.1875"/>
      <point x="295.004" y="21.9932" type="curve" smooth="yes"/>
      <point x="295.004" y="529.993" type="line" smooth="yes"/>
      <point x="295.004" y="546.585"/>
      <point x="336.693" y="550.993"/>
    </contour>
  </outline>
</glyph>
<glyph name="ordmasculine" format="1">
  <advance width="485"/>
  <unicode hex="00BA"/>
  <outline>
    <contour>
      <point x="248.904" y="405.518" type="curve"/>
      <point x="264.114" y="381.857"/>
      <point x="275.572" y="369.085"/>
      <point x="276.507" y="328.906" type="curve" smooth="yes"/>
      <point x="277.634" y="280.461"/>
      <point x="252.849" y="275.391"/>
      <point x="246.088" y="275.954" type="curve" smooth="yes"/>
      <point x="239.812" y="276.478"/>
      <point x="220.738" y="289.474"/>
      <point x="220.738" y="332.849" type="curve" smooth="yes"/>
      <point x="220.738" y="376.225"/>
      <point x="248.904" y="405.518"/>
    </contour>
    <contour>
      <point x="246.651" y="460.723" type="curve"/>
      <point x="246.651" y="460.723"/>
      <point x="132.861" y="458.47"/>
      <point x="129.48" y="339.609" type="curve" smooth="yes"/>
      <point x="126.102" y="220.748"/>
      <point x="235.948" y="232.016"/>
      <point x="235.948" y="232.016" type="curve"/>
      <point x="235.948" y="232.016"/>
      <point x="372.835" y="230.325"/>
      <point x="367.765" y="331.159" type="curve" smooth="yes"/>
      <point x="362.694" y="431.993"/>
      <point x="307.489" y="439.316"/>
      <point x="307.489" y="439.316" type="curve"/>
      <point x="307.489" y="439.316"/>
      <point x="299.954" y="445.056"/>
      <point x="292.28" y="448.894" type="curve" smooth="yes"/>
      <point x="288.9" y="450.583"/>
      <point x="274.254" y="462.977"/>
    </contour>
    <contour>
      <point x="402" y="75" type="line" smooth="yes"/>
      <point x="428.861" y="75"/>
      <point x="463" y="61.9707"/>
      <point x="463" y="37.501" type="curve" smooth="yes"/>
      <point x="463" y="13.0479"/>
      <point x="428.828" y="0.00195312"/>
      <point x="402" y="0.00195312" type="curve" smooth="yes"/>
      <point x="82" y="0.00195312" type="line" smooth="yes"/>
      <point x="55.0498" y="0.00195312"/>
      <point x="21.999" y="12.9902"/>
      <point x="21.999" y="37.501" type="curve" smooth="yes"/>
      <point x="21.999" y="61.9951"/>
      <point x="55.083" y="75"/>
      <point x="82" y="75" type="curve" smooth="yes"/>
    </contour>
  </outline>
</glyph>
<glyph name="guillemotright" format="1">
  <advance width="492"/>
  <unicode hex="00BB"/>
  <outline>
    <contour>
      <point x="169" y="398" type="curve" smooth="yes"/>
      <point x="155.31" y="418.541"/>
      <point x="235.739" y="422.264"/>
      <point x="250.003" y="408" type="curve" smooth="yes"/>
      <point x="323.951" y="346.383"/>
      <point x="367.308" y="306.423"/>
      <point x="430.002" y="250.001" type="curve" smooth="yes"/>
      <point x="436.063" y="243.939"/>
      <point x="463.139" y="221.007"/>
      <point x="470.001" y="215.001" type="curve" smooth="yes"/>
      <point x="475.359" y="207.854"/>
      <point x="460.476" y="196.738"/>
      <point x="455.003" y="194" type="curve" smooth="yes"/>
      <point x="392.934" y="137.448"/>
      <point x="356.613" y="103.795"/>
      <point x="298.003" y="52.001" type="curve" smooth="yes"/>
      <point x="284.67" y="40.001"/>
      <point x="271.337" y="27.668"/>
      <point x="258.004" y="15.001" type="curve" smooth="yes"/>
      <point x="243.054" y="2.1875"/>
      <point x="201.338" y="-0.165039"/>
      <point x="181.003" y="10.001" type="curve" smooth="yes"/>
      <point x="168.4" y="18.4004"/>
      <point x="186.386" y="29.3867"/>
      <point x="192.001" y="35.002" type="curve" smooth="yes"/>
      <point x="234.435" y="73.8975"/>
      <point x="318.755" y="150.385"/>
      <point x="349.001" y="177.001" type="curve" smooth="yes"/>
      <point x="385.001" y="209.001" type="line"/>
      <point x="322.076" y="266.68"/>
      <point x="280.41" y="301.718"/>
      <point x="210" y="363" type="curve" smooth="yes"/>
      <point x="203.979" y="368.27"/>
      <point x="174.266" y="392.734"/>
    </contour>
    <contour>
      <point x="23.0029" y="396.001" type="curve" smooth="yes"/>
      <point x="11.8232" y="412.774"/>
      <point x="65.667" y="416.665"/>
      <point x="84.0068" y="412.997" type="curve" smooth="yes"/>
      <point x="100.002" y="410.537"/>
      <point x="101.7" y="405.83"/>
      <point x="112.006" y="396.997" type="curve" smooth="yes"/>
      <point x="167.778" y="349.195"/>
      <point x="229.869" y="294.817"/>
      <point x="283.005" y="246.998" type="curve" smooth="yes"/>
      <point x="294.545" y="235.458"/>
      <point x="310.483" y="222.433"/>
      <point x="323.004" y="212" type="curve" smooth="yes"/>
      <point x="328.933" y="204.095"/>
      <point x="313.297" y="195.29"/>
      <point x="309.006" y="190.999" type="curve" smooth="yes"/>
      <point x="300.339" y="182.999"/>
      <point x="276.006" y="160.999"/>
      <point x="236.006" y="124.999" type="curve" smooth="yes"/>
      <point x="152.006" y="48.999" type="line" smooth="yes"/>
      <point x="127.339" y="26.999"/>
      <point x="113.672" y="14.666"/>
      <point x="111.005" y="11.999" type="curve" smooth="yes"/>
      <point x="96.7393" y="-0.228516"/>
      <point x="42.4756" y="-6.71191"/>
      <point x="30.0049" y="11.999" type="curve" smooth="yes"/>
      <point x="28.6719" y="13.999"/>
      <point x="28.6719" y="15.999"/>
      <point x="30.0049" y="17.999" type="curve" smooth="yes"/>
      <point x="45.0049" y="31.999" type="line" smooth="yes"/>
      <point x="60.3379" y="45.332"/>
      <point x="84.6709" y="66.999"/>
      <point x="118.004" y="96.999" type="curve" smooth="yes"/>
      <point x="202.004" y="173.999" type="line" smooth="yes"/>
      <point x="203.337" y="174.666"/>
      <point x="215.337" y="185.333"/>
      <point x="238.004" y="206" type="curve"/>
      <point x="174.653" y="260.296"/>
      <point x="104.479" y="325.448"/>
      <point x="42.002" y="379.001" type="curve" smooth="yes"/>
      <point x="32.6689" y="387.001"/>
      <point x="26.3359" y="392.668"/>
    </contour>
  </outline>
</glyph>
<glyph name="Agrave" format="1">
  <advance width="537"/>
  <unicode hex="00C0"/>
  <outline>
    <contour>
      <point x="106" y="634" type="curve"/>
      <point x="106" y="634"/>
      <point x="132" y="596"/>
      <point x="194" y="606" type="curve" smooth="yes"/>
      <point x="256" y="616"/>
      <point x="271" y="628"/>
      <point x="254" y="658" type="curve" smooth="yes"/>
      <point x="237" y="688"/>
      <point x="196" y="758"/>
      <point x="196" y="758" type="curve"/>
      <point x="196" y="758"/>
      <point x="179" y="792"/>
      <point x="108" y="786" type="curve" smooth="yes"/>
      <point x="37" y="780"/>
      <point x="38" y="747"/>
      <point x="44" y="738" type="curve" smooth="yes"/>
      <point x="50" y="729"/>
      <point x="82" y="675"/>
    </contour>
    <contour>
      <point x="123.504" y="540" type="curve" smooth="yes"/>
      <point x="123" y="540"/>
      <point x="127.002" y="584.869"/>
      <point x="205" y="586" type="curve" smooth="yes"/>
      <point x="274" y="587"/>
      <point x="288.501" y="549.999"/>
      <point x="288.501" y="549.999" type="curve"/>
      <point x="288.501" y="549.999"/>
      <point x="498" y="76"/>
      <point x="515" y="38" type="curve" smooth="yes"/>
      <point x="532" y="0"/>
      <point x="523" y="0"/>
      <point x="523.499" y="-3.00195" type="curve" smooth="yes"/>
      <point x="513" y="-22"/>
      <point x="485" y="-38"/>
      <point x="446" y="-39" type="curve" smooth="yes"/>
      <point x="366.969" y="-41.0264"/>
      <point x="359" y="0"/>
      <point x="359.502" y="-3.00195" type="curve" smooth="yes"/>
      <point x="359.502" y="-3.00195"/>
      <point x="323" y="81"/>
      <point x="299" y="135" type="curve"/>
      <point x="299" y="135"/>
      <point x="209" y="135"/>
      <point x="208.505" y="134.999" type="curve" smooth="yes"/>
      <point x="202.348" y="106.268"/>
      <point x="190.505" y="47.999"/>
      <point x="190.505" y="47.999" type="curve"/>
      <point x="190.505" y="47.999"/>
      <point x="188" y="0"/>
      <point x="100" y="0" type="curve" smooth="yes"/>
      <point x="12" y="0"/>
      <point x="23" y="50"/>
      <point x="22.5049" y="50" type="curve"/>
      <point x="33.5059" y="97.6719"/>
      <point x="125" y="538"/>
    </contour>
    <contour>
      <point x="229.498" y="381.999" type="curve"/>
      <point x="228.831" y="379.332"/>
      <point x="227.994" y="373.999"/>
      <point x="226.994" y="365.999" type="curve" smooth="yes"/>
      <point x="223.494" y="337.999" type="line" smooth="yes"/>
      <point x="219.626" y="307.047"/>
      <point x="215.602" y="270.546"/>
      <point x="211.996" y="240.498" type="curve" smooth="yes"/>
      <point x="210.996" y="232.165"/>
      <point x="210.163" y="226.998"/>
      <point x="209.496" y="224.998" type="curve" smooth="yes"/>
      <point x="222.496" y="224.998" type="line" smooth="yes"/>
      <point x="238.486" y="224.998"/>
      <point x="258.398" y="226.997"/>
      <point x="273.497" y="226.997" type="curve"/>
      <point x="268.113" y="237.77"/>
      <point x="265.215" y="256.003"/>
      <point x="260.998" y="270.997" type="curve" smooth="yes"/>
      <point x="252.521" y="301.139"/>
      <point x="242.326" y="336.487"/>
      <point x="234.498" y="366.498" type="curve" smooth="yes"/>
      <point x="232.498" y="374.165"/>
      <point x="230.831" y="379.332"/>
    </contour>
  </outline>
</glyph>
<glyph name="Atilde" format="1">
  <advance width="559"/>
  <unicode hex="00C3"/>
  <outline>
    <contour>
      <point x="133.504" y="540" type="curve" smooth="yes"/>
      <point x="133" y="540"/>
      <point x="137.002" y="584.869"/>
      <point x="215" y="586" type="curve" smooth="yes"/>
      <point x="284" y="587"/>
      <point x="298.501" y="549.999"/>
      <point x="298.501" y="549.999" type="curve"/>
      <point x="298.501" y="549.999"/>
      <point x="508" y="76"/>
      <point x="525" y="38" type="curve" smooth="yes"/>
      <point x="542" y="0"/>
      <point x="533" y="0"/>
      <point x="533.499" y="-3.00195" type="curve" smooth="yes"/>
      <point x="523" y="-22"/>
      <point x="495" y="-38"/>
      <point x="456" y="-39" type="curve" smooth="yes"/>
      <point x="376.969" y="-41.0264"/>
      <point x="369" y="0"/>
      <point x="369.502" y="-3.00195" type="curve" smooth="yes"/>
      <point x="369.502" y="-3.00195"/>
      <point x="333" y="81"/>
      <point x="309" y="135" type="curve"/>
      <point x="309" y="135"/>
      <point x="219" y="135"/>
      <point x="218.505" y="134.999" type="curve" smooth="yes"/>
      <point x="212.348" y="106.268"/>
      <point x="200.505" y="47.999"/>
      <point x="200.505" y="47.999" type="curve"/>
      <point x="200.505" y="47.999"/>
      <point x="198" y="0"/>
      <point x="110" y="0" type="curve" smooth="yes"/>
      <point x="22" y="0"/>
      <point x="33" y="50"/>
      <point x="32.5049" y="50" type="curve"/>
      <point x="43.5059" y="97.6719"/>
      <point x="135" y="538"/>
    </contour>
    <contour>
      <point x="239.498" y="381.999" type="curve"/>
      <point x="238.831" y="379.332"/>
      <point x="237.994" y="373.999"/>
      <point x="236.994" y="365.999" type="curve" smooth="yes"/>
      <point x="233.494" y="337.999" type="line" smooth="yes"/>
      <point x="229.626" y="307.047"/>
      <point x="225.602" y="270.546"/>
      <point x="221.996" y="240.498" type="curve" smooth="yes"/>
      <point x="220.996" y="232.165"/>
      <point x="220.163" y="226.998"/>
      <point x="219.496" y="224.998" type="curve" smooth="yes"/>
      <point x="232.496" y="224.998" type="line" smooth="yes"/>
      <point x="248.486" y="224.998"/>
      <point x="268.398" y="226.997"/>
      <point x="283.497" y="226.997" type="curve"/>
      <point x="278.113" y="237.77"/>
      <point x="275.215" y="256.003"/>
      <point x="270.998" y="270.997" type="curve" smooth="yes"/>
      <point x="262.521" y="301.139"/>
      <point x="252.326" y="336.487"/>
      <point x="244.498" y="366.498" type="curve" smooth="yes"/>
      <point x="242.498" y="374.165"/>
      <point x="240.831" y="379.332"/>
    </contour>
    <contour>
      <point x="390.995" y="726.992" type="curve" smooth="yes"/>
      <point x="389.661" y="724.326"/>
      <point x="388.997" y="720.99"/>
      <point x="388.997" y="716.991" type="curve" smooth="yes"/>
      <point x="384.997" y="706.991" type="line" smooth="yes"/>
      <point x="376.372" y="685.425"/>
      <point x="364.221" y="665.217"/>
      <point x="348.998" y="649.994" type="curve" smooth="yes"/>
      <point x="339.337" y="640.333"/>
      <point x="330.774" y="631.92"/>
      <point x="315.998" y="626.996" type="curve" smooth="yes"/>
      <point x="295.37" y="618.401"/>
      <point x="277.739" y="612.997"/>
      <point x="247.998" y="612.997" type="curve" smooth="yes"/>
      <point x="219.998" y="614.997" type="line" smooth="yes"/>
      <point x="204.194" y="616.127"/>
      <point x="188.978" y="622.01"/>
      <point x="176.998" y="627.997" type="curve"/>
      <point x="174.422" y="615.126"/>
      <point x="164.326" y="612.218"/>
      <point x="154.995" y="605.999" type="curve" smooth="yes"/>
      <point x="139.585" y="597.701"/>
      <point x="121.944" y="594.999"/>
      <point x="99.9961" y="594.999" type="curve" smooth="yes"/>
      <point x="68.293" y="594.999"/>
      <point x="38.9658" y="602.791"/>
      <point x="24.9971" y="621.998" type="curve" smooth="yes"/>
      <point x="23.6211" y="626.124"/>
      <point x="23.374" y="628.87"/>
      <point x="21.998" y="632.997" type="curve" smooth="yes"/>
      <point x="27.0732" y="668.507"/>
      <point x="43.9941" y="703.771"/>
      <point x="70.498" y="718.499" type="curve" smooth="yes"/>
      <point x="75.2783" y="721.155"/>
      <point x="79.6445" y="725.214"/>
      <point x="84.998" y="726.999" type="curve" smooth="yes"/>
      <point x="104.743" y="733.579"/>
      <point x="124.803" y="740"/>
      <point x="151.998" y="740" type="curve" smooth="yes"/>
      <point x="179.998" y="738" type="line" smooth="yes"/>
      <point x="196.929" y="736.79"/>
      <point x="217.482" y="730.511"/>
      <point x="229.997" y="723.001" type="curve" smooth="yes"/>
      <point x="230.664" y="723.001"/>
      <point x="231.331" y="722.334"/>
      <point x="231.998" y="721.001" type="curve"/>
      <point x="233.998" y="725.668"/>
      <point x="235.998" y="731.001"/>
      <point x="237.998" y="737.001" type="curve" smooth="yes"/>
      <point x="261.374" y="772.067"/>
      <point x="347.136" y="772.288"/>
      <point x="380" y="746" type="curve" smooth="yes"/>
      <point x="386.667" y="741.333"/>
      <point x="390.328" y="734.992"/>
    </contour>
  </outline>
</glyph>
<glyph name="Eacute" format="1">
  <advance width="457"/>
  <unicode hex="00C9"/>
  <outline>
    <contour>
      <point x="22" y="476.385" type="curve"/>
      <point x="22" y="476.385"/>
      <point x="0" y="530.01"/>
      <point x="86" y="536.596" type="curve" smooth="yes"/>
      <point x="172" y="543.182"/>
      <point x="322" y="548.826"/>
      <point x="322" y="548.826" type="curve"/>
      <point x="322" y="548.826"/>
      <point x="412" y="551.647"/>
      <point x="419" y="506.489" type="curve" smooth="yes"/>
      <point x="426" y="461.331"/>
      <point x="352" y="460.391"/>
      <point x="352" y="460.391" type="curve"/>
      <point x="192" y="451.923" type="line"/>
      <point x="192" y="451.923"/>
      <point x="204" y="406.765"/>
      <point x="206" y="385.126" type="curve" smooth="yes"/>
      <point x="208" y="363.488"/>
      <point x="211" y="316.448"/>
      <point x="211" y="316.448" type="curve"/>
      <point x="285" y="316.448" type="line"/>
      <point x="285" y="316.448"/>
      <point x="357" y="316.448"/>
      <point x="359" y="282.579" type="curve" smooth="yes"/>
      <point x="361" y="248.711"/>
      <point x="303" y="244.006"/>
      <point x="296" y="243.066" type="curve" smooth="yes"/>
      <point x="289" y="242.125"/>
      <point x="212" y="242.125"/>
      <point x="212" y="242.125" type="curve"/>
      <point x="212" y="242.125"/>
      <point x="215" y="191.321"/>
      <point x="214" y="165.92" type="curve" smooth="yes"/>
      <point x="213" y="140.519"/>
      <point x="210" y="93.4785"/>
      <point x="210" y="93.4785" type="curve"/>
      <point x="345" y="98.1826" type="line"/>
      <point x="345" y="98.1826"/>
      <point x="432" y="105.709"/>
      <point x="436" y="59.6094" type="curve" smooth="yes"/>
      <point x="440" y="13.5107"/>
      <point x="357" y="9.74707"/>
      <point x="357" y="9.74707" type="curve"/>
      <point x="141" y="-0.601562" type="line"/>
      <point x="141" y="-0.601562"/>
      <point x="38" y="-10.0098"/>
      <point x="41" y="49.2617" type="curve" smooth="yes"/>
      <point x="44" y="108.531"/>
      <point x="55" y="285.401"/>
    </contour>
    <contour>
      <point x="276" y="590.998" type="curve" smooth="yes"/>
      <point x="239.414" y="572.708"/>
      <point x="154.182" y="568.518"/>
      <point x="139" y="609" type="curve" smooth="yes"/>
      <point x="134.559" y="620.842"/>
      <point x="145.852" y="631.723"/>
      <point x="149.999" y="639.499" type="curve" smooth="yes"/>
      <point x="166.722" y="670.85"/>
      <point x="185.402" y="700.603"/>
      <point x="203" y="731.001" type="curve" smooth="yes"/>
      <point x="225.699" y="771.863"/>
      <point x="340.406" y="765.483"/>
      <point x="356" y="726.499" type="curve" smooth="yes"/>
      <point x="360.488" y="715.279"/>
      <point x="348.977" y="703.954"/>
      <point x="345" y="696.499" type="curve" smooth="yes"/>
      <point x="342.333" y="691.499"/>
      <point x="339.333" y="686.332"/>
      <point x="336" y="680.999" type="curve" smooth="yes"/>
      <point x="314" y="642.999" type="line" smooth="yes"/>
      <point x="306.667" y="630.332"/>
      <point x="299" y="617.665"/>
      <point x="291" y="604.998" type="curve" smooth="yes"/>
      <point x="287.667" y="598.998"/>
      <point x="282.667" y="594.331"/>
    </contour>
    <contour>
      <point x="332.998" y="567" type="curve" smooth="yes"/>
      <point x="332.998" y="567"/>
      <point x="303.998" y="565"/>
      <point x="303.998" y="565" type="curve" smooth="yes"/>
      <point x="313.331" y="565"/>
      <point x="322.998" y="565.667"/>
    </contour>
  </outline>
</glyph>
<glyph name="Iacute" format="1">
  <advance width="248"/>
  <unicode hex="00CD"/>
  <outline>
    <contour>
      <point x="32" y="45.8125" type="curve"/>
      <point x="32" y="45.8125"/>
      <point x="27" y="-2.66797"/>
      <point x="115" y="-2.66797" type="curve" smooth="yes"/>
      <point x="203" y="-2.66797"/>
      <point x="195" y="61.9727"/>
      <point x="195" y="61.9727" type="curve"/>
      <point x="195" y="61.9727"/>
      <point x="183" y="259.697"/>
      <point x="198" y="448.867" type="curve" smooth="yes"/>
      <point x="200.967" y="486.286"/>
      <point x="205" y="504.953"/>
      <point x="187.54" y="530.619" type="curve" smooth="yes"/>
      <point x="175" y="548.681"/>
      <point x="127" y="550.581"/>
      <point x="127" y="550.581" type="curve"/>
      <point x="127" y="550.581"/>
      <point x="44" y="554.384"/>
      <point x="36" y="493.545" type="curve" smooth="yes"/>
      <point x="28" y="432.707"/>
      <point x="22.5791" y="153.273"/>
    </contour>
    <contour>
      <point x="98" y="594" type="curve"/>
      <point x="98" y="594"/>
      <point x="166" y="591"/>
      <point x="188" y="628" type="curve" smooth="yes"/>
      <point x="210" y="665"/>
      <point x="246" y="724"/>
      <point x="246" y="724" type="curve"/>
      <point x="246" y="724"/>
      <point x="268" y="753"/>
      <point x="210" y="770" type="curve" smooth="yes"/>
      <point x="152" y="787"/>
      <point x="107" y="767"/>
      <point x="98" y="752" type="curve" smooth="yes"/>
      <point x="89" y="737"/>
      <point x="34" y="644"/>
      <point x="34" y="644" type="curve"/>
      <point x="34" y="644"/>
      <point x="3.99512" y="594"/>
    </contour>
  </outline>
</glyph>
<glyph name="Icircumflex" format="1">
  <advance width="410"/>
  <unicode hex="00CE"/>
  <outline>
    <contour>
      <point x="124" y="45.8125" type="curve"/>
      <point x="124" y="45.8125"/>
      <point x="119" y="-2.66797"/>
      <point x="207" y="-2.66797" type="curve" smooth="yes"/>
      <point x="295" y="-2.66797"/>
      <point x="287" y="61.9727"/>
      <point x="287" y="61.9727" type="curve"/>
      <point x="287" y="61.9727"/>
      <point x="275" y="259.697"/>
      <point x="290" y="448.867" type="curve" smooth="yes"/>
      <point x="292.967" y="486.286"/>
      <point x="297" y="504.953"/>
      <point x="279.54" y="530.619" type="curve" smooth="yes"/>
      <point x="267" y="548.681"/>
      <point x="219" y="550.581"/>
      <point x="219" y="550.581" type="curve"/>
      <point x="219" y="550.581"/>
      <point x="136" y="554.384"/>
      <point x="128" y="493.545" type="curve" smooth="yes"/>
      <point x="120" y="432.707"/>
      <point x="114.579" y="153.273"/>
    </contour>
    <contour>
      <point x="90" y="578" type="curve"/>
      <point x="90" y="578"/>
      <point x="156" y="572"/>
      <point x="176" y="604" type="curve" smooth="yes"/>
      <point x="196" y="636"/>
      <point x="206" y="656"/>
      <point x="206" y="656" type="curve"/>
      <point x="247" y="620" type="line"/>
      <point x="247" y="620"/>
      <point x="266" y="599"/>
      <point x="326" y="604" type="curve" smooth="yes"/>
      <point x="386" y="609"/>
      <point x="402" y="642"/>
      <point x="383" y="658" type="curve" smooth="yes"/>
      <point x="364" y="674"/>
      <point x="245" y="774"/>
      <point x="245" y="774" type="curve"/>
      <point x="245" y="774"/>
      <point x="224" y="792"/>
      <point x="182" y="789" type="curve" smooth="yes"/>
      <point x="140" y="786"/>
      <point x="120" y="778"/>
      <point x="110" y="762" type="curve" smooth="yes"/>
      <point x="100" y="746"/>
      <point x="26" y="626"/>
      <point x="25" y="626" type="curve" smooth="yes"/>
      <point x="24" y="626"/>
      <point x="-3.05957" y="577"/>
    </contour>
  </outline>
</glyph>
<glyph name="Idieresis" format="1">
  <advance width="390"/>
  <unicode hex="00CF"/>
  <outline>
    <contour>
      <point x="102" y="45.8125" type="curve"/>
      <point x="102" y="45.8125"/>
      <point x="97" y="-2.66797"/>
      <point x="185" y="-2.66797" type="curve" smooth="yes"/>
      <point x="273" y="-2.66797"/>
      <point x="265" y="61.9727"/>
      <point x="265" y="61.9727" type="curve"/>
      <point x="265" y="61.9727"/>
      <point x="253" y="259.697"/>
      <point x="268" y="448.867" type="curve" smooth="yes"/>
      <point x="270.967" y="486.286"/>
      <point x="275" y="504.953"/>
      <point x="257.54" y="530.619" type="curve" smooth="yes"/>
      <point x="245" y="548.681"/>
      <point x="197" y="550.581"/>
      <point x="197" y="550.581" type="curve"/>
      <point x="197" y="550.581"/>
      <point x="114" y="554.384"/>
      <point x="106" y="493.545" type="curve" smooth="yes"/>
      <point x="98" y="432.707"/>
      <point x="92.5791" y="153.273"/>
    </contour>
    <contour>
      <point x="183.5" y="620" type="curve" smooth="yes"/>
      <point x="155.7" y="586.641"/>
      <point x="70.1709" y="574.378"/>
      <point x="31.5" y="608.498" type="curve" smooth="yes"/>
      <point x="20.5771" y="618.136"/>
      <point x="18.2842" y="634.74"/>
      <point x="28.499" y="646.998" type="curve" smooth="yes"/>
      <point x="56.4785" y="680.573"/>
      <point x="140.763" y="696.394"/>
      <point x="180.499" y="658.999" type="curve" smooth="yes"/>
      <point x="191.248" y="648.884"/>
      <point x="193.873" y="632.447"/>
    </contour>
    <contour>
      <point x="368.499" y="628.997" type="curve" smooth="yes"/>
      <point x="340.313" y="595.175"/>
      <point x="255.682" y="584.143"/>
      <point x="216.998" y="617.995" type="curve" smooth="yes"/>
      <point x="206.368" y="627.298"/>
      <point x="204.617" y="644.138"/>
      <point x="214.499" y="655.995" type="curve" smooth="yes"/>
      <point x="241.641" y="688.565"/>
      <point x="327.467" y="706.527"/>
      <point x="365.999" y="667.996" type="curve" smooth="yes"/>
      <point x="376.271" y="657.725"/>
      <point x="378.711" y="641.251"/>
    </contour>
  </outline>
</glyph>
<glyph name="Ntilde" format="1">
  <advance width="544"/>
  <unicode hex="00D1"/>
  <outline>
    <contour>
      <point x="413.45" y="750" type="curve"/>
      <point x="413.45" y="748"/>
      <point x="436.2" y="810"/>
      <point x="353" y="808" type="curve" smooth="yes"/>
      <point x="269.8" y="806"/>
      <point x="272.4" y="763"/>
      <point x="272.4" y="763" type="curve"/>
      <point x="122.25" y="832"/>
      <point x="82.5996" y="698"/>
      <point x="82.5996" y="698" type="curve"/>
      <point x="74.7998" y="672"/>
      <point x="87.7998" y="638"/>
      <point x="148.25" y="635" type="curve" smooth="yes"/>
      <point x="208.7" y="632"/>
      <point x="221.7" y="670"/>
      <point x="221.7" y="670" type="curve"/>
      <point x="221.7" y="670"/>
      <point x="238.6" y="651"/>
      <point x="297.75" y="655" type="curve" smooth="yes"/>
      <point x="356.9" y="659"/>
      <point x="391.35" y="694"/>
    </contour>
    <contour>
      <point x="162" y="0" type="curve"/>
      <point x="162" y="0"/>
      <point x="244" y="-11"/>
      <point x="235" y="79" type="curve" smooth="yes"/>
      <point x="226" y="169"/>
      <point x="202" y="291"/>
      <point x="202" y="291" type="curve"/>
      <point x="352" y="22" type="line"/>
      <point x="352" y="22"/>
      <point x="364" y="-16"/>
      <point x="442" y="-15" type="curve" smooth="yes"/>
      <point x="520" y="-14"/>
      <point x="514" y="33"/>
      <point x="510" y="58" type="curve" smooth="yes"/>
      <point x="506" y="83"/>
      <point x="461.922" y="353.862"/>
      <point x="465" y="497" type="curve" smooth="yes"/>
      <point x="467" y="590"/>
      <point x="390" y="586"/>
      <point x="390" y="586" type="curve"/>
      <point x="390" y="586"/>
      <point x="308" y="589"/>
      <point x="304" y="528" type="curve" smooth="yes"/>
      <point x="300" y="467"/>
      <point x="300" y="416"/>
      <point x="300" y="416" type="curve"/>
      <point x="323" y="226" type="line"/>
      <point x="286" y="295" type="line"/>
      <point x="192" y="523" type="line"/>
      <point x="192" y="523"/>
      <point x="166" y="574"/>
      <point x="101" y="570" type="curve" smooth="yes"/>
      <point x="36" y="566"/>
      <point x="26" y="537"/>
      <point x="28" y="502" type="curve" smooth="yes"/>
      <point x="30" y="467"/>
      <point x="73" y="57"/>
      <point x="73" y="57" type="curve"/>
      <point x="73" y="57"/>
      <point x="66" y="0"/>
    </contour>
  </outline>
</glyph>
<glyph name="Ograve" format="1">
  <advance width="476"/>
  <unicode hex="00D2"/>
  <outline>
    <contour>
      <point x="240" y="597" type="curve"/>
      <point x="240" y="597"/>
      <point x="172" y="594"/>
      <point x="150" y="631" type="curve" smooth="yes"/>
      <point x="128" y="668"/>
      <point x="92" y="727"/>
      <point x="92" y="727" type="curve"/>
      <point x="92" y="727"/>
      <point x="70" y="756"/>
      <point x="128" y="773" type="curve" smooth="yes"/>
      <point x="186" y="790"/>
      <point x="231" y="770"/>
      <point x="240" y="755" type="curve" smooth="yes"/>
      <point x="249" y="740"/>
      <point x="304" y="647"/>
      <point x="304" y="647" type="curve"/>
      <point x="304" y="647"/>
      <point x="334.005" y="597"/>
    </contour>
    <contour>
      <point x="178" y="295.33" type="curve" smooth="yes"/>
      <point x="178" y="178.08"/>
      <point x="205" y="83.1074"/>
      <point x="239" y="83.1074" type="curve" smooth="yes"/>
      <point x="273" y="83.1074"/>
      <point x="300" y="178.08"/>
      <point x="300" y="295.33" type="curve" smooth="yes"/>
      <point x="300" y="412.58"/>
      <point x="273" y="507.553"/>
      <point x="239" y="507.553" type="curve" smooth="yes"/>
      <point x="205" y="507.553"/>
      <point x="178" y="412.58"/>
    </contour>
    <contour>
      <point x="24.5361" y="290.95" type="curve" smooth="yes"/>
      <point x="24.5361" y="451.888"/>
      <point x="119.004" y="583.213"/>
      <point x="234.728" y="583.213" type="curve" smooth="yes"/>
      <point x="350.45" y="583.213"/>
      <point x="449.919" y="451.888"/>
      <point x="449.919" y="290.95" type="curve" smooth="yes"/>
      <point x="449.919" y="130.013"/>
      <point x="350.45" y="-1.3125"/>
      <point x="234.728" y="-1.3125" type="curve" smooth="yes"/>
      <point x="119.004" y="-1.3125"/>
      <point x="24.5361" y="130.013"/>
    </contour>
  </outline>
</glyph>
<glyph name="multiply" format="1">
  <advance width="251"/>
  <unicode hex="00D7"/>
  <outline>
    <contour>
      <point x="229" y="130" type="line" smooth="yes"/>
      <point x="237.979" y="119.225"/>
      <point x="210.655" y="113.328"/>
      <point x="200.003" y="111.997" type="curve" smooth="yes"/>
      <point x="174.947" y="109.05"/>
      <point x="150.329" y="116.007"/>
      <point x="141.004" y="129.998" type="curve" smooth="yes"/>
      <point x="137.277" y="134.967"/>
      <point x="125.423" y="147.58"/>
      <point x="121.003" y="152" type="curve"/>
      <point x="109.271" y="140.269"/>
      <point x="104.009" y="127.287"/>
      <point x="84.0039" y="123" type="curve" smooth="yes"/>
      <point x="64.5771" y="119.114"/>
      <point x="10.5537" y="121.825"/>
      <point x="24.0039" y="142" type="curve" smooth="yes"/>
      <point x="41.3369" y="162"/>
      <point x="59.0039" y="181.667"/>
      <point x="77.0039" y="201" type="curve"/>
      <point x="60.0225" y="217.713"/>
      <point x="36.8965" y="246.107"/>
      <point x="22.0039" y="261" type="curve" smooth="yes"/>
      <point x="13.3896" y="271.338"/>
      <point x="41.3203" y="277.664"/>
      <point x="52.0049" y="278.999" type="curve" smooth="yes"/>
      <point x="70.9189" y="281.224"/>
      <point x="95.1016" y="278.482"/>
      <point x="103.004" y="268.999" type="curve" smooth="yes"/>
      <point x="111.004" y="260.999" type="line" smooth="yes"/>
      <point x="114.337" y="256.999"/>
      <point x="117.67" y="253.332"/>
      <point x="121.003" y="249.999" type="curve"/>
      <point x="132.329" y="262.584"/>
      <point x="136.771" y="273.663"/>
      <point x="157.003" y="277.999" type="curve" smooth="yes"/>
      <point x="172.905" y="281.18"/>
      <point x="235.119" y="277.117"/>
      <point x="217.002" y="259" type="curve" smooth="yes"/>
      <point x="206.703" y="247.557"/>
      <point x="175.292" y="212.433"/>
      <point x="165.002" y="200.999" type="curve" smooth="yes"/>
      <point x="167.677" y="198.324"/>
      <point x="177.218" y="186.782"/>
      <point x="180" y="184" type="curve" smooth="yes"/>
    </contour>
  </outline>
</glyph>
<glyph name="Ucircumflex" format="1">
  <advance width="468"/>
  <unicode hex="00DB"/>
  <outline>
    <contour>
      <point x="112" y="578" type="curve"/>
      <point x="112" y="578"/>
      <point x="31" y="584"/>
      <point x="26" y="514" type="curve" smooth="yes"/>
      <point x="21" y="444"/>
      <point x="-31" y="0"/>
      <point x="246" y="0" type="curve" smooth="yes"/>
      <point x="523" y="0"/>
      <point x="443" y="423"/>
      <point x="443" y="423" type="curve"/>
      <point x="443" y="423"/>
      <point x="444" y="511"/>
      <point x="347" y="504" type="curve" smooth="yes"/>
      <point x="250" y="497"/>
      <point x="273" y="428"/>
      <point x="275" y="417" type="curve" smooth="yes"/>
      <point x="277" y="406"/>
      <point x="317" y="90"/>
      <point x="247" y="87" type="curve" smooth="yes"/>
      <point x="177" y="84"/>
      <point x="187" y="396"/>
      <point x="193" y="488" type="curve" smooth="yes"/>
      <point x="199" y="580"/>
      <point x="112" y="578"/>
    </contour>
    <contour>
      <point x="90" y="598" type="curve"/>
      <point x="90" y="598"/>
      <point x="156" y="592"/>
      <point x="176" y="624" type="curve" smooth="yes"/>
      <point x="196" y="656"/>
      <point x="206" y="676"/>
      <point x="206" y="676" type="curve"/>
      <point x="247" y="640" type="line"/>
      <point x="247" y="640"/>
      <point x="266" y="619"/>
      <point x="326" y="624" type="curve" smooth="yes"/>
      <point x="386" y="629"/>
      <point x="402" y="662"/>
      <point x="383" y="678" type="curve" smooth="yes"/>
      <point x="364" y="694"/>
      <point x="245" y="794"/>
      <point x="245" y="794" type="curve"/>
      <point x="245" y="794"/>
      <point x="224" y="812"/>
      <point x="182" y="809" type="curve" smooth="yes"/>
      <point x="140" y="806"/>
      <point x="120" y="798"/>
      <point x="110" y="782" type="curve" smooth="yes"/>
      <point x="100" y="766"/>
      <point x="26" y="646"/>
      <point x="25" y="646" type="curve" smooth="yes"/>
      <point x="24" y="646"/>
      <point x="-3.05957" y="597"/>
    </contour>
  </outline>
</glyph>
<glyph name="acircumflex" format="1">
  <advance width="496"/>
  <unicode hex="00E2"/>
  <outline>
    <contour>
      <point x="300" y="309.68" type="curve"/>
      <point x="316" y="147.28" type="line"/>
      <point x="316" y="147.28"/>
      <point x="293" y="78.8398"/>
      <point x="263" y="78.8398" type="curve" smooth="yes"/>
      <point x="233" y="78.8398"/>
      <point x="188" y="129.88"/>
      <point x="190" y="212.24" type="curve" smooth="yes"/>
      <point x="192" y="294.6"/>
      <point x="233" y="342.16"/>
      <point x="233" y="344.48" type="curve" smooth="yes"/>
      <point x="233" y="346.8"/>
      <point x="290" y="323.6"/>
    </contour>
    <contour>
      <point x="225" y="413" type="curve"/>
      <point x="225" y="413"/>
      <point x="27" y="413"/>
      <point x="23" y="215" type="curve" smooth="yes"/>
      <point x="19" y="17"/>
      <point x="246" y="0"/>
      <point x="246" y="0" type="curve"/>
      <point x="246" y="0"/>
      <point x="314.314" y="-2.73828"/>
      <point x="332" y="12" type="curve"/>
      <point x="332" y="12"/>
      <point x="335" y="-4"/>
      <point x="393" y="0" type="curve" smooth="yes"/>
      <point x="471.812" y="5.43555"/>
      <point x="473" y="26"/>
      <point x="473" y="82" type="curve" smooth="yes"/>
      <point x="473" y="138"/>
      <point x="444" y="329"/>
      <point x="444" y="329" type="curve"/>
      <point x="444" y="329"/>
      <point x="438" y="348"/>
      <point x="423" y="349" type="curve" smooth="yes"/>
      <point x="408" y="350"/>
      <point x="358" y="415"/>
    </contour>
    <contour>
      <point x="243.996" y="463" type="line"/>
      <point x="218.656" y="424.991"/>
      <point x="109.527" y="425.779"/>
      <point x="91.4932" y="467.004" type="curve" smooth="yes"/>
      <point x="87.3584" y="476.455"/>
      <point x="96.3301" y="488.006"/>
      <point x="100.993" y="495.003" type="curve" smooth="yes"/>
      <point x="117.906" y="519.722"/>
      <point x="134.571" y="544.37"/>
      <point x="150.993" y="569.003" type="curve" smooth="yes"/>
      <point x="163.464" y="589.789"/>
      <point x="194.026" y="597.003"/>
      <point x="225.994" y="597.003" type="curve" smooth="yes"/>
      <point x="267.908" y="597.003"/>
      <point x="291.63" y="582.371"/>
      <point x="312.498" y="561.503" type="curve" smooth="yes"/>
      <point x="328.236" y="545.765"/>
      <point x="346.318" y="531.662"/>
      <point x="362.499" y="516.003" type="curve" smooth="yes"/>
      <point x="372.832" y="506.003"/>
      <point x="383.332" y="496.336"/>
      <point x="393.999" y="487.003" type="curve" smooth="yes"/>
      <point x="400.666" y="482.336"/>
      <point x="404.33" y="476.003"/>
      <point x="404.997" y="468.003" type="curve" smooth="yes"/>
      <point x="400.946" y="455.857"/>
      <point x="397.853" y="449.409"/>
      <point x="386.497" y="444.002" type="curve" smooth="yes"/>
      <point x="355.605" y="429.293"/>
      <point x="303.893" y="424.992"/>
      <point x="271.997" y="442.002" type="curve" smooth="yes"/>
      <point x="267.948" y="444.7"/>
      <point x="264.046" y="446.303"/>
      <point x="259.997" y="449.001" type="curve" smooth="yes"/>
      <point x="254.61" y="454.388"/>
      <point x="249.383" y="458.613"/>
      <point x="243.996" y="464" type="curve"/>
    </contour>
  </outline>
</glyph>
<glyph name="egrave" format="1">
  <advance width="482"/>
  <unicode hex="00E8"/>
  <outline>
    <contour>
      <point x="254" y="408" type="curve"/>
      <point x="254" y="408"/>
      <point x="186" y="405"/>
      <point x="164" y="442" type="curve" smooth="yes"/>
      <point x="142" y="479"/>
      <point x="106" y="538"/>
      <point x="106" y="538" type="curve"/>
      <point x="106" y="538"/>
      <point x="84" y="567"/>
      <point x="142" y="584" type="curve" smooth="yes"/>
      <point x="200" y="601"/>
      <point x="245" y="581"/>
      <point x="254" y="566" type="curve" smooth="yes"/>
      <point x="263" y="551"/>
      <point x="318" y="458"/>
      <point x="318" y="458" type="curve"/>
      <point x="318" y="458"/>
      <point x="348.005" y="408"/>
    </contour>
    <contour>
      <point x="170.947" y="209.52" type="curve"/>
      <point x="170.947" y="209.52"/>
      <point x="166.938" y="334.32"/>
      <point x="244.13" y="338.16" type="curve" smooth="yes"/>
      <point x="321.322" y="342"/>
      <point x="333.353" y="221.04"/>
    </contour>
    <contour>
      <point x="426.585" y="290.16" type="curve" smooth="yes"/>
      <point x="427.588" y="308.4"/>
      <point x="419.567" y="397.68"/>
      <point x="220.07" y="395.76" type="curve" smooth="yes"/>
      <point x="20.5723" y="393.84"/>
      <point x="12.5527" y="256.56"/>
      <point x="12.5527" y="208.56" type="curve" smooth="yes"/>
      <point x="12.5527" y="160.56"/>
      <point x="46.3604" y="-3.23145"/>
      <point x="242.125" y="0.240234" type="curve" smooth="yes"/>
      <point x="404.53" y="3.12012"/>
      <point x="442.625" y="64.5596"/>
      <point x="442.625" y="64.5596" type="curve"/>
      <point x="442.625" y="64.5596"/>
      <point x="493.771" y="130.8"/>
      <point x="384.48" y="130.8" type="curve" smooth="yes"/>
      <point x="311.298" y="130.8"/>
      <point x="279.218" y="97.2002"/>
      <point x="279.218" y="97.2002" type="curve"/>
      <point x="279.218" y="97.2002"/>
      <point x="204.411" y="31.6504"/>
      <point x="184.982" y="143.28" type="curve"/>
      <point x="184.982" y="143.28"/>
      <point x="417.78" y="129.958"/>
    </contour>
  </outline>
</glyph>
<glyph name="edieresis" format="1">
  <advance width="483"/>
  <unicode hex="00EB"/>
  <outline>
    <contour>
      <point x="170.947" y="209.52" type="curve"/>
      <point x="170.947" y="209.52"/>
      <point x="166.938" y="334.32"/>
      <point x="244.13" y="338.16" type="curve" smooth="yes"/>
      <point x="321.322" y="342"/>
      <point x="333.353" y="221.04"/>
    </contour>
    <contour>
      <point x="426.585" y="290.16" type="curve" smooth="yes"/>
      <point x="427.588" y="308.4"/>
      <point x="419.567" y="397.68"/>
      <point x="220.07" y="395.76" type="curve" smooth="yes"/>
      <point x="20.5723" y="393.84"/>
      <point x="12.5527" y="256.56"/>
      <point x="12.5527" y="208.56" type="curve" smooth="yes"/>
      <point x="12.5527" y="160.56"/>
      <point x="46.3604" y="-3.23145"/>
      <point x="242.125" y="0.240234" type="curve" smooth="yes"/>
      <point x="404.53" y="3.12012"/>
      <point x="442.625" y="64.5596"/>
      <point x="442.625" y="64.5596" type="curve"/>
      <point x="442.625" y="64.5596"/>
      <point x="493.771" y="130.8"/>
      <point x="384.48" y="130.8" type="curve" smooth="yes"/>
      <point x="311.298" y="130.8"/>
      <point x="279.218" y="97.2002"/>
      <point x="279.218" y="97.2002" type="curve"/>
      <point x="279.218" y="97.2002"/>
      <point x="204.411" y="31.6504"/>
      <point x="184.982" y="143.28" type="curve"/>
      <point x="184.982" y="143.28"/>
      <point x="417.78" y="129.958"/>
    </contour>
    <contour>
      <point x="223.5" y="433" type="curve" smooth="yes"/>
      <point x="195.7" y="399.641"/>
      <point x="110.171" y="387.378"/>
      <point x="71.5" y="421.498" type="curve" smooth="yes"/>
      <point x="60.5771" y="431.136"/>
      <point x="58.2842" y="447.74"/>
      <point x="68.499" y="459.998" type="curve" smooth="yes"/>
      <point x="96.4785" y="493.573"/>
      <point x="180.763" y="509.394"/>
      <point x="220.499" y="471.999" type="curve" smooth="yes"/>
      <point x="231.248" y="461.884"/>
      <point x="233.873" y="445.447"/>
    </contour>
    <contour>
      <point x="408.499" y="441.997" type="curve" smooth="yes"/>
      <point x="380.313" y="408.175"/>
      <point x="295.682" y="397.143"/>
      <point x="256.998" y="430.995" type="curve" smooth="yes"/>
      <point x="246.368" y="440.298"/>
      <point x="244.617" y="457.138"/>
      <point x="254.499" y="468.995" type="curve" smooth="yes"/>
      <point x="281.641" y="501.565"/>
      <point x="367.467" y="519.527"/>
      <point x="405.999" y="480.996" type="curve" smooth="yes"/>
      <point x="416.271" y="470.725"/>
      <point x="418.711" y="454.251"/>
    </contour>
  </outline>
</glyph>
<glyph name="eth" format="1">
  <advance width="449"/>
  <unicode hex="00F0"/>
  <outline>
    <contour>
      <point x="302" y="262" type="curve"/>
      <point x="139.244" y="302.688"/>
      <point x="149" y="146"/>
      <point x="149" y="146" type="curve"/>
      <point x="149" y="146"/>
      <point x="151" y="10"/>
      <point x="234" y="44" type="curve" smooth="yes"/>
      <point x="317" y="78"/>
      <point x="302" y="262"/>
    </contour>
    <contour>
      <point x="299" y="501" type="curve"/>
      <point x="299" y="501"/>
      <point x="436" y="446.999"/>
      <point x="431" y="245.999" type="curve" smooth="yes"/>
      <point x="426" y="44.999"/>
      <point x="353" y="-0.000976562"/>
      <point x="230" y="-0.000976562" type="curve" smooth="yes"/>
      <point x="107" y="-0.000976562"/>
      <point x="21.0195" y="14.9805"/>
      <point x="23" y="148.999" type="curve" smooth="yes"/>
      <point x="26" y="351.999"/>
      <point x="299" y="300.999"/>
      <point x="299" y="302.999" type="curve" smooth="yes"/>
      <point x="299" y="304.999"/>
      <point x="299" y="378.999"/>
      <point x="244" y="437.999" type="curve"/>
      <point x="244" y="437.999"/>
      <point x="232" y="423.999"/>
      <point x="193" y="426.999" type="curve" smooth="yes"/>
      <point x="140.914" y="431.006"/>
      <point x="148.48" y="445.983"/>
      <point x="191" y="479.999" type="curve"/>
      <point x="191" y="479.999"/>
      <point x="147.004" y="505.026"/>
      <point x="104" y="510.999" type="curve" smooth="yes"/>
      <point x="68" y="515.999"/>
      <point x="17" y="550.999"/>
      <point x="106" y="551.999" type="curve" smooth="yes"/>
      <point x="196.266" y="553.014"/>
      <point x="238" y="530.999"/>
      <point x="238" y="530.999" type="curve"/>
      <point x="238" y="530.999"/>
      <point x="254" y="552.999"/>
      <point x="297" y="546.999" type="curve" smooth="yes"/>
      <point x="348.653" y="539.792"/>
      <point x="311.786" y="511.654"/>
    </contour>
  </outline>
</glyph>
<glyph name="divide" format="1">
  <advance width="571"/>
  <unicode hex="00F7"/>
  <outline>
    <contour>
      <point x="270" y="0" type="curve" smooth="yes"/>
      <point x="224.469" y="0"/>
      <point x="186.975" y="27.4893"/>
      <point x="186.975" y="60.8691" type="curve" smooth="yes"/>
      <point x="186.975" y="94.25"/>
      <point x="224.47" y="121.739"/>
      <point x="270" y="121.739" type="curve" smooth="yes"/>
      <point x="315.531" y="121.739"/>
      <point x="353.025" y="94.249"/>
      <point x="353.025" y="60.8691" type="curve" smooth="yes"/>
      <point x="353.025" y="27.4883"/>
      <point x="315.53" y="0"/>
    </contour>
    <contour>
      <point x="275.938" y="374.609" type="curve" smooth="yes"/>
      <point x="230.406" y="374.609"/>
      <point x="192.912" y="402.099"/>
      <point x="192.912" y="435.479" type="curve" smooth="yes"/>
      <point x="192.912" y="468.859"/>
      <point x="230.407" y="496.349"/>
      <point x="275.938" y="496.349" type="curve" smooth="yes"/>
      <point x="321.469" y="496.349"/>
      <point x="358.963" y="468.858"/>
      <point x="358.963" y="435.479" type="curve" smooth="yes"/>
      <point x="358.963" y="402.098"/>
      <point x="321.468" y="374.609"/>
    </contour>
    <contour>
      <point x="22" y="256" type="curve"/>
      <point x="22" y="256"/>
      <point x="14" y="210"/>
      <point x="98" y="209" type="curve" smooth="yes"/>
      <point x="182" y="208"/>
      <point x="474" y="210"/>
      <point x="474" y="210" type="curve"/>
      <point x="474" y="210"/>
      <point x="555" y="208"/>
      <point x="549" y="258" type="curve" smooth="yes"/>
      <point x="543" y="308"/>
      <point x="480" y="300"/>
      <point x="480" y="300" type="curve"/>
      <point x="102" y="302" type="line"/>
      <point x="102" y="302"/>
      <point x="23" y="308"/>
    </contour>
  </outline>
</glyph>
<glyph name="Cacute" format="1">
  <advance width="445"/>
  <unicode hex="0106"/>
  <outline>
    <contour>
      <point x="423" y="129" type="curve" smooth="yes"/>
      <point x="423" y="130"/>
      <point x="438" y="192"/>
      <point x="349" y="194" type="curve" smooth="yes"/>
      <point x="260" y="196"/>
      <point x="275" y="143"/>
      <point x="275" y="143" type="curve"/>
      <point x="275" y="143"/>
      <point x="273" y="79"/>
      <point x="238" y="81" type="curve" smooth="yes"/>
      <point x="203" y="83"/>
      <point x="199" y="142"/>
      <point x="199" y="142" type="curve"/>
      <point x="199" y="142"/>
      <point x="184" y="366"/>
      <point x="195" y="444" type="curve" smooth="yes"/>
      <point x="206" y="522"/>
      <point x="234" y="482"/>
      <point x="234" y="462" type="curve" smooth="yes"/>
      <point x="234" y="442"/>
      <point x="248.992" y="409"/>
      <point x="312" y="409" type="curve" smooth="yes"/>
      <point x="326" y="409"/>
      <point x="423" y="413"/>
      <point x="381" y="485" type="curve" smooth="yes"/>
      <point x="339" y="557"/>
      <point x="266" y="580"/>
      <point x="201" y="576" type="curve" smooth="yes"/>
      <point x="136" y="572"/>
      <point x="27" y="548"/>
      <point x="24" y="408" type="curve" smooth="yes"/>
      <point x="21" y="268"/>
      <point x="-22" y="0"/>
      <point x="233" y="0" type="curve" smooth="yes"/>
      <point x="410" y="0"/>
      <point x="423" y="129"/>
    </contour>
    <contour>
      <point x="178" y="594" type="curve"/>
      <point x="178" y="594"/>
      <point x="246" y="591"/>
      <point x="268" y="628" type="curve" smooth="yes"/>
      <point x="290" y="665"/>
      <point x="326" y="724"/>
      <point x="326" y="724" type="curve"/>
      <point x="326" y="724"/>
      <point x="348" y="753"/>
      <point x="290" y="770" type="curve" smooth="yes"/>
      <point x="232" y="787"/>
      <point x="187" y="767"/>
      <point x="178" y="752" type="curve" smooth="yes"/>
      <point x="169" y="737"/>
      <point x="114" y="644"/>
      <point x="114" y="644" type="curve"/>
      <point x="114" y="644"/>
      <point x="83.9951" y="594"/>
    </contour>
  </outline>
</glyph>
<glyph name="Ccaron" format="1">
  <advance width="469"/>
  <unicode hex="010C"/>
  <outline>
    <contour>
      <point x="443" y="129" type="curve" smooth="yes"/>
      <point x="443" y="130"/>
      <point x="458" y="192"/>
      <point x="369" y="194" type="curve" smooth="yes"/>
      <point x="280" y="196"/>
      <point x="295" y="143"/>
      <point x="295" y="143" type="curve"/>
      <point x="295" y="143"/>
      <point x="293" y="79"/>
      <point x="258" y="81" type="curve" smooth="yes"/>
      <point x="223" y="83"/>
      <point x="219" y="142"/>
      <point x="219" y="142" type="curve"/>
      <point x="219" y="142"/>
      <point x="204" y="366"/>
      <point x="215" y="444" type="curve" smooth="yes"/>
      <point x="226" y="522"/>
      <point x="254" y="482"/>
      <point x="254" y="462" type="curve" smooth="yes"/>
      <point x="254" y="442"/>
      <point x="268.992" y="409"/>
      <point x="332" y="409" type="curve" smooth="yes"/>
      <point x="346" y="409"/>
      <point x="443" y="413"/>
      <point x="401" y="485" type="curve" smooth="yes"/>
      <point x="359" y="557"/>
      <point x="286" y="580"/>
      <point x="221" y="576" type="curve" smooth="yes"/>
      <point x="156" y="572"/>
      <point x="47" y="548"/>
      <point x="44" y="408" type="curve" smooth="yes"/>
      <point x="41" y="268"/>
      <point x="-2" y="0"/>
      <point x="253" y="0" type="curve" smooth="yes"/>
      <point x="430" y="0"/>
      <point x="443" y="129"/>
    </contour>
    <contour>
      <point x="229.987" y="591.001" type="curve" smooth="yes"/>
      <point x="204.811" y="591.001"/>
      <point x="177.661" y="598.247"/>
      <point x="161.99" y="610.001" type="curve"/>
      <point x="161.99" y="611.001" type="line"/>
      <point x="118.919" y="646.471"/>
      <point x="77.0137" y="683.58"/>
      <point x="34.9922" y="720" type="curve" smooth="yes"/>
      <point x="27.3828" y="726.521"/>
      <point x="19.4512" y="736.931"/>
      <point x="26.9941" y="749" type="curve" smooth="yes"/>
      <point x="44.9629" y="784.943"/>
      <point x="140.883" y="786.107"/>
      <point x="168.992" y="757.998" type="curve"/>
      <point x="170.992" y="757.998" type="line"/>
      <point x="184.051" y="747.552"/>
      <point x="195.703" y="735.921"/>
      <point x="207.992" y="724.998" type="curve"/>
      <point x="218.752" y="742.485"/>
      <point x="229.229" y="757.511"/>
      <point x="239.99" y="774.999" type="curve" smooth="yes"/>
      <point x="263.159" y="809.753"/>
      <point x="349.228" y="810.203"/>
      <point x="381.989" y="783.997" type="curve" smooth="yes"/>
      <point x="389.866" y="778.371"/>
      <point x="397.384" y="766.831"/>
      <point x="389.989" y="754.999" type="curve" smooth="yes"/>
      <point x="346.989" y="686.999" type="line" smooth="yes"/>
      <point x="333.463" y="664.007"/>
      <point x="319.448" y="641.348"/>
      <point x="304.989" y="619.001" type="curve" smooth="yes"/>
      <point x="292.881" y="598.82"/>
      <point x="259.386" y="592.472"/>
    </contour>
  </outline>
</glyph>
<glyph name="Dcaron" format="1">
  <advance width="471"/>
  <unicode hex="010E"/>
  <outline>
    <contour>
      <point x="168" y="490" type="line"/>
      <point x="221" y="498"/>
      <point x="280" y="492"/>
      <point x="292" y="284" type="curve" smooth="yes"/>
      <point x="304" y="76"/>
      <point x="212" y="85"/>
      <point x="212" y="85" type="curve"/>
    </contour>
    <contour>
      <point x="61" y="65" type="curve"/>
      <point x="61" y="65"/>
      <point x="48" y="0"/>
      <point x="142" y="0" type="curve" smooth="yes"/>
      <point x="236" y="0"/>
      <point x="469.755" y="-8.88184"/>
      <point x="446" y="332" type="curve" smooth="yes"/>
      <point x="426" y="619"/>
      <point x="152" y="580"/>
      <point x="152" y="580" type="curve"/>
      <point x="152" y="580"/>
      <point x="24" y="573.186"/>
      <point x="24" y="530" type="curve" smooth="yes"/>
      <point x="24" y="518"/>
      <point x="38" y="506"/>
      <point x="38" y="506" type="curve"/>
      <point x="38" y="506"/>
      <point x="26" y="497"/>
      <point x="30" y="466" type="curve" smooth="yes"/>
      <point x="34" y="435"/>
      <point x="49" y="221"/>
    </contour>
    <contour>
      <point x="220.987" y="598.001" type="curve" smooth="yes"/>
      <point x="195.811" y="598.001"/>
      <point x="168.661" y="605.247"/>
      <point x="152.99" y="617.001" type="curve"/>
      <point x="152.99" y="618.001" type="line"/>
      <point x="109.919" y="653.471"/>
      <point x="68.0137" y="690.58"/>
      <point x="25.9922" y="727" type="curve" smooth="yes"/>
      <point x="18.3828" y="733.521"/>
      <point x="10.4512" y="743.931"/>
      <point x="17.9941" y="756" type="curve" smooth="yes"/>
      <point x="35.9629" y="791.943"/>
      <point x="131.883" y="793.107"/>
      <point x="159.992" y="764.998" type="curve"/>
      <point x="161.992" y="764.998" type="line"/>
      <point x="175.051" y="754.552"/>
      <point x="186.703" y="742.921"/>
      <point x="198.992" y="731.998" type="curve"/>
      <point x="209.752" y="749.485"/>
      <point x="220.229" y="764.511"/>
      <point x="230.99" y="781.999" type="curve" smooth="yes"/>
      <point x="254.159" y="816.753"/>
      <point x="340.228" y="817.203"/>
      <point x="372.989" y="790.997" type="curve" smooth="yes"/>
      <point x="380.866" y="785.371"/>
      <point x="388.384" y="773.831"/>
      <point x="380.989" y="761.999" type="curve" smooth="yes"/>
      <point x="337.989" y="693.999" type="line" smooth="yes"/>
      <point x="324.463" y="671.007"/>
      <point x="310.448" y="648.348"/>
      <point x="295.989" y="626.001" type="curve" smooth="yes"/>
      <point x="283.881" y="605.82"/>
      <point x="250.386" y="599.472"/>
    </contour>
  </outline>
</glyph>
<glyph name="emacron" format="1">
  <advance width="481"/>
  <unicode hex="0113"/>
  <outline>
    <contour>
      <point x="170.947" y="209.52" type="curve"/>
      <point x="170.947" y="209.52"/>
      <point x="166.938" y="334.32"/>
      <point x="244.13" y="338.16" type="curve" smooth="yes"/>
      <point x="321.322" y="342"/>
      <point x="333.353" y="221.04"/>
    </contour>
    <contour>
      <point x="426.585" y="290.16" type="curve" smooth="yes"/>
      <point x="427.588" y="308.4"/>
      <point x="419.567" y="397.68"/>
      <point x="220.07" y="395.76" type="curve" smooth="yes"/>
      <point x="20.5723" y="393.84"/>
      <point x="12.5527" y="256.56"/>
      <point x="12.5527" y="208.56" type="curve" smooth="yes"/>
      <point x="12.5527" y="160.56"/>
      <point x="46.3604" y="-3.23145"/>
      <point x="242.125" y="0.240234" type="curve" smooth="yes"/>
      <point x="404.53" y="3.12012"/>
      <point x="442.625" y="64.5596"/>
      <point x="442.625" y="64.5596" type="curve"/>
      <point x="442.625" y="64.5596"/>
      <point x="493.771" y="130.8"/>
      <point x="384.48" y="130.8" type="curve" smooth="yes"/>
      <point x="311.298" y="130.8"/>
      <point x="279.218" y="97.2002"/>
      <point x="279.218" y="97.2002" type="curve"/>
      <point x="279.218" y="97.2002"/>
      <point x="204.411" y="31.6504"/>
      <point x="184.982" y="143.28" type="curve"/>
      <point x="184.982" y="143.28"/>
      <point x="417.78" y="129.958"/>
    </contour>
    <contour>
      <point x="306.999" y="500" type="line" smooth="yes"/>
      <point x="333.553" y="500"/>
      <point x="382" y="492.704"/>
      <point x="382" y="471.499" type="curve" smooth="yes"/>
      <point x="382" y="450.317"/>
      <point x="333.474" y="442.998"/>
      <point x="306.999" y="442.998" type="curve" smooth="yes"/>
      <point x="125.999" y="442.998" type="line" smooth="yes"/>
      <point x="99.3223" y="442.998"/>
      <point x="51.999" y="450.236"/>
      <point x="51.999" y="471.499" type="curve" smooth="yes"/>
      <point x="51.999" y="492.428"/>
      <point x="100.164" y="500"/>
      <point x="125.999" y="500" type="curve" smooth="yes"/>
    </contour>
  </outline>
</glyph>
<glyph name="Eogonek" format="1">
  <advance width="457"/>
  <unicode hex="0118"/>
  <outline>
    <contour>
      <point x="268.897" y="102.224" type="curve" smooth="yes"/>
      <point x="296.956" y="102.224"/>
      <point x="322.743" y="105.311"/>
      <point x="351.813" y="105.311" type="curve" smooth="yes"/>
      <point x="384.961" y="105.311"/>
      <point x="411.447" y="95.6826"/>
      <point x="428.193" y="78.5186" type="curve" smooth="yes"/>
      <point x="433.553" y="73.0254"/>
      <point x="436.233" y="66.1582"/>
      <point x="436.233" y="57.918" type="curve" smooth="yes"/>
      <point x="436.233" y="32.3857"/>
      <point x="403.197" y="17.7705"/>
      <point x="381.964" y="14.1436" type="curve" smooth="yes"/>
      <point x="372.584" y="12.4268"/>
      <point x="362.533" y="11.2246"/>
      <point x="351.813" y="10.5381" type="curve" smooth="yes"/>
      <point x="349.804" y="10.5381" type="line" smooth="yes"/>
      <point x="329.626" y="9.4502"/>
      <point x="308.934" y="8.14941"/>
      <point x="288.516" y="7.30566" type="curve"/>
      <point x="289.723" y="5.69531"/>
      <point x="290.573" y="3.93164"/>
      <point x="291.002" y="2.00195" type="curve" smooth="yes"/>
      <point x="293.494" y="-17.9443"/>
      <point x="292.429" y="-45.6797"/>
      <point x="280" y="-55" type="curve" smooth="yes"/>
      <point x="272.528" y="-63.5381"/>
      <point x="255.171" y="-71.8789"/>
      <point x="238" y="-75" type="curve" smooth="yes"/>
      <point x="236" y="-75" type="line"/>
      <point x="232.553" y="-80.1729"/>
      <point x="231.05" y="-86.6553"/>
      <point x="230" y="-94" type="curve" smooth="yes"/>
      <point x="230" y="-97.6504"/>
      <point x="227.851" y="-102.404"/>
      <point x="229" y="-107.001" type="curve" smooth="yes"/>
      <point x="229.667" y="-107.668"/>
      <point x="230" y="-108.335"/>
      <point x="230" y="-109.002" type="curve" smooth="yes"/>
      <point x="246" y="-109.002" type="line" smooth="yes"/>
      <point x="265.074" y="-108.207"/>
      <point x="309" y="-113.105"/>
      <point x="309" y="-130.002" type="curve" smooth="yes"/>
      <point x="309" y="-146.94"/>
      <point x="270.221" y="-150.386"/>
      <point x="246" y="-152" type="curve" smooth="yes"/>
      <point x="221.001" y="-152" type="line" smooth="yes"/>
      <point x="207.668" y="-151.333"/>
      <point x="199.001" y="-150.666"/>
      <point x="195.001" y="-149.999" type="curve" smooth="yes"/>
      <point x="164.646" y="-149.999"/>
      <point x="130.272" y="-137.453"/>
      <point x="111.001" y="-122.999" type="curve" smooth="yes"/>
      <point x="105.815" y="-119.543"/>
      <point x="102.001" y="-108.708"/>
      <point x="102.001" y="-102.999" type="curve" smooth="yes"/>
      <point x="102.001" y="-100.332"/>
      <point x="102.67" y="-97.333"/>
      <point x="104.003" y="-94" type="curve" smooth="yes"/>
      <point x="104.003" y="-61.2354"/>
      <point x="128.628" y="-47.1289"/>
      <point x="160.003" y="-39.999" type="curve"/>
      <point x="162.003" y="-38.999" type="line" smooth="yes"/>
      <point x="162.67" y="-38.332"/>
      <point x="163.003" y="-37.665"/>
      <point x="163.003" y="-36.998" type="curve" smooth="yes"/>
      <point x="166.336" y="-25.665"/>
      <point x="167.003" y="-12.665"/>
      <point x="165.003" y="2.00195" type="curve" smooth="yes"/>
      <point x="165.003" y="2.12598"/>
      <point x="165.027" y="2.28125"/>
      <point x="165.07" y="2.46191" type="curve"/>
      <point x="161.077" y="2.35449"/>
      <point x="157.163" y="2.30078"/>
      <point x="153.327" y="2.30078" type="curve" smooth="yes"/>
      <point x="143.612" y="2.30078"/>
      <point x="133.73" y="1.61328"/>
      <point x="123.681" y="0.240234" type="curve" smooth="yes"/>
      <point x="88.7842" y="0.240234"/>
      <point x="53.6826" y="14.0078"/>
      <point x="40.7666" y="37.8359" type="curve" smooth="yes"/>
      <point x="39.0908" y="40.9258"/>
      <point x="38.5879" y="44.5312"/>
      <point x="39.2588" y="48.6514" type="curve" smooth="yes"/>
      <point x="49.3242" y="187.937"/>
      <point x="47.584" y="346.622"/>
      <point x="27.1992" y="471.988" type="curve" smooth="yes"/>
      <point x="25.8398" y="485.918"/>
      <point x="22.5283" y="497.198"/>
      <point x="21.1689" y="511.129" type="curve" smooth="yes"/>
      <point x="17.8193" y="518.682"/>
      <point x="17.8193" y="526.578"/>
      <point x="21.1689" y="534.818" type="curve" smooth="yes"/>
      <point x="33.0664" y="556.158"/>
      <point x="60.8076" y="569.84"/>
      <point x="91.5186" y="569.84" type="curve" smooth="yes"/>
      <point x="94.8682" y="569.84"/>
      <point x="98.5537" y="570.183"/>
      <point x="102.573" y="570.87" type="curve" smooth="yes"/>
      <point x="106.594" y="570.87" type="line" smooth="yes"/>
      <point x="154.319" y="573.315"/>
      <point x="204.233" y="574.193"/>
      <point x="249.802" y="579.109" type="curve" smooth="yes"/>
      <point x="256.167" y="579.797"/>
      <point x="264.375" y="580.14"/>
      <point x="274.425" y="580.14" type="curve" smooth="yes"/>
      <point x="295.333" y="581.568"/>
      <point x="312.443" y="581.865"/>
      <point x="333.719" y="583.228" type="curve" smooth="yes"/>
      <point x="367.197" y="583.228"/>
      <point x="393.216" y="572.723"/>
      <point x="410.098" y="555.419" type="curve" smooth="yes"/>
      <point x="415.457" y="549.926"/>
      <point x="418.138" y="543.059"/>
      <point x="418.138" y="534.818" type="curve" smooth="yes"/>
      <point x="418.138" y="504.403"/>
      <point x="373.232" y="488.47"/>
      <point x="344.773" y="488.47" type="curve" smooth="yes"/>
      <point x="341.424" y="488.47"/>
      <point x="337.738" y="488.127"/>
      <point x="333.719" y="487.439" type="curve" smooth="yes"/>
      <point x="328.693" y="487.439" type="line" smooth="yes"/>
      <point x="283.159" y="485.106"/>
      <point x="236.676" y="483.478"/>
      <point x="195.001" y="479.207" type="curve"/>
      <point x="204.317" y="434.644"/>
      <point x="208.815" y="385.352"/>
      <point x="211.109" y="336.038" type="curve"/>
      <point x="280.453" y="336.038" type="line" smooth="yes"/>
      <point x="310.649" y="336.038"/>
      <point x="334.879" y="328.484"/>
      <point x="351.307" y="313.893" type="curve" smooth="yes"/>
      <point x="356.331" y="309.43"/>
      <point x="358.844" y="303.765"/>
      <point x="358.844" y="296.897" type="curve" smooth="yes"/>
      <point x="358.844" y="265.9"/>
      <point x="311.007" y="258.787"/>
      <point x="280.453" y="258.787" type="curve" smooth="yes"/>
      <point x="214.127" y="258.787" type="line"/>
      <point x="215.504" y="203.727"/>
      <point x="215.038" y="151.48"/>
      <point x="211.109" y="99.1357" type="curve"/>
      <point x="232.09" y="100.789"/>
      <point x="247.836" y="102.224"/>
    </contour>
  </outline>
</glyph>
<glyph name="Ecaron" format="1">
  <advance width="457"/>
  <unicode hex="011A"/>
  <outline>
    <contour>
      <point x="22" y="507" type="curve"/>
      <point x="22" y="507"/>
      <point x="0" y="564"/>
      <point x="86" y="571" type="curve" smooth="yes"/>
      <point x="172" y="578"/>
      <point x="322" y="584"/>
      <point x="322" y="584" type="curve"/>
      <point x="322" y="584"/>
      <point x="412" y="587"/>
      <point x="419" y="539" type="curve" smooth="yes"/>
      <point x="426" y="491"/>
      <point x="352" y="490"/>
      <point x="352" y="490" type="curve"/>
      <point x="192" y="481" type="line"/>
      <point x="192" y="481"/>
      <point x="204" y="433"/>
      <point x="206" y="410" type="curve" smooth="yes"/>
      <point x="208" y="387"/>
      <point x="211" y="337"/>
      <point x="211" y="337" type="curve"/>
      <point x="285" y="337" type="line"/>
      <point x="285" y="337"/>
      <point x="357" y="337"/>
      <point x="359" y="301" type="curve" smooth="yes"/>
      <point x="361" y="265"/>
      <point x="303" y="260"/>
      <point x="296" y="259" type="curve" smooth="yes"/>
      <point x="289" y="258"/>
      <point x="212" y="258"/>
      <point x="212" y="258" type="curve"/>
      <point x="212" y="258"/>
      <point x="215" y="204"/>
      <point x="214" y="177" type="curve" smooth="yes"/>
      <point x="213" y="150"/>
      <point x="210" y="100"/>
      <point x="210" y="100" type="curve"/>
      <point x="345" y="105" type="line"/>
      <point x="345" y="105"/>
      <point x="432" y="113"/>
      <point x="436" y="64" type="curve" smooth="yes"/>
      <point x="440" y="15"/>
      <point x="357" y="11"/>
      <point x="357" y="11" type="curve"/>
      <point x="141" y="0" type="line"/>
      <point x="141" y="0"/>
      <point x="38" y="-10"/>
      <point x="41" y="53" type="curve" smooth="yes"/>
      <point x="44" y="116"/>
      <point x="55" y="304"/>
    </contour>
    <contour>
      <point x="221.987" y="595.001" type="curve" smooth="yes"/>
      <point x="196.811" y="595.001"/>
      <point x="169.661" y="602.247"/>
      <point x="153.99" y="614.001" type="curve"/>
      <point x="153.99" y="615.001" type="line"/>
      <point x="110.919" y="650.471"/>
      <point x="69.0137" y="687.58"/>
      <point x="26.9922" y="724" type="curve" smooth="yes"/>
      <point x="19.3828" y="730.521"/>
      <point x="11.4512" y="740.931"/>
      <point x="18.9941" y="753" type="curve" smooth="yes"/>
      <point x="36.9629" y="788.943"/>
      <point x="132.883" y="790.107"/>
      <point x="160.992" y="761.998" type="curve"/>
      <point x="162.992" y="761.998" type="line"/>
      <point x="176.051" y="751.552"/>
      <point x="187.703" y="739.921"/>
      <point x="199.992" y="728.998" type="curve"/>
      <point x="210.752" y="746.485"/>
      <point x="221.229" y="761.511"/>
      <point x="231.99" y="778.999" type="curve" smooth="yes"/>
      <point x="255.159" y="813.753"/>
      <point x="341.228" y="814.203"/>
      <point x="373.989" y="787.997" type="curve" smooth="yes"/>
      <point x="381.866" y="782.371"/>
      <point x="389.384" y="770.831"/>
      <point x="381.989" y="758.999" type="curve" smooth="yes"/>
      <point x="338.989" y="690.999" type="line" smooth="yes"/>
      <point x="325.463" y="668.007"/>
      <point x="311.448" y="645.348"/>
      <point x="296.989" y="623.001" type="curve" smooth="yes"/>
      <point x="284.881" y="602.82"/>
      <point x="251.386" y="596.472"/>
    </contour>
  </outline>
</glyph>
<glyph name="ecaron" format="1">
  <advance width="481"/>
  <unicode hex="011B"/>
  <outline>
    <contour>
      <point x="170.947" y="209.52" type="curve"/>
      <point x="170.947" y="209.52"/>
      <point x="166.938" y="334.32"/>
      <point x="244.13" y="338.16" type="curve" smooth="yes"/>
      <point x="321.322" y="342"/>
      <point x="333.353" y="221.04"/>
    </contour>
    <contour>
      <point x="426.585" y="290.16" type="curve" smooth="yes"/>
      <point x="427.588" y="308.4"/>
      <point x="419.567" y="397.68"/>
      <point x="220.07" y="395.76" type="curve" smooth="yes"/>
      <point x="20.5723" y="393.84"/>
      <point x="12.5527" y="256.56"/>
      <point x="12.5527" y="208.56" type="curve" smooth="yes"/>
      <point x="12.5527" y="160.56"/>
      <point x="46.3604" y="-3.23145"/>
      <point x="242.125" y="0.240234" type="curve" smooth="yes"/>
      <point x="404.53" y="3.12012"/>
      <point x="442.625" y="64.5596"/>
      <point x="442.625" y="64.5596" type="curve"/>
      <point x="442.625" y="64.5596"/>
      <point x="493.771" y="130.8"/>
      <point x="384.48" y="130.8" type="curve" smooth="yes"/>
      <point x="311.298" y="130.8"/>
      <point x="279.218" y="97.2002"/>
      <point x="279.218" y="97.2002" type="curve"/>
      <point x="279.218" y="97.2002"/>
      <point x="204.411" y="31.6504"/>
      <point x="184.982" y="143.28" type="curve"/>
      <point x="184.982" y="143.28"/>
      <point x="417.78" y="129.958"/>
    </contour>
    <contour>
      <point x="158" y="449" type="line"/>
      <point x="115.058" y="484.364"/>
      <point x="74.1094" y="522.503"/>
      <point x="32.002" y="558.997" type="curve" smooth="yes"/>
      <point x="24.3643" y="565.543"/>
      <point x="16.4785" y="574.96"/>
      <point x="24.002" y="586.997" type="curve" smooth="yes"/>
      <point x="42.29" y="623.579"/>
      <point x="137.775" y="624.223"/>
      <point x="166" y="595.998" type="curve"/>
      <point x="167" y="595.998" type="line"/>
      <point x="179.993" y="585.604"/>
      <point x="192.77" y="573.869"/>
      <point x="205" y="562.998" type="curve"/>
      <point x="215.242" y="579.644"/>
      <point x="226.305" y="596.381"/>
      <point x="235.999" y="612.998" type="curve" smooth="yes"/>
      <point x="259.673" y="652.457"/>
      <point x="373.873" y="649.333"/>
      <point x="388.999" y="608.999" type="curve" smooth="yes"/>
      <point x="390.999" y="603.666"/>
      <point x="390.332" y="598.333"/>
      <point x="386.999" y="593" type="curve" smooth="yes"/>
      <point x="343.999" y="525" type="line" smooth="yes"/>
      <point x="330.193" y="501.532"/>
      <point x="316.365" y="480.51"/>
      <point x="301.999" y="457" type="curve" smooth="yes"/>
      <point x="290.118" y="437.197"/>
      <point x="257.044" y="430"/>
      <point x="226.998" y="430" type="curve" smooth="yes"/>
      <point x="201.545" y="430"/>
      <point x="174.764" y="435.698"/>
      <point x="160" y="448" type="curve"/>
    </contour>
  </outline>
</glyph>
<glyph name="Gbreve" format="1">
  <advance width="466"/>
  <unicode hex="011E"/>
  <outline>
    <contour>
      <point x="355" y="389" type="curve"/>
      <point x="355" y="389"/>
      <point x="455" y="386"/>
      <point x="421" y="479" type="curve" smooth="yes"/>
      <point x="387" y="572"/>
      <point x="260" y="585"/>
      <point x="227" y="582" type="curve" smooth="yes"/>
      <point x="194" y="579"/>
      <point x="18" y="581"/>
      <point x="24" y="322" type="curve" smooth="yes"/>
      <point x="30" y="63"/>
      <point x="123" y="0"/>
      <point x="229" y="0" type="curve" smooth="yes"/>
      <point x="335" y="0"/>
      <point x="447.885" y="39.0264"/>
      <point x="443" y="188" type="curve" smooth="yes"/>
      <point x="441" y="249"/>
      <point x="356" y="243"/>
      <point x="356" y="243" type="curve"/>
      <point x="269" y="243" type="line"/>
      <point x="269" y="243"/>
      <point x="235" y="246"/>
      <point x="235" y="207" type="curve" smooth="yes"/>
      <point x="235" y="168"/>
      <point x="282" y="179"/>
      <point x="282" y="179" type="curve"/>
      <point x="282" y="179"/>
      <point x="288" y="87"/>
      <point x="245" y="86" type="curve" smooth="yes"/>
      <point x="202" y="85"/>
      <point x="192" y="187"/>
      <point x="191" y="287" type="curve" smooth="yes"/>
      <point x="190" y="387"/>
      <point x="198" y="500"/>
      <point x="237" y="498" type="curve" smooth="yes"/>
      <point x="276" y="496"/>
      <point x="277" y="441"/>
      <point x="277" y="441" type="curve"/>
      <point x="277" y="441"/>
      <point x="276.861" y="395.512"/>
    </contour>
    <contour>
      <point x="168.002" y="739.999" type="curve" smooth="yes"/>
      <point x="168" y="739"/>
      <point x="180.995" y="650.993"/>
      <point x="237.002" y="650.999" type="curve"/>
      <point x="237.002" y="650.999"/>
      <point x="295.01" y="642.979"/>
      <point x="295.002" y="740" type="curve" smooth="yes"/>
      <point x="295" y="764"/>
      <point x="336.691" y="764"/>
      <point x="358.001" y="764" type="curve" smooth="yes"/>
      <point x="379.384" y="764"/>
      <point x="422" y="768"/>
      <point x="421.004" y="740" type="curve" smooth="yes"/>
      <point x="417.409" y="638.94"/>
      <point x="317.004" y="609"/>
      <point x="316" y="609" type="curve" smooth="yes"/>
      <point x="316" y="609"/>
      <point x="226.504" y="582.176"/>
      <point x="144" y="613" type="curve" smooth="yes"/>
      <point x="63.5303" y="643.064"/>
      <point x="42.1143" y="739.009"/>
      <point x="42.0039" y="739.999" type="curve" smooth="yes"/>
      <point x="40" y="758"/>
      <point x="83.6934" y="760.999"/>
      <point x="105.003" y="760.999" type="curve" smooth="yes"/>
      <point x="126.387" y="760.999"/>
      <point x="165.06" y="756.343"/>
    </contour>
  </outline>
</glyph>
<glyph name="gbreve" format="1">
  <advance width="506"/>
  <unicode hex="011F"/>
  <outline>
    <contour>
      <point x="296" y="341" type="curve"/>
      <point x="184" y="330"/>
      <point x="128" y="84"/>
      <point x="242" y="85" type="curve" smooth="yes"/>
      <point x="356" y="86"/>
      <point x="312.574" y="305.966"/>
      <point x="311" y="328" type="curve" smooth="yes"/>
      <point x="310" y="342"/>
      <point x="296" y="341"/>
    </contour>
    <contour>
      <point x="321" y="25" type="curve"/>
      <point x="321" y="25"/>
      <point x="273" y="0"/>
      <point x="214" y="0" type="curve" smooth="yes"/>
      <point x="155" y="0"/>
      <point x="19" y="24"/>
      <point x="23" y="183" type="curve" smooth="yes"/>
      <point x="27" y="342"/>
      <point x="176" y="409"/>
      <point x="278" y="414" type="curve" smooth="yes"/>
      <point x="380" y="419"/>
      <point x="434" y="366"/>
      <point x="435" y="344" type="curve" smooth="yes"/>
      <point x="436" y="322"/>
      <point x="479" y="178"/>
      <point x="481" y="40" type="curve" smooth="yes"/>
      <point x="483" y="-98"/>
      <point x="479" y="-213"/>
      <point x="318" y="-216" type="curve" smooth="yes"/>
      <point x="157" y="-219"/>
      <point x="70" y="-143"/>
      <point x="58" y="-115" type="curve" smooth="yes"/>
      <point x="46" y="-87"/>
      <point x="47" y="-55"/>
      <point x="117" y="-55" type="curve" smooth="yes"/>
      <point x="187" y="-55"/>
      <point x="197" y="-80"/>
      <point x="209" y="-89" type="curve" smooth="yes"/>
      <point x="221" y="-98"/>
      <point x="247" y="-129"/>
      <point x="277" y="-129" type="curve" smooth="yes"/>
      <point x="307" y="-129"/>
      <point x="326.201" y="-58.2227"/>
    </contour>
    <contour>
      <point x="208.002" y="569.999" type="curve" smooth="yes"/>
      <point x="208" y="569"/>
      <point x="220.995" y="480.993"/>
      <point x="277.002" y="480.999" type="curve"/>
      <point x="277.002" y="480.999"/>
      <point x="335.01" y="472.979"/>
      <point x="335.002" y="570" type="curve" smooth="yes"/>
      <point x="335" y="594"/>
      <point x="376.691" y="594"/>
      <point x="398.001" y="594" type="curve" smooth="yes"/>
      <point x="419.384" y="594"/>
      <point x="462" y="598"/>
      <point x="461.004" y="570" type="curve" smooth="yes"/>
      <point x="457.409" y="468.94"/>
      <point x="357.004" y="439"/>
      <point x="356" y="439" type="curve" smooth="yes"/>
      <point x="356" y="439"/>
      <point x="266.504" y="412.176"/>
      <point x="184" y="443" type="curve" smooth="yes"/>
      <point x="103.53" y="473.064"/>
      <point x="82.1143" y="569.009"/>
      <point x="82.0039" y="569.999" type="curve" smooth="yes"/>
      <point x="80" y="588"/>
      <point x="123.693" y="590.999"/>
      <point x="145.003" y="590.999" type="curve" smooth="yes"/>
      <point x="166.387" y="590.999"/>
      <point x="205.06" y="586.343"/>
    </contour>
  </outline>
</glyph>
<glyph name="hbar" format="1">
  <advance width="515"/>
  <unicode hex="0127"/>
  <outline>
    <contour>
      <point x="229.997" y="405.002" type="line"/>
      <point x="249.994" y="412.501"/>
      <point x="270.733" y="415.007"/>
      <point x="296.999" y="415.007" type="curve" smooth="yes"/>
      <point x="379.31" y="419.341"/>
      <point x="453.652" y="398.216"/>
      <point x="472.001" y="334.005" type="curve" smooth="yes"/>
      <point x="486.655" y="292.971"/>
      <point x="488.986" y="238.235"/>
      <point x="492.001" y="187.006" type="curve" smooth="yes"/>
      <point x="493.313" y="164.711"/>
      <point x="492.001" y="139.644"/>
      <point x="492.001" y="117.006" type="curve" smooth="yes"/>
      <point x="492.001" y="93.9336"/>
      <point x="493.004" y="69.3838"/>
      <point x="493.004" y="46.0137" type="curve" smooth="yes"/>
      <point x="493.004" y="3.71094"/>
      <point x="425.992" y="-7.25"/>
      <point x="382.004" y="3.01465" type="curve" smooth="yes"/>
      <point x="355.667" y="12.5928"/>
      <point x="348.003" y="33.5176"/>
      <point x="348.003" y="69.0146" type="curve" smooth="yes"/>
      <point x="348.003" y="127.375"/>
      <point x="343.009" y="197.35"/>
      <point x="337.502" y="253.513" type="curve" smooth="yes"/>
      <point x="334.931" y="279.731"/>
      <point x="335.45" y="325.961"/>
      <point x="315.002" y="327.011" type="curve" smooth="yes"/>
      <point x="305.803" y="327.483"/>
      <point x="302.136" y="326.434"/>
      <point x="296.002" y="325.003" type="curve" smooth="yes"/>
      <point x="286.479" y="322.781"/>
      <point x="282.118" y="319.428"/>
      <point x="276.003" y="315.003" type="curve" smooth="yes"/>
      <point x="265.396" y="307.329"/>
      <point x="258.503" y="295.508"/>
      <point x="253.001" y="283.003" type="curve" smooth="yes"/>
      <point x="245.668" y="266.336"/>
      <point x="241.001" y="248.669"/>
      <point x="239.001" y="230.002" type="curve" smooth="yes"/>
      <point x="239.001" y="213.143"/>
      <point x="238.001" y="201.728"/>
      <point x="238.001" y="190.01" type="curve" smooth="yes"/>
      <point x="238.001" y="189.787"/>
      <point x="237.992" y="189.453"/>
      <point x="238.001" y="189.009" type="curve" smooth="yes"/>
      <point x="240.001" y="87.0088" type="line" smooth="yes"/>
      <point x="242.082" y="63.0713"/>
      <point x="241.508" y="30.8652"/>
      <point x="225.997" y="20.0068" type="curve" smooth="yes"/>
      <point x="192.908" y="-6.4707"/>
      <point x="114.843" y="-4.83691"/>
      <point x="86.001" y="24.0049" type="curve" smooth="yes"/>
      <point x="82.001" y="28.0049"/>
      <point x="79.334" y="32.3379"/>
      <point x="78.001" y="37.0049" type="curve"/>
      <point x="70.1211" y="37.0049"/>
      <point x="66.999" y="306.35"/>
      <point x="66.999" y="337.004" type="curve" smooth="yes"/>
      <point x="66.999" y="348.004" type="line"/>
      <point x="63.5107" y="472.254" type="line"/>
      <point x="49.1748" y="475.857"/>
      <point x="36.9277" y="481.572"/>
      <point x="27.5029" y="490.997" type="curve" smooth="yes"/>
      <point x="22.1699" y="496.33"/>
      <point x="19.6699" y="501.997"/>
      <point x="20.0029" y="507.997" type="curve" smooth="yes"/>
      <point x="18.9648" y="526.698"/>
      <point x="43.5742" y="537.775"/>
      <point x="57.502" y="542.999" type="curve" smooth="yes"/>
      <point x="58.8447" y="543.496"/>
      <point x="60.1855" y="543.975"/>
      <point x="61.5244" y="544.436" type="curve" smooth="yes"/>
      <point x="61.5098" y="545.552"/>
      <point x="61.501" y="546.59"/>
      <point x="61.501" y="547.502" type="curve" smooth="yes"/>
      <point x="61.501" y="552.502"/>
      <point x="61.3477" y="557.798"/>
      <point x="61.001" y="563.002" type="curve" smooth="yes"/>
      <point x="60.001" y="578.002" type="line" smooth="yes"/>
      <point x="59.5586" y="584.639"/>
      <point x="59.0586" y="591.401"/>
      <point x="60.001" y="598.001" type="curve" smooth="yes"/>
      <point x="61.6904" y="609.832"/>
      <point x="68.3262" y="620.219"/>
      <point x="78.999" y="623.999" type="curve" smooth="yes"/>
      <point x="127" y="640.999"/>
      <point x="163" y="639.998"/>
      <point x="211" y="615.998" type="curve" smooth="yes"/>
      <point x="218.605" y="608.393"/>
      <point x="221" y="601.865"/>
      <point x="221" y="588.998" type="curve" smooth="yes"/>
      <point x="221" y="580.401"/>
      <point x="221.889" y="568.152"/>
      <point x="222.48" y="556.801" type="curve"/>
      <point x="302.502" y="558.999" type="line" smooth="yes"/>
      <point x="335.109" y="561.174"/>
      <point x="368.734" y="553.459"/>
      <point x="383.5" y="535" type="curve" smooth="yes"/>
      <point x="406.455" y="510.611"/>
      <point x="371.917" y="488.103"/>
      <point x="355.502" y="483.998" type="curve" smooth="yes"/>
      <point x="323.358" y="475.962"/>
      <point x="287.387" y="468.998"/>
      <point x="246.502" y="468.998" type="curve" smooth="yes"/>
      <point x="229.502" y="468.998" type="line"/>
      <point x="223.575" y="468.9" type="line"/>
      <point x="224.003" y="454.258"/>
      <point x="224.738" y="439.844"/>
      <point x="225.997" y="426.002" type="curve" smooth="yes"/>
      <point x="226.664" y="418.669"/>
      <point x="226.997" y="411.669"/>
      <point x="226.997" y="405.002" type="curve"/>
    </contour>
  </outline>
</glyph>
<glyph name="Itilde" format="1">
  <advance width="407"/>
  <unicode hex="0128"/>
  <outline>
    <contour>
      <point x="102" y="45.8125" type="curve"/>
      <point x="102" y="45.8125"/>
      <point x="97" y="-2.66797"/>
      <point x="185" y="-2.66797" type="curve" smooth="yes"/>
      <point x="273" y="-2.66797"/>
      <point x="265" y="61.9727"/>
      <point x="265" y="61.9727" type="curve"/>
      <point x="265" y="61.9727"/>
      <point x="253" y="259.697"/>
      <point x="268" y="448.867" type="curve" smooth="yes"/>
      <point x="270.967" y="486.286"/>
      <point x="275" y="504.953"/>
      <point x="257.54" y="530.619" type="curve" smooth="yes"/>
      <point x="245" y="548.681"/>
      <point x="197" y="550.581"/>
      <point x="197" y="550.581" type="curve"/>
      <point x="197" y="550.581"/>
      <point x="114" y="554.384"/>
      <point x="106" y="493.545" type="curve" smooth="yes"/>
      <point x="98" y="432.707"/>
      <point x="92.5791" y="153.273"/>
    </contour>
    <contour>
      <point x="386.995" y="714.997" type="curve" smooth="yes"/>
      <point x="385.911" y="712.83"/>
      <point x="384.998" y="708.088"/>
      <point x="384.998" y="704.997" type="curve" smooth="yes"/>
      <point x="382.377" y="698.444"/>
      <point x="379.929" y="690.237"/>
      <point x="375.998" y="684.996" type="curve" smooth="yes"/>
      <point x="351.513" y="636.019"/>
      <point x="318.419" y="600.999"/>
      <point x="243.999" y="600.999" type="curve"/>
      <point x="215.999" y="602.999" type="line" smooth="yes"/>
      <point x="200.195" y="604.129"/>
      <point x="184.979" y="610.012"/>
      <point x="172.999" y="615.999" type="curve"/>
      <point x="170.423" y="603.128"/>
      <point x="160.327" y="600.22"/>
      <point x="150.996" y="594.001" type="curve" smooth="yes"/>
      <point x="135.586" y="585.703"/>
      <point x="117.945" y="583.001"/>
      <point x="95.9971" y="583.001" type="curve" smooth="yes"/>
      <point x="74.6553" y="583.001"/>
      <point x="55.3105" y="585.65"/>
      <point x="40.9971" y="594.001" type="curve" smooth="yes"/>
      <point x="34.3516" y="596.77"/>
      <point x="18.9971" y="604.375"/>
      <point x="18.9971" y="614.999" type="curve" smooth="yes"/>
      <point x="18.9971" y="616.332"/>
      <point x="18.6641" y="617.999"/>
      <point x="17.9971" y="619.999" type="curve" smooth="yes"/>
      <point x="18.6641" y="624.666"/>
      <point x="19.6641" y="629.333"/>
      <point x="20.9971" y="634" type="curve" smooth="yes"/>
      <point x="24.9971" y="648" type="line" smooth="yes"/>
      <point x="33.9688" y="671.923"/>
      <point x="45.0879" y="694.604"/>
      <point x="66.498" y="706.501" type="curve" smooth="yes"/>
      <point x="71.2783" y="709.157"/>
      <point x="75.6445" y="713.216"/>
      <point x="80.998" y="715.001" type="curve" smooth="yes"/>
      <point x="100.743" y="721.581"/>
      <point x="120.803" y="728.002"/>
      <point x="147.998" y="728.002" type="curve" smooth="yes"/>
      <point x="175.998" y="726.002" type="line" smooth="yes"/>
      <point x="193.947" y="724.719"/>
      <point x="213.012" y="717.793"/>
      <point x="225.997" y="710.001" type="curve" smooth="yes"/>
      <point x="226.664" y="710.001"/>
      <point x="227.331" y="709.668"/>
      <point x="227.998" y="709.001" type="curve"/>
      <point x="229.998" y="713.668"/>
      <point x="231.998" y="719.001"/>
      <point x="233.998" y="725.001" type="curve" smooth="yes"/>
      <point x="257.374" y="760.067"/>
      <point x="343.136" y="760.288"/>
      <point x="376" y="734" type="curve" smooth="yes"/>
      <point x="382.667" y="729.333"/>
      <point x="386.328" y="722.997"/>
    </contour>
  </outline>
</glyph>
<glyph name="Ibreve" format="1">
  <advance width="421"/>
  <unicode hex="012C"/>
  <outline>
    <contour>
      <point x="122" y="45.8125" type="curve"/>
      <point x="122" y="45.8125"/>
      <point x="117" y="-2.66797"/>
      <point x="205" y="-2.66797" type="curve" smooth="yes"/>
      <point x="293" y="-2.66797"/>
      <point x="285" y="61.9727"/>
      <point x="285" y="61.9727" type="curve"/>
      <point x="285" y="61.9727"/>
      <point x="273" y="259.697"/>
      <point x="288" y="448.867" type="curve" smooth="yes"/>
      <point x="290.967" y="486.286"/>
      <point x="295" y="504.953"/>
      <point x="277.54" y="530.619" type="curve" smooth="yes"/>
      <point x="265" y="548.681"/>
      <point x="217" y="550.581"/>
      <point x="217" y="550.581" type="curve"/>
      <point x="217" y="550.581"/>
      <point x="134" y="554.384"/>
      <point x="126" y="493.545" type="curve" smooth="yes"/>
      <point x="118" y="432.707"/>
      <point x="112.579" y="153.273"/>
    </contour>
    <contour>
      <point x="148.002" y="739.999" type="curve" smooth="yes"/>
      <point x="148" y="739"/>
      <point x="160.995" y="650.993"/>
      <point x="217.002" y="650.999" type="curve"/>
      <point x="217.002" y="650.999"/>
      <point x="275.01" y="642.979"/>
      <point x="275.002" y="740" type="curve" smooth="yes"/>
      <point x="275" y="764"/>
      <point x="316.691" y="764"/>
      <point x="338.001" y="764" type="curve" smooth="yes"/>
      <point x="359.384" y="764"/>
      <point x="402" y="768"/>
      <point x="401.004" y="740" type="curve" smooth="yes"/>
      <point x="397.409" y="638.94"/>
      <point x="297.004" y="609"/>
      <point x="296" y="609" type="curve" smooth="yes"/>
      <point x="296" y="609"/>
      <point x="206.504" y="582.176"/>
      <point x="124" y="613" type="curve" smooth="yes"/>
      <point x="43.5303" y="643.064"/>
      <point x="22.1143" y="739.009"/>
      <point x="22.0039" y="739.999" type="curve" smooth="yes"/>
      <point x="20" y="758"/>
      <point x="63.6934" y="760.999"/>
      <point x="85.0029" y="760.999" type="curve" smooth="yes"/>
      <point x="106.387" y="760.999"/>
      <point x="145.06" y="756.343"/>
    </contour>
  </outline>
</glyph>
<glyph name="Iogonek" format="1">
  <advance width="225"/>
  <unicode hex="012E"/>
  <outline>
    <contour>
      <point x="200.068" y="519.415" type="curve" smooth="yes"/>
      <point x="189.938" y="443.394"/>
      <point x="187.303" y="355.996"/>
      <point x="187.303" y="272.967" type="curve" smooth="yes"/>
      <point x="187.303" y="196.516"/>
      <point x="190.059" y="122.18"/>
      <point x="195.162" y="49.6943" type="curve" smooth="yes"/>
      <point x="196.273" y="36.5938"/>
      <point x="186.038" y="25.8516"/>
      <point x="177.127" y="18.9316" type="curve"/>
      <point x="179.079" y="16.9023"/>
      <point x="180.425" y="14.6025"/>
      <point x="181.003" y="12.001" type="curve" smooth="yes"/>
      <point x="183.495" y="-7.94531"/>
      <point x="182.43" y="-35.6807"/>
      <point x="170.001" y="-45.001" type="curve" smooth="yes"/>
      <point x="162.529" y="-53.5391"/>
      <point x="145.172" y="-61.8799"/>
      <point x="128.001" y="-65.001" type="curve" smooth="yes"/>
      <point x="126.001" y="-65.001" type="line"/>
      <point x="122.554" y="-70.1738"/>
      <point x="121.051" y="-76.6562"/>
      <point x="120.001" y="-84.001" type="curve" smooth="yes"/>
      <point x="120.001" y="-87.6514"/>
      <point x="117.852" y="-92.4053"/>
      <point x="119.001" y="-97.002" type="curve" smooth="yes"/>
      <point x="119.668" y="-97.6689"/>
      <point x="120.001" y="-98.3359"/>
      <point x="120.001" y="-99.0029" type="curve" smooth="yes"/>
      <point x="136.001" y="-99.0029" type="line" smooth="yes"/>
      <point x="155.075" y="-98.208"/>
      <point x="199.001" y="-103.106"/>
      <point x="199.001" y="-120.003" type="curve" smooth="yes"/>
      <point x="199.001" y="-136.941"/>
      <point x="160.222" y="-140.387"/>
      <point x="136.001" y="-142.001" type="curve" smooth="yes"/>
      <point x="111.002" y="-142.001" type="line" smooth="yes"/>
      <point x="97.6689" y="-141.334"/>
      <point x="89.002" y="-140.667"/>
      <point x="85.002" y="-140" type="curve" smooth="yes"/>
      <point x="54.6475" y="-140"/>
      <point x="20.2734" y="-127.454"/>
      <point x="1.00195" y="-113" type="curve" smooth="yes"/>
      <point x="-4.18359" y="-109.544"/>
      <point x="-7.99805" y="-98.709"/>
      <point x="-7.99805" y="-93" type="curve" smooth="yes"/>
      <point x="-7.99805" y="-90.333"/>
      <point x="-7.3291" y="-87.334"/>
      <point x="-5.99609" y="-84.001" type="curve" smooth="yes"/>
      <point x="-5.99609" y="-51.2363"/>
      <point x="18.6289" y="-37.1299"/>
      <point x="50.0039" y="-30" type="curve"/>
      <point x="52.0039" y="-29" type="line" smooth="yes"/>
      <point x="52.6709" y="-28.333"/>
      <point x="53.0039" y="-27.666"/>
      <point x="53.0039" y="-26.999" type="curve" smooth="yes"/>
      <point x="56.3369" y="-15.666"/>
      <point x="57.0039" y="-2.66602"/>
      <point x="55.0039" y="12.001" type="curve" smooth="yes"/>
      <point x="55.0039" y="12.293"/>
      <point x="55.1396" y="12.7637"/>
      <point x="55.3398" y="13.3203" type="curve" smooth="yes"/>
      <point x="41.291" y="21.3145"/>
      <point x="31.375" y="33.2129"/>
      <point x="30.0928" y="49.6953" type="curve" smooth="yes"/>
      <point x="21.3584" y="190.184"/>
      <point x="18.7432" y="349.848"/>
      <point x="32.0576" y="487.823" type="curve" smooth="yes"/>
      <point x="33.4043" y="502.253"/>
      <point x="34.4521" y="517.495"/>
      <point x="36.9707" y="531.001" type="curve" smooth="yes"/>
      <point x="37.8408" y="544.048"/>
      <point x="44.0137" y="554.274"/>
      <point x="54.166" y="560.49" type="curve" smooth="yes"/>
      <point x="72.8467" y="571.936"/>
      <point x="90.0918" y="580.501"/>
      <point x="119.504" y="580.501" type="curve" smooth="yes"/>
      <point x="155.866" y="580.501"/>
      <point x="185.942" y="568.298"/>
      <point x="199.088" y="543.639" type="curve" smooth="yes"/>
      <point x="200.407" y="539.396"/>
      <point x="200.715" y="535.243"/>
      <point x="202.034" y="531.001" type="curve" smooth="yes"/>
      <point x="201.378" y="528.895"/>
      <point x="201.051" y="526.964"/>
      <point x="201.051" y="525.208" type="curve" smooth="yes"/>
      <point x="201.051" y="523.452"/>
      <point x="200.724" y="521.521"/>
    </contour>
  </outline>
</glyph>
<glyph name="iogonek" format="1">
  <advance width="268"/>
  <unicode hex="012F"/>
  <outline>
    <contour>
      <point x="235.999" y="71" type="curve" smooth="yes"/>
      <point x="235.999" y="60.458"/>
      <point x="237.407" y="52.8545"/>
      <point x="235.999" y="43.002" type="curve" smooth="yes"/>
      <point x="235.999" y="34.7734"/>
      <point x="231.425" y="26.9824"/>
      <point x="224.941" y="20.9033" type="curve"/>
      <point x="228.079" y="18.4268"/>
      <point x="230.229" y="15.4844"/>
      <point x="231.002" y="12.002" type="curve" smooth="yes"/>
      <point x="233.494" y="-7.94434"/>
      <point x="232.429" y="-35.6797"/>
      <point x="220" y="-45" type="curve" smooth="yes"/>
      <point x="212.528" y="-53.5381"/>
      <point x="195.171" y="-61.8789"/>
      <point x="178" y="-65" type="curve" smooth="yes"/>
      <point x="176" y="-65" type="line"/>
      <point x="172.553" y="-70.1729"/>
      <point x="171.05" y="-76.6553"/>
      <point x="170" y="-84" type="curve" smooth="yes"/>
      <point x="170" y="-87.6504"/>
      <point x="167.851" y="-92.4043"/>
      <point x="169" y="-97.001" type="curve" smooth="yes"/>
      <point x="169.667" y="-97.668"/>
      <point x="170" y="-98.335"/>
      <point x="170" y="-99.002" type="curve" smooth="yes"/>
      <point x="186" y="-99.002" type="line" smooth="yes"/>
      <point x="205.074" y="-98.207"/>
      <point x="249" y="-103.105"/>
      <point x="249" y="-120.002" type="curve" smooth="yes"/>
      <point x="249" y="-136.94"/>
      <point x="210.221" y="-140.386"/>
      <point x="186" y="-142" type="curve" smooth="yes"/>
      <point x="161.001" y="-142" type="line" smooth="yes"/>
      <point x="147.668" y="-141.333"/>
      <point x="139.001" y="-140.666"/>
      <point x="135.001" y="-139.999" type="curve" smooth="yes"/>
      <point x="104.646" y="-139.999"/>
      <point x="70.2705" y="-127.453"/>
      <point x="50.999" y="-112.999" type="curve" smooth="yes"/>
      <point x="45.8135" y="-109.543"/>
      <point x="41.999" y="-98.708"/>
      <point x="41.999" y="-92.999" type="curve" smooth="yes"/>
      <point x="41.999" y="-90.332"/>
      <point x="42.6699" y="-87.333"/>
      <point x="44.0029" y="-84" type="curve" smooth="yes"/>
      <point x="44.0029" y="-51.2354"/>
      <point x="68.6279" y="-37.1289"/>
      <point x="100.003" y="-29.999" type="curve"/>
      <point x="102.003" y="-28.999" type="line" smooth="yes"/>
      <point x="102.67" y="-28.332"/>
      <point x="103.003" y="-27.665"/>
      <point x="103.003" y="-26.998" type="curve" smooth="yes"/>
      <point x="106.224" y="-16.0469"/>
      <point x="106.955" y="-3.53906"/>
      <point x="105.196" y="10.5244" type="curve"/>
      <point x="97.4033" y="13.8135"/>
      <point x="90.5254" y="17.9795"/>
      <point x="84.999" y="23.0039" type="curve" smooth="yes"/>
      <point x="78.999" y="29.0039"/>
      <point x="75.999" y="36.3369"/>
      <point x="75.999" y="45.0039" type="curve" smooth="yes"/>
      <point x="75.999" y="103.612"/>
      <point x="67.3691" y="154.333"/>
      <point x="61.499" y="209.504" type="curve" smooth="yes"/>
      <point x="58.3652" y="238.959"/>
      <point x="53.9219" y="267.786"/>
      <point x="50.999" y="297.004" type="curve" smooth="yes"/>
      <point x="50.0186" y="304.841"/>
      <point x="45.7188" y="308.044"/>
      <point x="41.999" y="313.004" type="curve" smooth="yes"/>
      <point x="38.666" y="318.337"/>
      <point x="36.999" y="323.67"/>
      <point x="36.999" y="329.003" type="curve" smooth="yes"/>
      <point x="36.999" y="343.421"/>
      <point x="54.7051" y="352.854"/>
      <point x="65" y="358.002" type="curve" smooth="yes"/>
      <point x="96.873" y="370.751"/>
      <point x="141.068" y="369.971"/>
      <point x="171.001" y="356.001" type="curve" smooth="yes"/>
      <point x="195.668" y="345.334"/>
      <point x="209.335" y="326.334"/>
      <point x="212.002" y="299.001" type="curve" smooth="yes"/>
      <point x="215.672" y="262.32"/>
      <point x="220.902" y="226.889"/>
      <point x="225" y="190.001" type="curve" smooth="yes"/>
      <point x="233" y="114.001" type="line" smooth="yes"/>
      <point x="234.206" y="99.5312"/>
      <point x="234.507" y="84.4219"/>
    </contour>
  </outline>
</glyph>
<glyph name="jcircumflex" format="1">
  <advance width="408"/>
  <unicode hex="0135"/>
  <outline>
    <contour>
      <point x="242" y="346" type="curve"/>
      <point x="242" y="346"/>
      <point x="325" y="345"/>
      <point x="334" y="272" type="curve" smooth="yes"/>
      <point x="343.696" y="193.349"/>
      <point x="458.856" y="-231.462"/>
      <point x="218" y="-243" type="curve" smooth="yes"/>
      <point x="51" y="-251"/>
      <point x="24" y="-154"/>
      <point x="24" y="-154" type="curve"/>
      <point x="24" y="-154"/>
      <point x="-5" y="-94"/>
      <point x="84" y="-103" type="curve" smooth="yes"/>
      <point x="173" y="-112"/>
      <point x="172" y="-154"/>
      <point x="172" y="-154" type="curve"/>
      <point x="172" y="-154"/>
      <point x="185" y="-179"/>
      <point x="195" y="-149" type="curve" smooth="yes"/>
      <point x="205" y="-119"/>
      <point x="234.014" y="37.126"/>
      <point x="182" y="257" type="curve" smooth="yes"/>
      <point x="160" y="350"/>
      <point x="242" y="346"/>
    </contour>
    <contour>
      <point x="232" y="391" type="curve"/>
      <point x="232" y="391"/>
      <point x="302.07" y="384.821"/>
      <point x="307" y="454" type="curve" smooth="yes"/>
      <point x="312.196" y="526.923"/>
      <point x="242" y="537"/>
      <point x="225" y="535" type="curve" smooth="yes"/>
      <point x="208" y="533"/>
      <point x="139" y="542"/>
      <point x="142" y="463" type="curve" smooth="yes"/>
      <point x="145" y="384"/>
      <point x="232" y="391"/>
    </contour>
    <contour>
      <point x="90" y="538" type="curve"/>
      <point x="90" y="538"/>
      <point x="156" y="532"/>
      <point x="176" y="564" type="curve" smooth="yes"/>
      <point x="196" y="596"/>
      <point x="206" y="616"/>
      <point x="206" y="616" type="curve"/>
      <point x="247" y="580" type="line"/>
      <point x="247" y="580"/>
      <point x="266" y="559"/>
      <point x="326" y="564" type="curve" smooth="yes"/>
      <point x="386" y="569"/>
      <point x="402" y="602"/>
      <point x="383" y="618" type="curve" smooth="yes"/>
      <point x="364" y="634"/>
      <point x="245" y="734"/>
      <point x="245" y="734" type="curve"/>
      <point x="245" y="734"/>
      <point x="224" y="752"/>
      <point x="182" y="749" type="curve" smooth="yes"/>
      <point x="140" y="746"/>
      <point x="120" y="738"/>
      <point x="110" y="722" type="curve" smooth="yes"/>
      <point x="100" y="706"/>
      <point x="26" y="586"/>
      <point x="25" y="586" type="curve" smooth="yes"/>
      <point x="24" y="586"/>
      <point x="-3.05957" y="537"/>
    </contour>
  </outline>
</glyph>
<glyph name="uni0136" format="1">
  <advance width="510"/>
  <unicode hex="0136"/>
  <outline>
    <contour>
      <point x="79" y="54" type="curve"/>
      <point x="24" y="523" type="line"/>
      <point x="24" y="523"/>
      <point x="5" y="573"/>
      <point x="95" y="582" type="curve" smooth="yes"/>
      <point x="185" y="591"/>
      <point x="185" y="525"/>
      <point x="185" y="525" type="curve"/>
      <point x="201" y="372" type="line"/>
      <point x="294" y="543" type="line"/>
      <point x="294" y="543"/>
      <point x="315" y="587"/>
      <point x="384" y="573" type="curve" smooth="yes"/>
      <point x="453" y="559"/>
      <point x="448" y="527"/>
      <point x="432" y="501" type="curve" smooth="yes"/>
      <point x="416" y="475"/>
      <point x="305" y="306"/>
      <point x="305" y="306" type="curve"/>
      <point x="477" y="94" type="line"/>
      <point x="477" y="94"/>
      <point x="531.29" y="32.1357"/>
      <point x="421" y="28" type="curve" smooth="yes"/>
      <point x="341" y="25"/>
      <point x="312" y="79"/>
      <point x="312" y="79" type="curve"/>
      <point x="228" y="205" type="line"/>
      <point x="243" y="52" type="line"/>
      <point x="243" y="52"/>
      <point x="254" y="0"/>
      <point x="165" y="0" type="curve" smooth="yes"/>
      <point x="76" y="0"/>
      <point x="79" y="54"/>
    </contour>
    <contour>
      <point x="218" y="-204" type="curve"/>
      <point x="218" y="-204"/>
      <point x="286" y="-207"/>
      <point x="308" y="-170" type="curve" smooth="yes"/>
      <point x="330" y="-133"/>
      <point x="366" y="-74"/>
      <point x="366" y="-74" type="curve"/>
      <point x="366" y="-74"/>
      <point x="388" y="-45"/>
      <point x="330" y="-28" type="curve" smooth="yes"/>
      <point x="272" y="-11"/>
      <point x="227" y="-31"/>
      <point x="218" y="-46" type="curve" smooth="yes"/>
      <point x="209" y="-61"/>
      <point x="154" y="-154"/>
      <point x="154" y="-154" type="curve"/>
      <point x="154" y="-154"/>
      <point x="123.995" y="-204"/>
    </contour>
  </outline>
</glyph>
<glyph name="uni0137" format="1">
  <advance width="521"/>
  <unicode hex="0137"/>
  <outline>
    <contour>
      <point x="72" y="53" type="curve"/>
      <point x="72" y="53"/>
      <point x="54" y="239"/>
      <point x="27" y="318" type="curve" smooth="yes"/>
      <point x="0" y="397"/>
      <point x="85" y="392"/>
      <point x="85" y="392" type="curve"/>
      <point x="85" y="392"/>
      <point x="176" y="403"/>
      <point x="187" y="335" type="curve" smooth="yes"/>
      <point x="198" y="267"/>
      <point x="198" y="288"/>
      <point x="198" y="288" type="curve"/>
      <point x="311" y="391" type="line"/>
      <point x="311" y="391"/>
      <point x="343" y="429"/>
      <point x="426" y="405" type="curve" smooth="yes"/>
      <point x="484.528" y="388.076"/>
      <point x="454" y="353"/>
      <point x="444" y="344" type="curve" smooth="yes"/>
      <point x="434" y="335"/>
      <point x="304" y="209"/>
      <point x="304" y="209" type="curve"/>
      <point x="465" y="97" type="line"/>
      <point x="465" y="97"/>
      <point x="536" y="50"/>
      <point x="470" y="19" type="curve" smooth="yes"/>
      <point x="404" y="-12"/>
      <point x="339" y="46"/>
      <point x="339" y="46" type="curve"/>
      <point x="225" y="125" type="line"/>
      <point x="232" y="43" type="line"/>
      <point x="232" y="43"/>
      <point x="236" y="0"/>
      <point x="158" y="0" type="curve" smooth="yes"/>
      <point x="80" y="0"/>
      <point x="72" y="53"/>
    </contour>
    <contour>
      <point x="220" y="-196" type="curve"/>
      <point x="220" y="-196"/>
      <point x="288" y="-199"/>
      <point x="310" y="-162" type="curve" smooth="yes"/>
      <point x="332" y="-125"/>
      <point x="368" y="-66"/>
      <point x="368" y="-66" type="curve"/>
      <point x="368" y="-66"/>
      <point x="390" y="-37"/>
      <point x="332" y="-20" type="curve" smooth="yes"/>
      <point x="274" y="-3"/>
      <point x="229" y="-23"/>
      <point x="220" y="-38" type="curve" smooth="yes"/>
      <point x="211" y="-53"/>
      <point x="156" y="-146"/>
      <point x="156" y="-146" type="curve"/>
      <point x="156" y="-146"/>
      <point x="125.995" y="-196"/>
    </contour>
  </outline>
</glyph>
<glyph name="Ldot" format="1">
  <advance width="508"/>
  <unicode hex="013F"/>
  <outline>
    <contour>
      <point x="242" y="140" type="curve"/>
      <point x="244" y="140"/>
      <point x="410" y="144"/>
      <point x="410" y="144" type="curve"/>
      <point x="410" y="144"/>
      <point x="483" y="152"/>
      <point x="486" y="92" type="curve" smooth="yes"/>
      <point x="489" y="32"/>
      <point x="394" y="34"/>
      <point x="394" y="34" type="curve"/>
      <point x="394" y="34"/>
      <point x="270" y="26"/>
      <point x="173" y="0" type="curve" smooth="yes"/>
      <point x="76" y="-26"/>
      <point x="54" y="25"/>
      <point x="53" y="34" type="curve" smooth="yes"/>
      <point x="52" y="43"/>
      <point x="57" y="61"/>
      <point x="76" y="66" type="curve" smooth="yes"/>
      <point x="95" y="71"/>
      <point x="52" y="432"/>
      <point x="26" y="508" type="curve" smooth="yes"/>
      <point x="0" y="584"/>
      <point x="86" y="588"/>
      <point x="86" y="588" type="curve"/>
      <point x="86" y="588"/>
      <point x="172" y="608"/>
      <point x="190" y="526" type="curve" smooth="yes"/>
      <point x="208" y="444"/>
      <point x="244" y="320"/>
    </contour>
    <contour>
      <point x="344" y="332.501" type="curve" smooth="yes"/>
      <point x="308.547" y="331.995"/>
      <point x="259" y="345.766"/>
      <point x="259" y="377" type="curve" smooth="yes"/>
      <point x="259" y="408.408"/>
      <point x="307.883" y="423.996"/>
      <point x="342.5" y="425" type="curve" smooth="yes"/>
      <point x="377.801" y="426.023"/>
      <point x="427" y="411.182"/>
      <point x="427" y="380" type="curve" smooth="yes"/>
      <point x="427" y="348.45"/>
      <point x="379.361" y="333.006"/>
    </contour>
  </outline>
</glyph>
<glyph name="ncaron" format="1">
  <advance width="472"/>
  <unicode hex="0148"/>
  <outline>
    <contour>
      <point x="136" y="0" type="curve" smooth="yes"/>
      <point x="135" y="0"/>
      <point x="53" y="-7"/>
      <point x="49" y="55" type="curve" smooth="yes"/>
      <point x="45" y="117"/>
      <point x="25" y="350"/>
      <point x="25" y="350" type="curve"/>
      <point x="25" y="350"/>
      <point x="22" y="405"/>
      <point x="103" y="408" type="curve" smooth="yes"/>
      <point x="184" y="411"/>
      <point x="185" y="361"/>
      <point x="185" y="361" type="curve"/>
      <point x="185" y="361"/>
      <point x="247.073" y="398.282"/>
      <point x="314" y="402" type="curve" smooth="yes"/>
      <point x="332" y="403"/>
      <point x="437" y="416"/>
      <point x="444" y="228" type="curve" smooth="yes"/>
      <point x="451" y="40"/>
      <point x="464" y="0"/>
      <point x="377" y="0" type="curve" smooth="yes"/>
      <point x="312" y="0"/>
      <point x="306" y="32"/>
      <point x="307" y="53" type="curve" smooth="yes"/>
      <point x="308" y="74"/>
      <point x="329" y="294"/>
      <point x="283" y="290" type="curve" smooth="yes"/>
      <point x="237" y="286"/>
      <point x="203" y="216"/>
      <point x="203" y="216" type="curve"/>
      <point x="213" y="65" type="line"/>
      <point x="213" y="65"/>
      <point x="222" y="0"/>
    </contour>
    <contour>
      <point x="168.002" y="549.999" type="curve" smooth="yes"/>
      <point x="168" y="549"/>
      <point x="180.995" y="460.993"/>
      <point x="237.002" y="460.999" type="curve"/>
      <point x="237.002" y="460.999"/>
      <point x="295.01" y="452.979"/>
      <point x="295.002" y="550" type="curve" smooth="yes"/>
      <point x="295" y="574"/>
      <point x="336.691" y="574"/>
      <point x="358.001" y="574" type="curve" smooth="yes"/>
      <point x="379.384" y="574"/>
      <point x="422" y="578"/>
      <point x="421.004" y="550" type="curve" smooth="yes"/>
      <point x="417.409" y="448.94"/>
      <point x="317.004" y="419"/>
      <point x="316" y="419" type="curve" smooth="yes"/>
      <point x="316" y="419"/>
      <point x="226.504" y="392.176"/>
      <point x="144" y="423" type="curve" smooth="yes"/>
      <point x="63.5303" y="453.064"/>
      <point x="42.1143" y="549.009"/>
      <point x="42.0039" y="549.999" type="curve" smooth="yes"/>
      <point x="40" y="568"/>
      <point x="83.6934" y="570.999"/>
      <point x="105.003" y="570.999" type="curve" smooth="yes"/>
      <point x="126.387" y="570.999"/>
      <point x="165.06" y="566.343"/>
    </contour>
  </outline>
</glyph>
<glyph name="napostrophe" format="1">
  <advance width="590"/>
  <unicode hex="0149"/>
  <outline>
    <contour>
      <point x="256" y="0" type="curve" smooth="yes"/>
      <point x="255" y="0"/>
      <point x="173" y="-7"/>
      <point x="169" y="55" type="curve" smooth="yes"/>
      <point x="165" y="117"/>
      <point x="145" y="350"/>
      <point x="145" y="350" type="curve"/>
      <point x="145" y="350"/>
      <point x="142" y="405"/>
      <point x="223" y="408" type="curve" smooth="yes"/>
      <point x="304" y="411"/>
      <point x="305" y="361"/>
      <point x="305" y="361" type="curve"/>
      <point x="305" y="361"/>
      <point x="367.073" y="398.282"/>
      <point x="434" y="402" type="curve" smooth="yes"/>
      <point x="452" y="403"/>
      <point x="557" y="416"/>
      <point x="564" y="228" type="curve" smooth="yes"/>
      <point x="571" y="40"/>
      <point x="584" y="0"/>
      <point x="497" y="0" type="curve" smooth="yes"/>
      <point x="432" y="0"/>
      <point x="426" y="32"/>
      <point x="427" y="53" type="curve" smooth="yes"/>
      <point x="428" y="74"/>
      <point x="449" y="294"/>
      <point x="403" y="290" type="curve" smooth="yes"/>
      <point x="357" y="286"/>
      <point x="323" y="216"/>
      <point x="323" y="216" type="curve"/>
      <point x="333" y="65" type="line"/>
      <point x="333" y="65"/>
      <point x="342" y="0"/>
    </contour>
    <contour>
      <point x="90" y="398" type="curve"/>
      <point x="90" y="398"/>
      <point x="158" y="395"/>
      <point x="180" y="432" type="curve" smooth="yes"/>
      <point x="202" y="469"/>
      <point x="238" y="528"/>
      <point x="238" y="528" type="curve"/>
      <point x="238" y="528"/>
      <point x="260" y="557"/>
      <point x="202" y="574" type="curve" smooth="yes"/>
      <point x="144" y="591"/>
      <point x="99" y="571"/>
      <point x="90" y="556" type="curve" smooth="yes"/>
      <point x="81" y="541"/>
      <point x="26" y="448"/>
      <point x="26" y="448" type="curve"/>
      <point x="26" y="448"/>
      <point x="-4.00488" y="398"/>
    </contour>
  </outline>
</glyph>
<glyph name="Omacron" format="1">
  <advance width="475"/>
  <unicode hex="014C"/>
  <outline>
    <contour>
      <point x="178" y="295.33" type="curve" smooth="yes"/>
      <point x="178" y="178.08"/>
      <point x="205" y="83.1074"/>
      <point x="239" y="83.1074" type="curve" smooth="yes"/>
      <point x="273" y="83.1074"/>
      <point x="300" y="178.08"/>
      <point x="300" y="295.33" type="curve" smooth="yes"/>
      <point x="300" y="412.58"/>
      <point x="273" y="507.553"/>
      <point x="239" y="507.553" type="curve" smooth="yes"/>
      <point x="205" y="507.553"/>
      <point x="178" y="412.58"/>
    </contour>
    <contour>
      <point x="24.5361" y="290.95" type="curve" smooth="yes"/>
      <point x="24.5361" y="451.888"/>
      <point x="119.004" y="583.213"/>
      <point x="234.728" y="583.213" type="curve" smooth="yes"/>
      <point x="350.45" y="583.213"/>
      <point x="449.919" y="451.888"/>
      <point x="449.919" y="290.95" type="curve" smooth="yes"/>
      <point x="449.919" y="130.013"/>
      <point x="350.45" y="-1.3125"/>
      <point x="234.728" y="-1.3125" type="curve" smooth="yes"/>
      <point x="119.004" y="-1.3125"/>
      <point x="24.5361" y="130.013"/>
    </contour>
    <contour>
      <point x="316.999" y="670" type="line" smooth="yes"/>
      <point x="343.553" y="670"/>
      <point x="392" y="662.704"/>
      <point x="392" y="641.499" type="curve" smooth="yes"/>
      <point x="392" y="620.317"/>
      <point x="343.474" y="612.998"/>
      <point x="316.999" y="612.998" type="curve" smooth="yes"/>
      <point x="135.999" y="612.998" type="line" smooth="yes"/>
      <point x="109.322" y="612.998"/>
      <point x="61.999" y="620.236"/>
      <point x="61.999" y="641.499" type="curve" smooth="yes"/>
      <point x="61.999" y="662.428"/>
      <point x="110.164" y="670"/>
      <point x="135.999" y="670" type="curve" smooth="yes"/>
    </contour>
  </outline>
</glyph>
<glyph name="OE" format="1">
  <advance width="721"/>
  <unicode hex="0152"/>
  <outline>
    <contour>
      <point x="615.001" y="111.001" type="curve" smooth="yes"/>
      <point x="649.863" y="111.001"/>
      <point x="699.003" y="94.5713"/>
      <point x="699.003" y="63.9941" type="curve" smooth="yes"/>
      <point x="699.003" y="32.6455"/>
      <point x="651.47" y="19.9639"/>
      <point x="615.002" y="17.9932" type="curve" smooth="yes"/>
      <point x="613.002" y="17.9932" type="line" smooth="yes"/>
      <point x="556.218" y="17.9932"/>
      <point x="504.051" y="10.9941"/>
      <point x="448.001" y="10.9941" type="curve" smooth="yes"/>
      <point x="429.373" y="10.9941"/>
      <point x="406.541" y="8.99512"/>
      <point x="388.001" y="8.99512" type="curve" smooth="yes"/>
      <point x="366.067" y="8.99512"/>
      <point x="344.732" y="14.126"/>
      <point x="329.001" y="21.9971" type="curve"/>
      <point x="328.001" y="22.9971" type="line"/>
      <point x="300.038" y="10.4131"/>
      <point x="266.339" y="1.99707"/>
      <point x="236.001" y="1.99707" type="curve" smooth="yes"/>
      <point x="184.753" y="1.99707"/>
      <point x="134.037" y="21.9609"/>
      <point x="106.001" y="49.9971" type="curve" smooth="yes"/>
      <point x="78.1152" y="75.8936"/>
      <point x="53.5195" y="115.145"/>
      <point x="41.002" y="159.998" type="curve" smooth="yes"/>
      <point x="21.7451" y="224.987"/>
      <point x="14.5625" y="294.831"/>
      <point x="28.001" y="367.998" type="curve" smooth="yes"/>
      <point x="37.3926" y="421.528"/>
      <point x="51.5986" y="462.836"/>
      <point x="76.002" y="496.998" type="curve" smooth="yes"/>
      <point x="97.8975" y="527.409"/>
      <point x="104.008" y="532.238"/>
      <point x="132" y="551.998" type="curve" smooth="yes"/>
      <point x="162.222" y="569.269"/>
      <point x="198.91" y="579.998"/>
      <point x="238" y="579.998" type="curve" smooth="yes"/>
      <point x="271.823" y="579.998"/>
      <point x="303.104" y="572.446"/>
      <point x="330" y="558.998" type="curve" smooth="yes"/>
      <point x="330.667" y="558.331"/>
      <point x="331.667" y="557.998"/>
      <point x="333" y="557.998" type="curve" smooth="yes"/>
      <point x="337" y="559.331"/>
      <point x="341" y="559.998"/>
      <point x="345" y="559.998" type="curve" smooth="yes"/>
      <point x="347" y="559.998"/>
      <point x="354.333" y="560.665"/>
      <point x="367" y="561.998" type="curve" smooth="yes"/>
      <point x="371" y="561.998" type="line"/>
      <point x="453" y="565.998" type="line" smooth="yes"/>
      <point x="493.407" y="568.126"/>
      <point x="561.75" y="571.924"/>
      <point x="597.002" y="573.999" type="curve" smooth="yes"/>
      <point x="630.628" y="573.999"/>
      <point x="681.003" y="557.77"/>
      <point x="681.003" y="527" type="curve" smooth="yes"/>
      <point x="681.003" y="502.454"/>
      <point x="644.943" y="486.89"/>
      <point x="619.004" y="482.999" type="curve" smooth="yes"/>
      <point x="614.385" y="482.999"/>
      <point x="600.328" y="482.107"/>
      <point x="597.004" y="480.999" type="curve" smooth="yes"/>
      <point x="592.004" y="480.999" type="line" smooth="yes"/>
      <point x="556.02" y="479.244"/>
      <point x="519.291" y="477.857"/>
      <point x="485.004" y="474.999" type="curve" smooth="yes"/>
      <point x="477.004" y="474.332"/>
      <point x="468.337" y="473.999"/>
      <point x="459.004" y="473.999" type="curve"/>
      <point x="465.423" y="432.282"/>
      <point x="472.734" y="381.657"/>
      <point x="475.003" y="333.999" type="curve"/>
      <point x="544.003" y="333.999" type="line" smooth="yes"/>
      <point x="574.702" y="333.999"/>
      <point x="622.002" y="322.885"/>
      <point x="622.002" y="296.5" type="curve" smooth="yes"/>
      <point x="622.002" y="269.703"/>
      <point x="575.51" y="259.001"/>
      <point x="544.002" y="259.001" type="curve" smooth="yes"/>
      <point x="478.002" y="259.001" type="line"/>
      <point x="479.335" y="208.334"/>
      <point x="478.668" y="156.667"/>
      <point x="476.001" y="104" type="curve"/>
      <point x="496.994" y="105.235"/>
      <point x="532.96" y="108"/>
      <point x="555.001" y="108" type="curve" smooth="yes"/>
      <point x="562.158" y="108"/>
      <point x="608.045" y="110.421"/>
    </contour>
    <contour>
      <point x="237.503" y="86.9941" type="curve" smooth="yes"/>
      <point x="254.503" y="86.9941"/>
      <point x="268.836" y="107.494"/>
      <point x="280.503" y="148.494" type="curve" smooth="yes"/>
      <point x="292.17" y="189.494"/>
      <point x="298.003" y="239.161"/>
      <point x="298.003" y="297.494" type="curve" smooth="yes"/>
      <point x="298.003" y="355.827"/>
      <point x="292.17" y="405.494"/>
      <point x="280.503" y="446.494" type="curve" smooth="yes"/>
      <point x="268.836" y="487.494"/>
      <point x="254.503" y="507.994"/>
      <point x="237.503" y="507.994" type="curve" smooth="yes"/>
      <point x="220.503" y="507.994"/>
      <point x="206.17" y="487.494"/>
      <point x="194.503" y="446.494" type="curve" smooth="yes"/>
      <point x="182.836" y="405.494"/>
      <point x="177.003" y="355.827"/>
      <point x="177.003" y="297.494" type="curve" smooth="yes"/>
      <point x="177.003" y="239.161"/>
      <point x="182.836" y="189.494"/>
      <point x="194.503" y="148.494" type="curve" smooth="yes"/>
      <point x="206.17" y="107.494"/>
      <point x="220.503" y="86.9941"/>
    </contour>
  </outline>
</glyph>
<glyph name="rcaron" format="1">
  <advance width="408"/>
  <unicode hex="0159"/>
  <outline>
    <contour>
      <point x="65" y="68" type="curve"/>
      <point x="65" y="68"/>
      <point x="57" y="0"/>
      <point x="155" y="0" type="curve" smooth="yes"/>
      <point x="253" y="0"/>
      <point x="232" y="66"/>
      <point x="232" y="72" type="curve" smooth="yes"/>
      <point x="232" y="78"/>
      <point x="181" y="290"/>
      <point x="286" y="315" type="curve" smooth="yes"/>
      <point x="391" y="340"/>
      <point x="386" y="338"/>
      <point x="386" y="363" type="curve" smooth="yes"/>
      <point x="386" y="384"/>
      <point x="358" y="407"/>
      <point x="293" y="408" type="curve" smooth="yes"/>
      <point x="241.996" y="408.784"/>
      <point x="190.646" y="401.646"/>
      <point x="171" y="382" type="curve"/>
      <point x="171" y="382"/>
      <point x="149" y="402"/>
      <point x="97" y="397" type="curve" smooth="yes"/>
      <point x="45" y="392"/>
      <point x="11" y="378"/>
      <point x="25" y="338" type="curve" smooth="yes"/>
      <point x="39" y="298"/>
      <point x="65" y="105.014"/>
    </contour>
    <contour>
      <point x="128.002" y="559.999" type="curve" smooth="yes"/>
      <point x="128" y="559"/>
      <point x="140.995" y="470.993"/>
      <point x="197.002" y="470.999" type="curve"/>
      <point x="197.002" y="470.999"/>
      <point x="255.01" y="462.979"/>
      <point x="255.002" y="560" type="curve" smooth="yes"/>
      <point x="255" y="584"/>
      <point x="296.691" y="584"/>
      <point x="318.001" y="584" type="curve" smooth="yes"/>
      <point x="339.384" y="584"/>
      <point x="382" y="588"/>
      <point x="381.004" y="560" type="curve" smooth="yes"/>
      <point x="377.409" y="458.94"/>
      <point x="277.004" y="429"/>
      <point x="276" y="429" type="curve" smooth="yes"/>
      <point x="276" y="429"/>
      <point x="186.504" y="402.176"/>
      <point x="104" y="433" type="curve" smooth="yes"/>
      <point x="23.5303" y="463.064"/>
      <point x="2.11426" y="559.009"/>
      <point x="2.00391" y="559.999" type="curve" smooth="yes"/>
      <point x="0" y="578"/>
      <point x="43.6934" y="580.999"/>
      <point x="65.0029" y="580.999" type="curve" smooth="yes"/>
      <point x="86.3867" y="580.999"/>
      <point x="125.06" y="576.343"/>
    </contour>
  </outline>
</glyph>
<glyph name="scedilla" format="1">
  <advance width="491"/>
  <unicode hex="015F"/>
  <outline>
    <contour>
      <point x="241.462" y="160" type="curve" smooth="yes"/>
      <point x="333.06" y="157.738"/>
      <point x="326" y="125"/>
      <point x="326" y="125" type="curve" smooth="yes"/>
      <point x="326" y="126"/>
      <point x="336" y="85"/>
      <point x="248" y="88" type="curve" smooth="yes"/>
      <point x="160" y="91"/>
      <point x="209" y="127"/>
      <point x="114" y="129" type="curve" smooth="yes"/>
      <point x="45.7539" y="130.483"/>
      <point x="44" y="100"/>
      <point x="44.4619" y="73" type="curve"/>
      <point x="44.4619" y="73"/>
      <point x="44" y="-5"/>
      <point x="255" y="0" type="curve" smooth="yes"/>
      <point x="450.945" y="4.64355"/>
      <point x="470" y="107"/>
      <point x="470" y="134" type="curve" smooth="yes"/>
      <point x="470" y="161"/>
      <point x="474" y="238"/>
      <point x="244.462" y="245" type="curve" smooth="yes"/>
      <point x="152.462" y="247"/>
      <point x="158.462" y="278"/>
      <point x="158.462" y="278" type="curve" smooth="yes"/>
      <point x="158.462" y="277"/>
      <point x="148.462" y="318"/>
      <point x="236.462" y="315" type="curve" smooth="yes"/>
      <point x="324.462" y="312"/>
      <point x="275.462" y="276"/>
      <point x="370.462" y="274" type="curve" smooth="yes"/>
      <point x="438.708" y="272.517"/>
      <point x="440.462" y="303"/>
      <point x="440" y="330" type="curve"/>
      <point x="440" y="330"/>
      <point x="440.462" y="408"/>
      <point x="229.462" y="403" type="curve" smooth="yes"/>
      <point x="33.5166" y="398.356"/>
      <point x="39.4619" y="296"/>
      <point x="39.4619" y="269" type="curve" smooth="yes"/>
      <point x="39.4619" y="242"/>
      <point x="39" y="165"/>
    </contour>
    <contour>
      <point x="178" y="-193" type="curve"/>
      <point x="178" y="-193"/>
      <point x="246" y="-196"/>
      <point x="268" y="-159" type="curve" smooth="yes"/>
      <point x="290" y="-122"/>
      <point x="326" y="-63"/>
      <point x="326" y="-63" type="curve"/>
      <point x="326" y="-63"/>
      <point x="348" y="-34"/>
      <point x="290" y="-17" type="curve" smooth="yes"/>
      <point x="232" y="0"/>
      <point x="187" y="-20"/>
      <point x="178" y="-35" type="curve" smooth="yes"/>
      <point x="169" y="-50"/>
      <point x="114" y="-143"/>
      <point x="114" y="-143" type="curve"/>
      <point x="114" y="-143"/>
      <point x="83.9951" y="-193"/>
    </contour>
  </outline>
</glyph>
<glyph name="Tcaron" format="1">
  <advance width="479"/>
  <unicode hex="0164"/>
  <outline>
    <contour>
      <point x="162" y="475" type="curve"/>
      <point x="162" y="475"/>
      <point x="198.139" y="205.999"/>
      <point x="197" y="91" type="curve" smooth="yes"/>
      <point x="196" y="-10"/>
      <point x="281" y="0"/>
      <point x="281" y="0" type="curve"/>
      <point x="281" y="0"/>
      <point x="364" y="-5"/>
      <point x="364" y="56" type="curve" smooth="yes"/>
      <point x="364" y="117"/>
      <point x="341" y="407"/>
      <point x="327" y="490" type="curve"/>
      <point x="391" y="500" type="line"/>
      <point x="391" y="500"/>
      <point x="472" y="513"/>
      <point x="468" y="555" type="curve" smooth="yes"/>
      <point x="464" y="597"/>
      <point x="372" y="589"/>
      <point x="372" y="589" type="curve"/>
      <point x="92" y="563" type="line"/>
      <point x="92" y="563"/>
      <point x="9" y="557"/>
      <point x="13" y="512" type="curve" smooth="yes"/>
      <point x="17" y="467"/>
      <point x="127" y="470"/>
    </contour>
    <contour>
      <point x="168.002" y="739.999" type="curve" smooth="yes"/>
      <point x="168" y="739"/>
      <point x="180.995" y="650.993"/>
      <point x="237.002" y="650.999" type="curve"/>
      <point x="237.002" y="650.999"/>
      <point x="295.01" y="642.979"/>
      <point x="295.002" y="740" type="curve" smooth="yes"/>
      <point x="295" y="764"/>
      <point x="336.691" y="764"/>
      <point x="358.001" y="764" type="curve" smooth="yes"/>
      <point x="379.384" y="764"/>
      <point x="422" y="768"/>
      <point x="421.004" y="740" type="curve" smooth="yes"/>
      <point x="417.409" y="638.94"/>
      <point x="317.004" y="609"/>
      <point x="316" y="609" type="curve" smooth="yes"/>
      <point x="316" y="609"/>
      <point x="226.504" y="582.176"/>
      <point x="144" y="613" type="curve" smooth="yes"/>
      <point x="63.5303" y="643.064"/>
      <point x="42.1143" y="739.009"/>
      <point x="42.0039" y="739.999" type="curve" smooth="yes"/>
      <point x="40" y="758"/>
      <point x="83.6934" y="760.999"/>
      <point x="105.003" y="760.999" type="curve" smooth="yes"/>
      <point x="126.387" y="760.999"/>
      <point x="165.06" y="756.343"/>
    </contour>
  </outline>
</glyph>
